<svg width="201" height="146" viewBox="0 0 201 146" fill="none" xmlns="http://www.w3.org/2000/svg">
<g clip-path="url(#clip0_580_527)">
<path opacity="0.1" d="M133.539 9.22171C83.8546 -11.2704 24.2637 23.9599 10.4709 53.0195C-22.6493 122.798 35.2294 155.001 60.6912 143.222C71.3207 138.305 80.0033 129.907 88.3948 121.737C100.995 109.575 117.688 102.566 135.194 102.088C148.677 101.778 162.094 105.396 175.538 104.334C188.981 103.271 200.857 84.7305 200.492 71.2499C199.936 50.6743 186.818 31.1953 133.539 9.22171Z" fill="#738BBF"/>
<path d="M167.75 7.39313H33.2515C28.7914 7.39313 25.1758 11.0087 25.1758 15.4688V121.311C25.1758 125.771 28.7914 129.387 33.2515 129.387H167.75C172.21 129.387 175.826 125.771 175.826 121.311V15.4688C175.826 11.0087 172.21 7.39313 167.75 7.39313Z" fill="white"/>
<path d="M167.75 129.641H33.2508C31.0426 129.638 28.9255 128.76 27.3641 127.198C25.8026 125.637 24.9243 123.52 24.9219 121.311V15.4688C24.9243 13.2606 25.8026 11.1434 27.3641 9.58196C28.9255 8.02046 31.0426 7.14211 33.2508 7.13959H167.75C169.958 7.14211 172.075 8.02046 173.637 9.58196C175.198 11.1434 176.076 13.2606 176.079 15.4688V121.311C176.076 123.52 175.198 125.637 173.637 127.198C172.075 128.76 169.958 129.638 167.75 129.641ZM33.2508 7.64637C31.1769 7.64875 29.1887 8.47367 27.7222 9.94015C26.2558 11.4066 25.431 13.3949 25.4287 15.4688V121.311C25.431 123.385 26.2558 125.374 27.7222 126.84C29.1887 128.307 31.1769 129.131 33.2508 129.134H167.75C169.824 129.131 171.812 128.307 173.278 126.84C174.745 125.374 175.57 123.385 175.572 121.311V15.4688C175.57 13.3949 174.745 11.4066 173.278 9.94015C171.812 8.47367 169.824 7.64875 167.75 7.64637H33.2508Z" fill="#333333"/>
<path d="M175.825 15.4696V30.7832H25.1758V15.4696C25.1755 14.4089 25.3842 13.3585 25.79 12.3784C26.1957 11.3984 26.7906 10.5079 27.5406 9.75777C28.2907 9.00768 29.1811 8.4127 30.1611 8.00683C31.1412 7.60097 32.1915 7.39216 33.2523 7.39233H167.75C169.892 7.39269 171.946 8.24388 173.461 9.75865C174.975 11.2734 175.826 13.3277 175.825 15.4696Z" fill="#738BBF"/>
<path d="M176.098 31.0552H24.9043V15.4696C24.9064 13.2561 25.7866 11.1338 27.3517 9.56846C28.9168 8.00314 31.039 7.12268 33.2525 7.1203H167.751C169.964 7.12304 172.086 8.00364 173.651 9.56892C175.215 11.1342 176.096 13.2563 176.098 15.4696V31.0552ZM25.4489 30.5111H175.554V15.4696C175.552 13.4006 174.729 11.4168 173.266 9.95354C171.803 8.49028 169.82 7.66702 167.751 7.66436H33.2525C31.1833 7.66666 29.1994 8.48977 27.7363 9.95308C26.2732 11.4164 25.4504 13.4004 25.4484 15.4696L25.4489 30.5111Z" fill="#738BBF"/>
<path d="M64.3066 15.3263V4.02167C64.3066 1.94059 62.6196 0.25354 60.5385 0.25354C58.4574 0.25354 56.7704 1.94059 56.7704 4.02167V15.3263C56.7704 17.4074 58.4574 19.0944 60.5385 19.0944C62.6196 19.0944 64.3066 17.4074 64.3066 15.3263Z" fill="white"/>
<path d="M60.5373 19.3477C59.4712 19.3462 58.4493 18.922 57.6955 18.1681C56.9418 17.4142 56.5179 16.3921 56.5167 15.326V4.02165C56.5124 3.49075 56.6132 2.96424 56.8133 2.4725C57.0135 1.98076 57.309 1.53351 57.6828 1.15655C58.0567 0.779598 58.5015 0.480402 58.9916 0.276221C59.4817 0.0720411 60.0073 -0.0330811 60.5383 -0.0330811C61.0692 -0.0330811 61.5948 0.0720411 62.0849 0.276221C62.575 0.480402 63.0198 0.779598 63.3937 1.15655C63.7675 1.53351 64.0631 1.98076 64.2632 2.4725C64.4633 2.96424 64.5641 3.49075 64.5598 4.02165V15.326C64.5586 16.3924 64.1344 17.4148 63.3803 18.1688C62.6262 18.9228 61.6037 19.3467 60.5373 19.3477ZM60.5373 0.506781C59.6054 0.50779 58.712 0.878428 58.053 1.53738C57.3941 2.19632 57.0234 3.08976 57.0224 4.02165V15.326C57.0184 15.7902 57.1063 16.2506 57.2811 16.6806C57.4559 17.1106 57.7141 17.5017 58.0409 17.8314C58.3677 18.161 58.7565 18.4227 59.1849 18.6013C59.6134 18.7799 60.073 18.8718 60.5372 18.8718C61.0013 18.8718 61.4609 18.7799 61.8894 18.6013C62.3178 18.4227 62.7067 18.161 63.0335 17.8314C63.3602 17.5017 63.6185 17.1106 63.7933 16.6806C63.9681 16.2506 64.056 15.7902 64.0519 15.326V4.02165C64.0509 3.0898 63.6803 2.19641 63.0214 1.53747C62.3625 0.878532 61.4691 0.507861 60.5373 0.506781Z" fill="#333333"/>
<path d="M144.232 15.326V4.02136C144.232 1.94029 142.545 0.253235 140.464 0.253235C138.383 0.253235 136.696 1.94029 136.696 4.02136V15.326C136.696 17.4071 138.383 19.0941 140.464 19.0941C142.545 19.0941 144.232 17.4071 144.232 15.326Z" fill="white"/>
<path d="M140.464 19.3477C139.398 19.3465 138.376 18.9224 137.622 18.1685C136.868 17.4145 136.444 16.3923 136.442 15.326V4.02165C136.442 2.95504 136.866 1.93212 137.62 1.17792C138.375 0.423709 139.397 0 140.464 0C141.531 0 142.554 0.423709 143.308 1.17792C144.062 1.93212 144.486 2.95504 144.486 4.02165V15.326C144.485 16.3923 144.06 17.4145 143.307 18.1685C142.553 18.9224 141.53 19.3465 140.464 19.3477ZM140.464 0.506787C139.532 0.508083 138.639 0.878849 137.98 1.53776C137.322 2.19668 136.951 3.08995 136.95 4.02165V15.326C136.95 16.2582 137.321 17.1522 137.98 17.8114C138.639 18.4706 139.533 18.8409 140.465 18.8409C141.397 18.8409 142.291 18.4706 142.951 17.8114C143.61 17.1522 143.98 16.2582 143.98 15.326V4.02165C143.979 3.08957 143.608 2.19598 142.949 1.537C142.29 0.878019 141.396 0.507507 140.464 0.506787Z" fill="#333333"/>
<g opacity="0.08">
<path d="M54.2256 41.6191H32.5371V62.9365H54.2256V41.6191Z" fill="#738BBF"/>
<path d="M54.2256 68.8643H32.5371V90.1817H54.2256V68.8643Z" fill="#738BBF"/>
<path d="M54.2256 96.1097H32.5371V117.427H54.2256V96.1097Z" fill="#738BBF"/>
<path d="M82.7832 41.6191H61.0947V62.9365H82.7832V41.6191Z" fill="#738BBF"/>
<path d="M82.7832 68.8643H61.0947V90.1817H82.7832V68.8643Z" fill="#738BBF"/>
<path d="M111.054 41.6191H89.3652V62.9365H111.054V41.6191Z" fill="#738BBF"/>
<path d="M111.054 68.8643H89.3652V90.1817H111.054V68.8643Z" fill="#738BBF"/>
<path d="M140.124 41.6191H118.436V62.9365H140.124V41.6191Z" fill="#738BBF"/>
<path d="M140.124 68.8643H118.436V90.1817H140.124V68.8643Z" fill="#738BBF"/>
<path d="M82.7832 96.1097H61.0947V117.427H82.7832V96.1097Z" fill="#738BBF"/>
<path d="M111.054 96.1097H89.3652V117.427H111.054V96.1097Z" fill="#738BBF"/>
<path d="M168.464 41.6191H146.775V62.9365H168.464V41.6191Z" fill="#738BBF"/>
<path d="M168.464 68.8643H146.775V90.1817H168.464V68.8643Z" fill="#738BBF"/>
</g>
<path d="M86.5225 72.7736C88.7742 72.7736 90.5996 70.9482 90.5996 68.6964C90.5996 66.4447 88.7742 64.6193 86.5225 64.6193C84.2707 64.6193 82.4453 66.4447 82.4453 68.6964C82.4453 70.9482 84.2707 72.7736 86.5225 72.7736Z" fill="#333333"/>
<path d="M114.479 72.7736C116.731 72.7736 118.557 70.9482 118.557 68.6964C118.557 66.4447 116.731 64.6193 114.479 64.6193C112.228 64.6193 110.402 66.4447 110.402 68.6964C110.402 70.9482 112.228 72.7736 114.479 72.7736Z" fill="#333333"/>
<path d="M105.967 79.9722C105.967 79.9722 104 81 100.5 81C97 81 95.0347 79.9722 95.0347 79.9722C94.9626 79.9722 94.8934 79.9436 94.8424 79.8926C94.7914 79.8416 94.7627 79.7724 94.7627 79.7002C94.7627 79.6281 94.7914 79.5589 94.8424 79.5079C94.8934 79.4569 94.9626 79.4282 95.0347 79.4282C95.0347 79.4282 98.3283 80.4558 100.5 80.4559C102.673 80.4561 105.967 79.4282 105.967 79.4282C106.04 79.4282 106.109 79.4569 106.16 79.5079C106.211 79.5589 106.24 79.6281 106.24 79.7002C106.24 79.7724 106.211 79.8416 106.16 79.8926C106.109 79.9436 106.04 79.9722 105.967 79.9722Z" fill="#333333"/>
<path d="M82.3167 80.3593C84.3254 80.3593 85.9537 79.5023 85.9537 78.4451C85.9537 77.3879 84.3254 76.5308 82.3167 76.5308C80.308 76.5308 78.6797 77.3879 78.6797 78.4451C78.6797 79.5023 80.308 80.3593 82.3167 80.3593Z" fill="white"/>
<path d="M118.685 80.3593C120.694 80.3593 122.322 79.5023 122.322 78.4451C122.322 77.3879 120.694 76.5308 118.685 76.5308C116.676 76.5308 115.048 77.3879 115.048 78.4451C115.048 79.5023 116.676 80.3593 118.685 80.3593Z" fill="white"/>
<g opacity="0.4">
<path d="M82.3167 80.3593C84.3254 80.3593 85.9537 79.5023 85.9537 78.4451C85.9537 77.3879 84.3254 76.5308 82.3167 76.5308C80.308 76.5308 78.6797 77.3879 78.6797 78.4451C78.6797 79.5023 80.308 80.3593 82.3167 80.3593Z" fill="#738BBF"/>
<path d="M118.685 80.3593C120.694 80.3593 122.322 79.5023 122.322 78.4451C122.322 77.3879 120.694 76.5308 118.685 76.5308C116.676 76.5308 115.048 77.3879 115.048 78.4451C115.048 79.5023 116.676 80.3593 118.685 80.3593Z" fill="#738BBF"/>
</g>
</g>
<defs>
<clipPath id="clip0_580_527">
<rect width="200" height="145.604" fill="white" transform="translate(0.5)"/>
</clipPath>
</defs>
</svg>
