<svg width="24" height="24" viewBox="0 0 24 24" fill="none" xmlns="http://www.w3.org/2000/svg">
<path d="M12 2C17.523 2 22 6.477 22 12C22 17.523 17.523 22 12 22C10.404 22.0022 8.83083 21.6208 7.41301 20.888L3.58701 21.955C3.37355 22.0146 3.14809 22.0163 2.93373 21.9601C2.71937 21.9038 2.52382 21.7916 2.36712 21.6349C2.21041 21.4782 2.09818 21.2826 2.04194 21.0683C1.98569 20.8539 1.98744 20.6285 2.04701 20.415L3.11501 16.592C2.38036 15.1729 1.99793 13.5979 2.00001 12C2.00001 6.477 6.47701 2 12 2ZM12 3.5C9.74567 3.5 7.58366 4.39553 5.9896 5.98959C4.39554 7.58365 3.50001 9.74566 3.50001 12C3.50001 13.47 3.87301 14.883 4.57301 16.137L4.72301 16.407L3.61101 20.391L7.59801 19.279L7.86801 19.429C9.00239 20.0597 10.2661 20.4222 11.5624 20.4888C12.8586 20.5554 14.1528 20.3242 15.3458 19.8131C16.5389 19.3019 17.599 18.5244 18.445 17.54C19.2909 16.5556 19.9002 15.3906 20.2261 14.1343C20.552 12.8779 20.5858 11.5636 20.325 10.2922C20.0643 9.02073 19.5158 7.82589 18.7216 6.79927C17.9275 5.77264 16.9088 4.94152 15.7437 4.36962C14.5786 3.79773 13.2979 3.50025 12 3.5ZM12 15.5C12.2652 15.5 12.5196 15.6054 12.7071 15.7929C12.8947 15.9804 13 16.2348 13 16.5C13 16.7652 12.8947 17.0196 12.7071 17.2071C12.5196 17.3946 12.2652 17.5 12 17.5C11.7348 17.5 11.4804 17.3946 11.2929 17.2071C11.1054 17.0196 11 16.7652 11 16.5C11 16.2348 11.1054 15.9804 11.2929 15.7929C11.4804 15.6054 11.7348 15.5 12 15.5ZM12 6.75C12.7294 6.75 13.4288 7.03973 13.9446 7.55546C14.4603 8.07118 14.75 8.77065 14.75 9.5C14.75 10.51 14.453 11.074 13.699 11.859L13.53 12.03C12.908 12.652 12.75 12.916 12.75 13.5C12.75 13.6989 12.671 13.8897 12.5303 14.0303C12.3897 14.171 12.1989 14.25 12 14.25C11.8011 14.25 11.6103 14.171 11.4697 14.0303C11.329 13.8897 11.25 13.6989 11.25 13.5C11.25 12.49 11.547 11.926 12.301 11.141L12.47 10.97C13.092 10.348 13.25 10.084 13.25 9.5C13.249 9.18028 13.1255 8.8731 12.9049 8.64165C12.6843 8.4102 12.3834 8.27208 12.0641 8.25568C11.7448 8.23929 11.4314 8.34587 11.1882 8.55351C10.9451 8.76115 10.7908 9.05406 10.757 9.372L10.75 9.5C10.75 9.69891 10.671 9.88968 10.5303 10.0303C10.3897 10.171 10.1989 10.25 10 10.25C9.8011 10.25 9.61033 10.171 9.46968 10.0303C9.32903 9.88968 9.25001 9.69891 9.25001 9.5C9.25001 8.77065 9.53974 8.07118 10.0555 7.55546C10.5712 7.03973 11.2707 6.75 12 6.75Z" fill="#738BBF"/>
<path fill-rule="evenodd" clip-rule="evenodd" d="M3.00804 16.6029L1.9506 20.3881C1.88626 20.6187 1.88436 20.8622 1.94511 21.0937C2.00586 21.3252 2.12707 21.5364 2.29631 21.7056C2.46555 21.8749 2.67675 21.9961 2.90825 22.0568C3.13975 22.1176 3.38324 22.1157 3.61377 22.0513L7.40202 20.9949C7.40202 20.9949 8.72908 21.644 9.60566 21.874C10.8414 22.1982 11.9993 22.1239 11.9993 22.1239C17.5775 22.1238 22.0999 17.5782 22.0999 12C22.0999 6.4218 17.5781 1.90002 11.9999 1.90002C6.42173 1.90002 1.89998 6.42173 1.89991 11.9999C1.89783 13.6007 2.27781 15.1788 3.00804 16.6029ZM4.41296 17.8895L4.83027 16.3944L4.66033 16.0885C3.96862 14.8493 3.59991 13.4529 3.59991 12C3.59991 9.77221 4.48491 7.63563 6.06021 6.06033C7.63552 4.48503 9.7721 3.60003 11.9999 3.60002C13.2826 3.60027 14.5481 3.89425 15.6995 4.45942C16.851 5.02459 17.8577 5.84593 18.6425 6.86047C19.4272 7.87502 19.9693 9.05581 20.227 10.3123C20.4847 11.5688 20.4512 12.8676 20.1292 14.1092C19.8071 15.3507 19.205 16.5021 18.369 17.4749C17.533 18.4476 16.4854 19.2161 15.3064 19.7212C14.1274 20.2263 12.8484 20.4548 11.5674 20.389C10.2864 20.3232 9.03751 19.9649 7.91648 19.3416L7.61059 19.1717L6.1135 19.5892L3.75492 20.247L4.41296 17.8895ZM13.601 12.1003L13.77 11.9293L13.771 11.9283C14.1512 11.5325 14.4227 11.1859 14.598 10.8058C14.774 10.4241 14.8499 10.0156 14.8499 9.50002C14.8499 8.74416 14.5496 8.01925 14.0152 7.48477C13.4807 6.95029 12.7558 6.65002 11.9999 6.65002C11.244 6.65002 10.5191 6.95029 9.98466 7.48477C9.45018 8.01925 9.14991 8.74416 9.14991 9.50002C9.14991 9.72546 9.23946 9.94166 9.39887 10.1011C9.55828 10.2605 9.77448 10.35 9.99991 10.35C10.2253 10.35 10.4415 10.2605 10.601 10.1011C10.7597 9.94232 10.8492 9.72725 10.8499 9.50283L10.8566 9.3801C10.8882 9.08856 11.03 8.82007 11.2531 8.62958C11.4768 8.43855 11.7651 8.34049 12.0589 8.35558C12.3526 8.37066 12.6295 8.49774 12.8324 8.71067C13.0353 8.92353 13.1489 9.20602 13.1499 9.50006C13.1499 9.78145 13.1121 9.97558 13.0052 10.1732C12.8956 10.3758 12.7098 10.5887 12.3988 10.8997L12.2298 11.0707L12.2288 11.0718C11.8487 11.4675 11.5772 11.8142 11.4019 12.1943C11.2258 12.5759 11.1499 12.9845 11.1499 13.5C11.1499 13.7255 11.2395 13.9417 11.3989 14.1011C11.5583 14.2605 11.7745 14.35 11.9999 14.35C12.2253 14.35 12.4415 14.2605 12.601 14.1011C12.7604 13.9417 12.8499 13.7255 12.8499 13.5C12.8499 13.2186 12.8877 13.0245 12.9946 12.8269C13.1042 12.6242 13.29 12.4113 13.601 12.1003ZM12.7777 15.7222C12.5714 15.5159 12.2916 15.4 11.9999 15.4C11.7082 15.4 11.4284 15.5159 11.2221 15.7222C11.0158 15.9285 10.8999 16.2083 10.8999 16.5C10.8999 16.7918 11.0158 17.0716 11.2221 17.2778C11.4284 17.4841 11.7082 17.6 11.9999 17.6C12.2916 17.6 12.5714 17.4841 12.7777 17.2778C12.984 17.0716 13.0999 16.7918 13.0999 16.5C13.0999 16.2083 12.984 15.9285 12.7777 15.7222Z" fill="#738BBF"/>
</svg>
