<svg width="24" height="24" viewBox="0 0 24 24" fill="none" xmlns="http://www.w3.org/2000/svg">
<path d="M17.4999 12C18.9586 12 20.3575 12.5795 21.389 13.6109C22.4204 14.6424 22.9999 16.0413 22.9999 17.5C22.9999 18.9587 22.4204 20.3576 21.389 21.3891C20.3575 22.4205 18.9586 23 17.4999 23C16.0412 23 14.6423 22.4205 13.6108 21.3891C12.5794 20.3576 11.9999 18.9587 11.9999 17.5C11.9999 16.0413 12.5794 14.6424 13.6108 13.6109C14.6423 12.5795 16.0412 12 17.4999 12ZM12.0229 14C11.7232 14.4675 11.4849 14.9716 11.3139 15.5H4.25391C4.05499 15.5 3.86423 15.579 3.72358 15.7197C3.58292 15.8603 3.50391 16.0511 3.50391 16.25V17.157C3.50391 17.813 3.78991 18.437 4.28691 18.864C5.54491 19.945 7.44091 20.5 9.99991 20.5C10.5999 20.5 11.1619 20.47 11.6879 20.41C11.9379 20.91 12.2509 21.373 12.6179 21.79C11.8149 21.93 10.9419 22 9.99991 22C7.10991 22 4.87191 21.344 3.30991 20C2.90024 19.648 2.57146 19.2116 2.34605 18.7208C2.12064 18.2299 2.00393 17.6961 2.00391 17.156V16.249C2.00417 15.6524 2.24134 15.0804 2.66327 14.6587C3.0852 14.2369 3.65734 14 4.25391 14H12.0229ZM15.0929 14.966L15.0239 15.024L14.9659 15.094C14.9083 15.1775 14.8774 15.2766 14.8774 15.378C14.8774 15.4795 14.9083 15.5785 14.9659 15.662L15.0239 15.732L16.7939 17.501L15.0269 19.268L14.9689 19.337C14.9111 19.4206 14.8801 19.5198 14.8801 19.6215C14.8801 19.7232 14.9111 19.8224 14.9689 19.906L15.0269 19.975L15.0959 20.033C15.1795 20.0908 15.2787 20.1218 15.3804 20.1218C15.4821 20.1218 15.5813 20.0908 15.6649 20.033L15.7339 19.975L17.5009 18.208L19.2699 19.978L19.3389 20.035C19.4225 20.0928 19.5217 20.1238 19.6234 20.1238C19.7251 20.1238 19.8243 20.0928 19.9079 20.035L19.9769 19.977L20.0349 19.907C20.0925 19.8235 20.1234 19.7245 20.1234 19.623C20.1234 19.5216 20.0925 19.4225 20.0349 19.339L19.9769 19.27L18.2069 17.5L19.9799 15.732L20.0379 15.662C20.0955 15.5785 20.1264 15.4795 20.1264 15.378C20.1264 15.2766 20.0955 15.1775 20.0379 15.094L19.9799 15.024L19.9099 14.967C19.8264 14.9094 19.7274 14.8785 19.6259 14.8785C19.5245 14.8785 19.4254 14.9094 19.3419 14.967L19.2719 15.024L17.5009 16.794L15.7309 15.024L15.6619 14.967C15.5907 14.9178 15.5079 14.8879 15.4217 14.8802C15.3355 14.8724 15.2487 14.8872 15.1699 14.923L15.0929 14.966ZM9.99991 2.005C10.6565 2.005 11.3067 2.13433 11.9133 2.38561C12.52 2.63688 13.0711 3.00518 13.5354 3.46947C13.9997 3.93376 14.368 4.48496 14.6193 5.09159C14.8706 5.69822 14.9999 6.3484 14.9999 7.005C14.9999 7.66161 14.8706 8.31179 14.6193 8.91842C14.368 9.52505 13.9997 10.0762 13.5354 10.5405C13.0711 11.0048 12.52 11.3731 11.9133 11.6244C11.3067 11.8757 10.6565 12.005 9.99991 12.005C8.67382 12.005 7.40205 11.4782 6.46437 10.5405C5.52669 9.60286 4.99991 8.33109 4.99991 7.005C4.99991 5.67892 5.52669 4.40715 6.46437 3.46947C7.40205 2.53179 8.67382 2.005 9.99991 2.005ZM9.99991 3.505C9.54028 3.505 9.08515 3.59554 8.66051 3.77143C8.23588 3.94732 7.85004 4.20513 7.52503 4.53013C7.20003 4.85514 6.94222 5.24097 6.76633 5.66561C6.59044 6.09025 6.49991 6.54538 6.49991 7.005C6.49991 7.46463 6.59044 7.91976 6.76633 8.3444C6.94222 8.76904 7.20003 9.15487 7.52503 9.47988C7.85004 9.80488 8.23588 10.0627 8.66051 10.2386C9.08515 10.4145 9.54028 10.505 9.99991 10.505C10.9282 10.505 11.8184 10.1363 12.4748 9.47988C13.1312 8.8235 13.4999 7.93326 13.4999 7.005C13.4999 6.07675 13.1312 5.18651 12.4748 4.53013C11.8184 3.87375 10.9282 3.505 9.99991 3.505Z" fill="#E54544"/>
</svg>
