<svg width="16" height="16" viewBox="0 0 16 16" fill="none" xmlns="http://www.w3.org/2000/svg">
<path d="M15.0667 16C15.3333 16 15.5556 15.9111 15.7333 15.7333C15.9111 15.5556 16 15.3333 16 15.0667V11.4667C16 11.2593 15.9333 11.0776 15.8 10.9218C15.6667 10.7659 15.4963 10.6661 15.2889 10.6222L12.2222 10C12.0148 9.97037 11.8036 9.98904 11.5884 10.056C11.3733 10.123 11.1994 10.2228 11.0667 10.3556L8.97778 12.4444C7.85185 11.763 6.82222 10.9556 5.88889 10.0222C4.95556 9.08889 4.17778 8.08889 3.55556 7.02222L5.68889 4.84444C5.82222 4.71111 5.90756 4.55911 5.94489 4.38844C5.98222 4.21778 5.98578 4.02904 5.95555 3.82222L5.37778 0.711111C5.34815 0.503704 5.25185 0.333333 5.08889 0.2C4.92593 0.0666666 4.74074 0 4.53333 0H0.933332C0.666666 0 0.444444 0.0888888 0.266665 0.266667C0.0888882 0.444444 0 0.666667 0 0.933334C0 2.84444 0.426074 4.70756 1.27822 6.52267C2.13037 8.33778 3.2563 9.94518 4.656 11.3449C6.0557 12.7446 7.66311 13.8705 9.47822 14.7227C11.2933 15.5748 13.1561 16.0006 15.0667 16Z" fill="#333333"/>
</svg>
