<svg width="22" height="22" viewBox="0 0 22 22" fill="none" xmlns="http://www.w3.org/2000/svg">
<path d="M21.7873 16.5165C21.5948 17.98 20.8761 19.3233 19.7654 20.2956C18.6548 21.2678 17.2283 21.8026 15.7522 21.7999C7.17695 21.7999 0.200083 14.8231 0.200083 6.24779C0.197437 4.77173 0.73219 3.34518 1.70447 2.23458C2.67674 1.12397 4.02005 0.405266 5.48349 0.212693C5.85356 0.167506 6.22832 0.243216 6.55183 0.42852C6.87533 0.613825 7.13023 0.898785 7.27847 1.24086L9.55945 6.33311V6.34607C9.67295 6.60792 9.71982 6.89381 9.69589 7.17819C9.67195 7.46258 9.57796 7.73661 9.42229 7.97581C9.40285 8.00497 9.38233 8.03197 9.36073 8.05897L7.11215 10.7244C7.92108 12.3682 9.64046 14.0725 11.3058 14.8836L13.9346 12.6469C13.9604 12.6252 13.9874 12.605 14.0156 12.5864C14.2546 12.427 14.5295 12.3297 14.8156 12.3033C15.1017 12.2769 15.3898 12.3222 15.654 12.4352L15.668 12.4417L20.7559 14.7216C21.0986 14.8693 21.3843 15.1239 21.5702 15.4475C21.7561 15.771 21.8323 16.1461 21.7873 16.5165Z" fill="white"/>
</svg>
