<svg width="200" height="200" viewBox="0 0 200 200" fill="none" xmlns="http://www.w3.org/2000/svg">
<g clip-path="url(#clip0_443_2030)">
<path opacity="0.1" d="M100 200C155.229 200 200 155.229 200 100C200 44.7716 155.229 0 100 0C44.7716 0 0 44.7716 0 100C0 155.229 44.7716 200 100 200Z" fill="#738BBF"/>
<path d="M56.7352 70.0044C57.0968 69.599 57.5346 69.2688 58.0237 69.0327C58.5129 68.7965 59.0437 68.659 59.586 68.6281C60.1283 68.5971 60.6714 68.6732 61.1842 68.8521C61.6971 69.031 62.1697 69.3092 62.575 69.6707L75.7748 81.4437L70.2685 87.6174L57.0687 75.8444C56.6633 75.4828 56.3331 75.045 56.097 74.5558C55.8608 74.0666 55.7233 73.5357 55.6924 72.9934C55.6614 72.4511 55.7376 71.908 55.9165 71.3952C56.0954 70.8823 56.3736 70.4097 56.7352 70.0044Z" fill="white"/>
<path d="M70.3006 88.1933L56.7969 76.1487C56.3515 75.7515 55.9887 75.2704 55.7293 74.7329C55.4698 74.1955 55.3187 73.6122 55.2847 73.0164C55.2506 72.4205 55.3342 71.8238 55.5308 71.2603C55.7273 70.6968 56.033 70.1775 56.4302 69.7321C56.8275 69.2867 57.3085 68.9239 57.846 68.6644C58.3834 68.4049 58.9667 68.2539 59.5626 68.2198C60.1584 68.1858 60.7551 68.2694 61.3186 68.4659C61.8821 68.6625 62.4014 68.9681 62.8468 69.3654L76.352 81.4103L70.3006 88.1933ZM59.8255 69.0291C59.7532 69.0291 59.6808 69.0311 59.6081 69.0352C58.872 69.0774 58.165 69.337 57.5764 69.781C56.9878 70.2251 56.5441 70.8337 56.3014 71.5299C56.0587 72.2261 56.0279 72.9786 56.2129 73.6923C56.3979 74.406 56.7903 75.0488 57.3406 75.5395L70.2357 87.0407L75.1982 81.477L62.3031 69.9758C61.6229 69.3652 60.7408 69.028 59.8268 69.0291H59.8255Z" fill="#333333"/>
<path d="M129.73 87.6169L124.224 81.4435L137.424 69.6705C138.242 68.9403 139.317 68.5653 140.413 68.6279C141.508 68.6904 142.533 69.1855 143.263 70.0041C143.994 70.8228 144.369 71.898 144.306 72.9931C144.243 74.0883 143.748 75.1138 142.93 75.8439L129.73 87.6169Z" fill="white"/>
<path d="M129.698 88.1933L123.648 81.4103L137.153 69.3654C138.053 68.5631 139.234 68.151 140.437 68.2198C141.641 68.2886 142.768 68.8326 143.57 69.7321C144.372 70.6316 144.784 71.813 144.715 73.0164C144.647 74.2197 144.103 75.3464 143.203 76.1487L129.698 88.1933ZM124.802 81.4764L129.764 87.0401L142.659 75.5395C143.025 75.2137 143.322 74.8191 143.535 74.3782C143.748 73.9374 143.872 73.459 143.9 72.9702C143.928 72.4815 143.859 71.9921 143.698 71.5299C143.537 71.0677 143.286 70.6417 142.96 70.2764C142.634 69.9111 142.24 69.6135 141.799 69.4007C141.358 69.1879 140.879 69.064 140.391 69.0361C139.902 69.0082 139.413 69.0768 138.95 69.238C138.488 69.3992 138.062 69.6499 137.697 69.9758L124.802 81.4764Z" fill="#333333"/>
<path d="M135.227 95.275C138.172 108.314 142.203 116.702 140.195 121.52C139.14 124.053 136.975 126.176 133.39 126.176C127.802 126.176 127.802 119.586 122.213 119.586C116.625 119.586 116.626 126.176 111.038 126.176C105.45 126.176 105.451 119.586 99.8637 119.586C94.2765 119.586 94.2762 126.176 88.6887 126.176C83.1012 126.176 83.1015 119.586 77.5143 119.586C71.9271 119.586 71.9277 126.176 66.3411 126.176C63.0241 126.176 61.149 124.223 59.9599 121.965C57.1022 116.541 63.7624 104.607 66.3411 94.0822C69.1903 82.4528 68.9503 67.9674 69.3326 59.231C70.07 42.3833 83.0022 28.6963 99.8673 28.6963C116.732 28.6963 129.174 42.4119 130.402 59.231C131.064 68.2982 132.532 83.3392 135.227 95.275Z" fill="white"/>
<path d="M133.39 126.588C130.405 126.588 128.922 124.839 127.487 123.146C126.114 121.526 124.817 119.997 122.213 119.997C119.61 119.997 118.315 121.526 116.94 123.146C115.506 124.838 114.022 126.588 111.038 126.588C108.054 126.588 106.571 124.839 105.137 123.146C103.763 121.526 102.466 119.997 99.8637 119.997C97.2612 119.997 95.9649 121.526 94.5905 123.146C93.1562 124.838 91.6734 126.588 88.6887 126.588C85.704 126.588 84.2206 124.839 82.789 123.148C81.4156 121.528 80.1186 119.998 77.5158 119.998C74.9131 119.998 73.617 121.528 72.2433 123.148C70.8095 124.839 69.3268 126.59 66.3427 126.59C63.3744 126.59 61.1679 125.141 59.5968 122.159C57.6044 118.377 59.9973 111.691 62.5313 104.614C63.7895 101.098 65.0899 97.4632 65.9427 93.9869C68.2214 84.6861 68.5099 73.7575 68.7413 64.9757C68.7959 62.8987 68.8477 60.9365 68.9241 59.2155C69.2896 50.876 72.6054 43.1143 78.2621 37.3596C81.0735 34.4785 84.4347 32.1909 88.1464 30.6326C91.8581 29.0742 95.8448 28.2766 99.8704 28.2872C103.87 28.2777 107.83 29.0777 111.512 30.639C115.195 32.2003 118.523 34.4906 121.297 37.3721C126.822 43.0616 130.203 50.8154 130.816 59.2036C131.407 67.2919 132.818 82.7211 135.632 95.187C136.587 99.4151 137.655 103.15 138.598 106.445C140.566 113.326 141.989 118.297 140.578 121.681C139.812 123.513 137.863 126.588 133.39 126.588ZM122.213 119.174C125.198 119.174 126.681 120.923 128.116 122.616C129.49 124.236 130.787 125.765 133.39 125.765C137.385 125.765 139.13 123.007 139.815 121.363C141.115 118.245 139.724 113.39 137.803 106.67C136.859 103.364 135.785 99.6179 134.826 95.3673C131.999 82.8484 130.584 67.3732 129.992 59.2624C128.736 42.0723 115.785 29.1093 99.867 29.1093C83.7156 29.1093 70.4836 42.3485 69.7426 59.2502C69.6676 60.9639 69.6158 62.9224 69.5598 64.9958C69.3396 73.3515 69.0377 84.7945 66.738 94.1815C65.8763 97.699 64.5675 101.355 63.3022 104.89C60.8313 111.793 58.4975 118.313 60.3211 121.774C61.7363 124.46 63.7043 125.764 66.3381 125.764C68.9406 125.764 70.2369 124.235 71.6106 122.615C73.0444 120.923 74.5271 119.173 77.5113 119.173C80.4954 119.173 81.9788 120.922 83.4125 122.615C84.7859 124.235 86.0829 125.764 88.6856 125.764C91.2884 125.764 92.586 124.234 93.9591 122.615C95.3934 120.923 96.8762 119.173 99.8606 119.173C102.845 119.173 104.328 120.922 105.762 122.615C107.135 124.235 108.432 125.764 111.035 125.764C113.638 125.764 114.935 124.234 116.309 122.615C117.746 120.924 119.229 119.174 122.213 119.174Z" fill="#333333"/>
<path d="M88.3932 61.2012C90.2625 61.2012 91.7779 59.6858 91.7779 57.8165C91.7779 55.9472 90.2625 54.4319 88.3932 54.4319C86.5239 54.4319 85.0086 55.9472 85.0086 57.8165C85.0086 59.6858 86.5239 61.2012 88.3932 61.2012Z" fill="#333333"/>
<path d="M111.602 61.2012C113.472 61.2012 114.987 59.6858 114.987 57.8165C114.987 55.9472 113.472 54.4319 111.602 54.4319C109.733 54.4319 108.218 55.9472 108.218 57.8165C108.218 59.6858 109.733 61.2012 111.602 61.2012Z" fill="#333333"/>
<path d="M106.06 66.9517C106.255 66.9512 106.448 66.9943 106.625 67.0778C106.802 67.1612 106.957 67.2831 107.081 67.4343C107.205 67.5856 107.293 67.7625 107.34 67.9522C107.386 68.1419 107.39 68.3397 107.351 68.531C106.625 71.9245 103.609 74.0576 99.9989 74.0576C96.3885 74.0576 93.3727 71.9254 92.6472 68.531C92.6078 68.3396 92.6116 68.1419 92.6582 67.9522C92.7049 67.7624 92.7932 67.5855 92.9169 67.4342C93.0405 67.2829 93.1964 67.1611 93.373 67.0777C93.5497 66.9942 93.7427 66.9511 93.9381 66.9517H106.06Z" fill="white"/>
<path d="M99.9986 74.4693C96.1089 74.4693 92.9929 72.1175 92.2442 68.6168C92.1909 68.3676 92.1942 68.1096 92.2539 67.8618C92.3136 67.6141 92.4281 67.3829 92.589 67.1852C92.7512 66.9837 92.9567 66.8212 93.1901 66.7097C93.4235 66.5982 93.6791 66.5405 93.9378 66.541H106.061C106.319 66.5406 106.575 66.5983 106.808 66.7098C107.042 66.8213 107.247 66.9838 107.409 67.1852C107.57 67.3829 107.685 67.6141 107.744 67.8619C107.804 68.1096 107.807 68.3676 107.754 68.6168C107.004 72.1175 103.887 74.4693 99.9986 74.4693ZM93.9372 67.3634C93.8012 67.3633 93.667 67.3937 93.5444 67.4523C93.4218 67.5109 93.3139 67.5963 93.2287 67.7021C93.1451 67.8046 93.0856 67.9245 93.0545 68.053C93.0235 68.1816 93.0217 68.3154 93.0493 68.4447C93.7142 71.5556 96.5067 73.6457 99.998 73.6457C103.489 73.6457 106.282 71.5556 106.947 68.4447C106.975 68.3154 106.973 68.1815 106.941 68.053C106.91 67.9244 106.851 67.8045 106.767 67.7021C106.682 67.5963 106.574 67.5109 106.451 67.4523C106.329 67.3936 106.195 67.3633 106.059 67.3634H93.9372Z" fill="#333333"/>
<path d="M179.559 160.593C161.289 184.546 132.45 200.002 100.002 200.002C67.5531 200.002 38.7141 184.546 20.4444 160.593C41.3001 152.747 69.2619 147.949 100.002 147.949C130.741 147.949 158.702 152.747 179.559 160.593Z" fill="#738BBF"/>
<path d="M187.952 52.3736L136.63 52.1543C136.63 43.583 141.458 41.8955 146.59 40.5035C151.723 39.1115 154.032 29.6904 162.95 29.1543C168.217 28.8375 170.979 30.193 173.267 31.9383C173.27 31.9414 173.27 31.9444 173.273 31.9444C179.004 38.1109 183.936 44.9747 187.952 52.3736Z" fill="white"/>
<path d="M41.5569 116.061L1.31372 116.235C0.626326 112.033 0.209189 107.792 0.0648804 103.536C8.87987 102.288 7.97826 95.2819 18.5051 95.9185C26.3149 96.3876 28.3435 104.639 32.8363 105.857C37.3291 107.076 41.5569 108.558 41.5569 116.061Z" fill="white"/>
</g>
<defs>
<clipPath id="clip0_443_2030">
<rect width="200" height="200.002" fill="white"/>
</clipPath>
</defs>
</svg>
