<svg width="184" height="173" viewBox="0 0 184 173" fill="none" xmlns="http://www.w3.org/2000/svg">
<g filter="url(#filter0_d_3185_6487)">
<path d="M29.4854 22H27.8379V13.4004H24.9121V12.0059H32.4043V13.4004H29.4854V22ZM36.7383 14.2891C37.6953 14.2891 38.4176 14.501 38.9053 14.9248C39.3975 15.3486 39.6436 16.0094 39.6436 16.9072V22H38.502L38.1943 20.9268H38.1396C37.9255 21.2002 37.7044 21.4258 37.4766 21.6035C37.2487 21.7812 36.9844 21.9134 36.6836 22C36.3874 22.0911 36.0251 22.1367 35.5967 22.1367C35.1455 22.1367 34.7422 22.0547 34.3867 21.8906C34.0312 21.722 33.751 21.4668 33.5459 21.125C33.3408 20.7832 33.2383 20.3503 33.2383 19.8262C33.2383 19.0469 33.5277 18.4613 34.1064 18.0693C34.6898 17.6774 35.5693 17.4609 36.7451 17.4199L38.0576 17.3721V16.9756C38.0576 16.4515 37.9346 16.0778 37.6885 15.8545C37.4469 15.6312 37.1051 15.5195 36.6631 15.5195C36.2848 15.5195 35.918 15.5742 35.5625 15.6836C35.207 15.793 34.8607 15.9274 34.5234 16.0869L34.0039 14.9521C34.373 14.7562 34.7923 14.5967 35.2617 14.4736C35.7357 14.3506 36.2279 14.2891 36.7383 14.2891ZM38.0508 18.3838L37.0732 18.418C36.2712 18.4453 35.7083 18.582 35.3848 18.8281C35.0612 19.0742 34.8994 19.4115 34.8994 19.8398C34.8994 20.2135 35.0111 20.487 35.2344 20.6602C35.4577 20.8288 35.7516 20.9131 36.1162 20.9131C36.6722 20.9131 37.1325 20.7559 37.4971 20.4414C37.8662 20.1224 38.0508 19.6553 38.0508 19.04V18.3838ZM48.5029 14.4326V22H46.8828V15.7041H43.5059V22H41.8926V14.4326H48.5029ZM52.4199 14.4326V17.4746H55.9609V14.4326H57.5742V22H55.9609V18.7324H52.4199V22H50.8066V14.4326H52.4199ZM61.416 14.4326V18.2949C61.416 18.418 61.4115 18.5752 61.4023 18.7666C61.3978 18.9535 61.3887 19.1494 61.375 19.3545C61.3613 19.555 61.3477 19.7396 61.334 19.9082C61.3203 20.0768 61.3089 20.2021 61.2998 20.2842L65.1074 14.4326H67.0625V22H65.5244V18.1787C65.5244 17.9782 65.529 17.7458 65.5381 17.4814C65.5518 17.2171 65.5654 16.9619 65.5791 16.7158C65.5973 16.4697 65.6087 16.2829 65.6133 16.1553L61.8193 22H59.8711V14.4326H61.416ZM75.0879 15.6973H72.5996V22H71V15.6973H68.5254V14.4326H75.0879V15.6973ZM79.5654 14.2891C80.2399 14.2891 80.8187 14.4281 81.3018 14.7061C81.7848 14.984 82.1562 15.3783 82.416 15.8887C82.6758 16.3991 82.8057 17.0098 82.8057 17.7207V18.582H77.7539C77.7721 19.3158 77.9681 19.8809 78.3418 20.2773C78.7201 20.6738 79.2487 20.8721 79.9277 20.8721C80.4108 20.8721 80.8438 20.8265 81.2266 20.7354C81.6139 20.6396 82.0127 20.5007 82.4229 20.3184V21.624C82.0446 21.8018 81.6595 21.9316 81.2676 22.0137C80.8757 22.0957 80.4062 22.1367 79.8594 22.1367C79.1165 22.1367 78.4626 21.9932 77.8975 21.7061C77.3369 21.4144 76.8971 20.9814 76.5781 20.4072C76.2637 19.833 76.1064 19.1198 76.1064 18.2676C76.1064 17.4199 76.25 16.6999 76.5371 16.1074C76.8242 15.515 77.2275 15.0638 77.7471 14.7539C78.2666 14.444 78.8727 14.2891 79.5654 14.2891ZM79.5654 15.499C79.0596 15.499 78.6494 15.6631 78.335 15.9912C78.0251 16.3193 77.8428 16.8001 77.7881 17.4336H81.2334C81.2288 17.0553 81.165 16.7204 81.042 16.4287C80.9235 16.137 80.7412 15.9092 80.4951 15.7451C80.2536 15.5811 79.9437 15.499 79.5654 15.499ZM94.8643 14.4326V22H93.2441V15.7041H89.8672V22H88.2539V14.4326H94.8643ZM103.867 18.1992C103.867 18.8281 103.785 19.3864 103.621 19.874C103.457 20.3617 103.218 20.7741 102.903 21.1113C102.589 21.444 102.211 21.6992 101.769 21.877C101.326 22.0501 100.827 22.1367 100.271 22.1367C99.752 22.1367 99.2757 22.0501 98.8428 21.877C98.4098 21.6992 98.0339 21.444 97.7148 21.1113C97.4004 20.7741 97.1566 20.3617 96.9834 19.874C96.8102 19.3864 96.7236 18.8281 96.7236 18.1992C96.7236 17.3652 96.8672 16.6589 97.1543 16.0801C97.446 15.4967 97.8607 15.0524 98.3984 14.7471C98.9362 14.4417 99.5765 14.2891 100.319 14.2891C101.017 14.2891 101.632 14.4417 102.165 14.7471C102.698 15.0524 103.115 15.4967 103.416 16.0801C103.717 16.6634 103.867 17.3698 103.867 18.1992ZM98.3779 18.1992C98.3779 18.7507 98.444 19.2223 98.5762 19.6143C98.7129 20.0062 98.9225 20.307 99.2051 20.5166C99.4876 20.7217 99.8522 20.8242 100.299 20.8242C100.745 20.8242 101.11 20.7217 101.393 20.5166C101.675 20.307 101.882 20.0062 102.015 19.6143C102.147 19.2223 102.213 18.7507 102.213 18.1992C102.213 17.6478 102.147 17.1807 102.015 16.7979C101.882 16.4105 101.675 16.1165 101.393 15.916C101.11 15.7109 100.743 15.6084 100.292 15.6084C99.6266 15.6084 99.1413 15.8317 98.8359 16.2783C98.5306 16.7249 98.3779 17.3652 98.3779 18.1992ZM110.895 14.4326V18.2949C110.895 18.418 110.89 18.5752 110.881 18.7666C110.876 18.9535 110.867 19.1494 110.854 19.3545C110.84 19.555 110.826 19.7396 110.812 19.9082C110.799 20.0768 110.787 20.2021 110.778 20.2842L114.586 14.4326H116.541V22H115.003V18.1787C115.003 17.9782 115.007 17.7458 115.017 17.4814C115.03 17.2171 115.044 16.9619 115.058 16.7158C115.076 16.4697 115.087 16.2829 115.092 16.1553L111.298 22H109.35V14.4326H110.895ZM123.541 14.4326H125.312L122.181 18.0693L125.578 22H123.726L120.465 18.1582V22H118.852V14.4326H120.465V18.1035L123.541 14.4326ZM133.508 18.1992C133.508 18.8281 133.426 19.3864 133.262 19.874C133.098 20.3617 132.858 20.7741 132.544 21.1113C132.229 21.444 131.851 21.6992 131.409 21.877C130.967 22.0501 130.468 22.1367 129.912 22.1367C129.393 22.1367 128.916 22.0501 128.483 21.877C128.05 21.6992 127.674 21.444 127.355 21.1113C127.041 20.7741 126.797 20.3617 126.624 19.874C126.451 19.3864 126.364 18.8281 126.364 18.1992C126.364 17.3652 126.508 16.6589 126.795 16.0801C127.087 15.4967 127.501 15.0524 128.039 14.7471C128.577 14.4417 129.217 14.2891 129.96 14.2891C130.657 14.2891 131.272 14.4417 131.806 14.7471C132.339 15.0524 132.756 15.4967 133.057 16.0801C133.357 16.6634 133.508 17.3698 133.508 18.1992ZM128.019 18.1992C128.019 18.7507 128.085 19.2223 128.217 19.6143C128.354 20.0062 128.563 20.307 128.846 20.5166C129.128 20.7217 129.493 20.8242 129.939 20.8242C130.386 20.8242 130.751 20.7217 131.033 20.5166C131.316 20.307 131.523 20.0062 131.655 19.6143C131.787 19.2223 131.854 18.7507 131.854 18.1992C131.854 17.6478 131.787 17.1807 131.655 16.7979C131.523 16.4105 131.316 16.1165 131.033 15.916C130.751 15.7109 130.384 15.6084 129.933 15.6084C129.267 15.6084 128.782 15.8317 128.477 16.2783C128.171 16.7249 128.019 17.3652 128.019 18.1992ZM136.967 14.4326V17.4746H140.508V14.4326H142.121V22H140.508V18.7324H136.967V22H135.354V14.4326H136.967ZM149.107 14.4326H150.878L147.747 18.0693L151.145 22H149.292L146.031 18.1582V22H144.418V14.4326H146.031V18.1035L149.107 14.4326ZM155.39 14.2891C156.064 14.2891 156.643 14.4281 157.126 14.7061C157.609 14.984 157.98 15.3783 158.24 15.8887C158.5 16.3991 158.63 17.0098 158.63 17.7207V18.582H153.578C153.596 19.3158 153.792 19.8809 154.166 20.2773C154.544 20.6738 155.073 20.8721 155.752 20.8721C156.235 20.8721 156.668 20.8265 157.051 20.7354C157.438 20.6396 157.837 20.5007 158.247 20.3184V21.624C157.869 21.8018 157.484 21.9316 157.092 22.0137C156.7 22.0957 156.23 22.1367 155.684 22.1367C154.941 22.1367 154.287 21.9932 153.722 21.7061C153.161 21.4144 152.721 20.9814 152.402 20.4072C152.088 19.833 151.931 19.1198 151.931 18.2676C151.931 17.4199 152.074 16.6999 152.361 16.1074C152.648 15.515 153.052 15.0638 153.571 14.7539C154.091 14.444 154.697 14.2891 155.39 14.2891ZM155.39 15.499C154.884 15.499 154.474 15.6631 154.159 15.9912C153.849 16.3193 153.667 16.8001 153.612 17.4336H157.058C157.053 17.0553 156.989 16.7204 156.866 16.4287C156.748 16.137 156.565 15.9092 156.319 15.7451C156.078 15.5811 155.768 15.499 155.39 15.499Z" fill="white"/>
<path d="M136 50.0001L106 80.0001" stroke="white" stroke-width="3" stroke-linecap="round" stroke-linejoin="round"/>
<path d="M111 50.0001H136V75.0001" stroke="white" stroke-width="3" stroke-linecap="round" stroke-linejoin="round"/>
<path d="M35.8975 110.433V114.295C35.8975 114.418 35.8929 114.575 35.8838 114.767C35.8792 114.953 35.8701 115.149 35.8564 115.354C35.8428 115.555 35.8291 115.74 35.8154 115.908C35.8018 116.077 35.7904 116.202 35.7812 116.284L39.5889 110.433H41.5439V118H40.0059V114.179C40.0059 113.978 40.0104 113.746 40.0195 113.481C40.0332 113.217 40.0469 112.962 40.0605 112.716C40.0788 112.47 40.0902 112.283 40.0947 112.155L36.3008 118H34.3525V110.433H35.8975ZM46.2061 110.289C46.762 110.289 47.2611 110.364 47.7031 110.515C48.1497 110.66 48.5029 110.882 48.7627 111.178C49.0225 111.474 49.1523 111.843 49.1523 112.285C49.1523 112.741 49.0202 113.105 48.7559 113.379C48.4961 113.648 48.1429 113.841 47.6963 113.96V114.021C48.0107 114.099 48.2956 114.211 48.5508 114.356C48.806 114.498 49.0088 114.689 49.1592 114.931C49.3141 115.168 49.3916 115.473 49.3916 115.847C49.3916 116.271 49.2663 116.656 49.0156 117.002C48.7695 117.348 48.3913 117.624 47.8809 117.829C47.3704 118.034 46.721 118.137 45.9326 118.137C45.5544 118.137 45.1943 118.116 44.8525 118.075C44.5153 118.039 44.2077 117.986 43.9297 117.918C43.6517 117.845 43.4102 117.758 43.2051 117.658V116.277C43.5195 116.428 43.9001 116.564 44.3467 116.688C44.7933 116.806 45.2718 116.865 45.7822 116.865C46.1605 116.865 46.5023 116.831 46.8076 116.763C47.1175 116.69 47.3613 116.571 47.5391 116.407C47.7214 116.243 47.8125 116.024 47.8125 115.751C47.8125 115.5 47.7327 115.293 47.5732 115.129C47.4137 114.965 47.1745 114.844 46.8555 114.767C46.5365 114.685 46.1331 114.644 45.6455 114.644H44.7432V113.461H45.5361C46.2061 113.461 46.7301 113.388 47.1084 113.242C47.4912 113.092 47.6826 112.832 47.6826 112.463C47.6826 112.153 47.5482 111.921 47.2793 111.766C47.0104 111.611 46.598 111.533 46.042 111.533C45.6592 111.533 45.2809 111.576 44.9072 111.663C44.5335 111.745 44.1598 111.864 43.7861 112.019L43.2803 110.836C43.695 110.667 44.1393 110.535 44.6133 110.439C45.0872 110.339 45.6182 110.289 46.2061 110.289ZM59.8984 110.433V118H58.4082V113.68C58.4082 113.397 58.415 113.115 58.4287 112.832C58.4424 112.549 58.4606 112.281 58.4834 112.025H58.4424L56.1387 118H54.874L52.5908 112.019H52.543C52.5658 112.278 52.5817 112.547 52.5908 112.825C52.6045 113.103 52.6113 113.404 52.6113 113.728V118H51.1211V110.433H53.3633L55.5234 116.086L57.7178 110.433H59.8984ZM65.1895 110.289C65.8639 110.289 66.4427 110.428 66.9258 110.706C67.4089 110.984 67.7803 111.378 68.04 111.889C68.2998 112.399 68.4297 113.01 68.4297 113.721V114.582H63.3779C63.3962 115.316 63.5921 115.881 63.9658 116.277C64.3441 116.674 64.8727 116.872 65.5518 116.872C66.0348 116.872 66.4678 116.826 66.8506 116.735C67.238 116.64 67.6367 116.501 68.0469 116.318V117.624C67.6686 117.802 67.2835 117.932 66.8916 118.014C66.4997 118.096 66.0303 118.137 65.4834 118.137C64.7406 118.137 64.0866 117.993 63.5215 117.706C62.9609 117.414 62.5212 116.981 62.2021 116.407C61.8877 115.833 61.7305 115.12 61.7305 114.268C61.7305 113.42 61.874 112.7 62.1611 112.107C62.4482 111.515 62.8516 111.064 63.3711 110.754C63.8906 110.444 64.4967 110.289 65.1895 110.289ZM65.1895 111.499C64.6836 111.499 64.2734 111.663 63.959 111.991C63.6491 112.319 63.4668 112.8 63.4121 113.434H66.8574C66.8529 113.055 66.7891 112.72 66.666 112.429C66.5475 112.137 66.3652 111.909 66.1191 111.745C65.8776 111.581 65.5677 111.499 65.1895 111.499ZM71.8545 110.433V113.475H75.3955V110.433H77.0088V118H75.3955V114.732H71.8545V118H70.2412V110.433H71.8545ZM80.8506 110.433V114.295C80.8506 114.418 80.846 114.575 80.8369 114.767C80.8324 114.953 80.8232 115.149 80.8096 115.354C80.7959 115.555 80.7822 115.74 80.7686 115.908C80.7549 116.077 80.7435 116.202 80.7344 116.284L84.542 110.433H86.4971V118H84.959V114.179C84.959 113.978 84.9635 113.746 84.9727 113.481C84.9863 113.217 85 112.962 85.0137 112.716C85.0319 112.47 85.0433 112.283 85.0479 112.155L81.2539 118H79.3057V110.433H80.8506ZM94.5225 111.697H92.0342V118H90.4346V111.697H87.96V110.433H94.5225V111.697ZM97.5986 113.454H99.4785C100.189 113.454 100.777 113.536 101.242 113.7C101.712 113.86 102.062 114.101 102.295 114.425C102.527 114.748 102.644 115.154 102.644 115.642C102.644 116.12 102.534 116.537 102.315 116.893C102.097 117.243 101.755 117.517 101.29 117.713C100.83 117.904 100.228 118 99.4854 118H95.9854V110.433H97.5986V113.454ZM101.03 115.683C101.03 115.304 100.889 115.038 100.606 114.883C100.324 114.723 99.9206 114.644 99.3965 114.644H97.5986V116.817H99.4102C99.8887 116.817 100.278 116.731 100.579 116.558C100.88 116.38 101.03 116.088 101.03 115.683ZM111.106 118.137C110.391 118.137 109.771 117.998 109.247 117.72C108.723 117.442 108.32 117.016 108.037 116.441C107.755 115.867 107.613 115.138 107.613 114.254C107.613 113.333 107.768 112.581 108.078 111.998C108.388 111.415 108.816 110.984 109.363 110.706C109.915 110.428 110.546 110.289 111.257 110.289C111.708 110.289 112.116 110.335 112.48 110.426C112.85 110.512 113.162 110.619 113.417 110.747L112.938 112.032C112.66 111.918 112.376 111.823 112.084 111.745C111.792 111.668 111.512 111.629 111.243 111.629C110.801 111.629 110.432 111.727 110.136 111.923C109.844 112.119 109.625 112.41 109.479 112.798C109.338 113.185 109.268 113.666 109.268 114.24C109.268 114.796 109.34 115.266 109.486 115.648C109.632 116.027 109.849 116.314 110.136 116.51C110.423 116.701 110.776 116.797 111.195 116.797C111.61 116.797 111.981 116.747 112.31 116.646C112.638 116.546 112.948 116.416 113.239 116.257V117.651C112.952 117.815 112.645 117.936 112.316 118.014C111.988 118.096 111.585 118.137 111.106 118.137ZM120.731 111.697H118.243V118H116.644V111.697H114.169V110.433H120.731V111.697ZM125.161 110.289C126.118 110.289 126.84 110.501 127.328 110.925C127.82 111.349 128.066 112.009 128.066 112.907V118H126.925L126.617 116.927H126.562C126.348 117.2 126.127 117.426 125.899 117.604C125.672 117.781 125.407 117.913 125.106 118C124.81 118.091 124.448 118.137 124.02 118.137C123.568 118.137 123.165 118.055 122.81 117.891C122.454 117.722 122.174 117.467 121.969 117.125C121.764 116.783 121.661 116.35 121.661 115.826C121.661 115.047 121.951 114.461 122.529 114.069C123.113 113.677 123.992 113.461 125.168 113.42L126.48 113.372V112.976C126.48 112.451 126.357 112.078 126.111 111.854C125.87 111.631 125.528 111.52 125.086 111.52C124.708 111.52 124.341 111.574 123.985 111.684C123.63 111.793 123.284 111.927 122.946 112.087L122.427 110.952C122.796 110.756 123.215 110.597 123.685 110.474C124.159 110.351 124.651 110.289 125.161 110.289ZM126.474 114.384L125.496 114.418C124.694 114.445 124.131 114.582 123.808 114.828C123.484 115.074 123.322 115.411 123.322 115.84C123.322 116.214 123.434 116.487 123.657 116.66C123.881 116.829 124.174 116.913 124.539 116.913C125.095 116.913 125.555 116.756 125.92 116.441C126.289 116.122 126.474 115.655 126.474 115.04V114.384ZM136.03 111.697H133.542V118H131.942V111.697H129.468V110.433H136.03V111.697ZM136.352 110.433H138.102L139.653 114.753C139.722 114.949 139.783 115.143 139.838 115.334C139.897 115.521 139.947 115.705 139.988 115.888C140.034 116.07 140.07 116.252 140.098 116.435H140.139C140.184 116.198 140.248 115.933 140.33 115.642C140.417 115.345 140.512 115.049 140.617 114.753L142.107 110.433H143.837L140.59 119.039C140.403 119.531 140.173 119.951 139.899 120.297C139.631 120.648 139.312 120.912 138.942 121.09C138.573 121.272 138.152 121.363 137.678 121.363C137.45 121.363 137.252 121.35 137.083 121.322C136.914 121.299 136.771 121.274 136.652 121.247V119.962C136.748 119.985 136.869 120.005 137.015 120.023C137.16 120.042 137.311 120.051 137.466 120.051C137.753 120.051 138.001 119.994 138.211 119.88C138.421 119.766 138.598 119.604 138.744 119.395C138.89 119.189 139.011 118.955 139.106 118.69L139.373 117.979L136.352 110.433ZM148.034 118.137C147.319 118.137 146.699 117.998 146.175 117.72C145.651 117.442 145.247 117.016 144.965 116.441C144.682 115.867 144.541 115.138 144.541 114.254C144.541 113.333 144.696 112.581 145.006 111.998C145.316 111.415 145.744 110.984 146.291 110.706C146.842 110.428 147.474 110.289 148.185 110.289C148.636 110.289 149.044 110.335 149.408 110.426C149.777 110.512 150.09 110.619 150.345 110.747L149.866 112.032C149.588 111.918 149.303 111.823 149.012 111.745C148.72 111.668 148.44 111.629 148.171 111.629C147.729 111.629 147.36 111.727 147.063 111.923C146.772 112.119 146.553 112.41 146.407 112.798C146.266 113.185 146.195 113.666 146.195 114.24C146.195 114.796 146.268 115.266 146.414 115.648C146.56 116.027 146.776 116.314 147.063 116.51C147.351 116.701 147.704 116.797 148.123 116.797C148.538 116.797 148.909 116.747 149.237 116.646C149.565 116.546 149.875 116.416 150.167 116.257V117.651C149.88 117.815 149.572 117.936 149.244 118.014C148.916 118.096 148.513 118.137 148.034 118.137ZM14.7197 130.433V134.295C14.7197 134.418 14.7152 134.575 14.7061 134.767C14.7015 134.953 14.6924 135.149 14.6787 135.354C14.665 135.555 14.6514 135.74 14.6377 135.908C14.624 136.077 14.6126 136.202 14.6035 136.284L18.4111 130.433H20.3662V138H18.8281V134.179C18.8281 133.978 18.8327 133.746 18.8418 133.481C18.8555 133.217 18.8691 132.962 18.8828 132.716C18.901 132.47 18.9124 132.283 18.917 132.155L15.123 138H13.1748V130.433H14.7197ZM28.9043 138H27.2842V131.69H25.1855C25.0944 132.839 24.9805 133.821 24.8438 134.637C24.707 135.452 24.5361 136.118 24.3311 136.633C24.126 137.143 23.873 137.517 23.5723 137.754C23.2715 137.991 22.9092 138.109 22.4854 138.109C22.2985 138.109 22.1299 138.096 21.9795 138.068C21.8291 138.046 21.6947 138.009 21.5762 137.959V136.694C21.6536 136.722 21.738 136.744 21.8291 136.763C21.9202 136.781 22.0137 136.79 22.1094 136.79C22.278 136.79 22.4329 136.722 22.5742 136.585C22.7201 136.444 22.8545 136.223 22.9775 135.922C23.1006 135.621 23.2122 135.225 23.3125 134.732C23.4128 134.236 23.5039 133.634 23.5859 132.928C23.668 132.217 23.7409 131.385 23.8047 130.433H28.9043V138ZM32.7529 130.433V134.295C32.7529 134.418 32.7484 134.575 32.7393 134.767C32.7347 134.953 32.7256 135.149 32.7119 135.354C32.6982 135.555 32.6846 135.74 32.6709 135.908C32.6572 136.077 32.6458 136.202 32.6367 136.284L36.4443 130.433H38.3994V138H36.8613V134.179C36.8613 133.978 36.8659 133.746 36.875 133.481C36.8887 133.217 36.9023 132.962 36.916 132.716C36.9342 132.47 36.9456 132.283 36.9502 132.155L33.1562 138H31.208V130.433H32.7529ZM50.7109 132.374C50.7109 132.812 50.5765 133.169 50.3076 133.447C50.0433 133.721 49.6787 133.901 49.2139 133.987V134.042C49.7106 134.106 50.1253 134.281 50.458 134.568C50.7907 134.855 50.957 135.254 50.957 135.765C50.957 136.198 50.8477 136.583 50.6289 136.92C50.4147 137.253 50.0729 137.517 49.6035 137.713C49.1387 137.904 48.5303 138 47.7783 138H44.3467V130.433H47.7646C48.3298 130.433 48.8333 130.494 49.2754 130.617C49.722 130.74 50.0729 130.943 50.3281 131.226C50.5833 131.508 50.7109 131.891 50.7109 132.374ZM49.2822 135.71C49.2822 135.336 49.1387 135.067 48.8516 134.903C48.569 134.739 48.1543 134.657 47.6074 134.657H45.96V136.817H47.6416C48.152 136.817 48.5531 136.733 48.8447 136.564C49.1364 136.391 49.2822 136.106 49.2822 135.71ZM49.0771 132.518C49.0771 132.221 48.9655 132.003 48.7422 131.861C48.5189 131.715 48.168 131.643 47.6895 131.643H45.96V133.475H47.4707C47.9993 133.475 48.3981 133.399 48.667 133.249C48.9404 133.094 49.0771 132.85 49.0771 132.518ZM52.7686 138V130.433H54.3818V133.454H55.9062C56.6172 133.454 57.2028 133.536 57.6631 133.7C58.1234 133.86 58.4652 134.101 58.6885 134.425C58.9118 134.748 59.0234 135.154 59.0234 135.642C59.0234 136.12 58.9163 136.537 58.7021 136.893C58.488 137.243 58.153 137.517 57.6973 137.713C57.2415 137.904 56.6445 138 55.9062 138H52.7686ZM54.3818 136.817H55.7969C56.2799 136.817 56.6696 136.731 56.9658 136.558C57.2666 136.38 57.417 136.088 57.417 135.683C57.417 135.304 57.278 135.038 57 134.883C56.7266 134.723 56.3255 134.644 55.7969 134.644H54.3818V136.817ZM60.1924 138V130.433H61.8057V138H60.1924ZM63.6719 133.461C63.6719 132.363 63.7926 131.428 64.0342 130.658C64.2757 129.888 64.6562 129.271 65.1758 128.806C65.6953 128.341 66.3698 128.024 67.1992 127.855C67.737 127.732 68.2839 127.628 68.8398 127.541C69.3958 127.454 69.9518 127.37 70.5078 127.288L70.7266 128.703C70.4668 128.735 70.1888 128.774 69.8926 128.819C69.5964 128.86 69.2979 128.904 68.9971 128.949C68.7008 128.995 68.416 129.043 68.1426 129.093C67.8737 129.138 67.6322 129.184 67.418 129.229C66.9896 129.321 66.6273 129.471 66.3311 129.681C66.0394 129.886 65.8115 130.187 65.6475 130.583C65.4834 130.979 65.3854 131.508 65.3535 132.169H65.4424C65.5654 131.982 65.7363 131.795 65.9551 131.608C66.1738 131.422 66.4382 131.267 66.748 131.144C67.0625 131.016 67.4202 130.952 67.8213 130.952C68.4502 130.952 68.9834 131.084 69.4209 131.349C69.863 131.613 70.1979 131.996 70.4258 132.497C70.6582 132.998 70.7744 133.602 70.7744 134.309C70.7744 135.152 70.624 135.858 70.3232 136.428C70.027 136.993 69.6123 137.419 69.0791 137.706C68.5459 137.993 67.9238 138.137 67.2129 138.137C66.666 138.137 66.1738 138.034 65.7363 137.829C65.3034 137.624 64.932 137.323 64.6221 136.927C64.3167 136.526 64.082 136.036 63.918 135.457C63.7539 134.874 63.6719 134.208 63.6719 133.461ZM67.3223 136.817C67.6868 136.817 68.0013 136.74 68.2656 136.585C68.5345 136.43 68.7419 136.179 68.8877 135.833C69.0381 135.487 69.1133 135.029 69.1133 134.459C69.1133 133.757 68.9857 133.206 68.7305 132.805C68.4798 132.399 68.0651 132.196 67.4863 132.196C67.1309 132.196 66.805 132.276 66.5088 132.436C66.2126 132.595 65.9619 132.782 65.7568 132.996C65.5518 133.206 65.4059 133.39 65.3193 133.55C65.3193 133.965 65.349 134.366 65.4082 134.753C65.472 135.14 65.5768 135.491 65.7227 135.806C65.873 136.116 66.0781 136.362 66.3379 136.544C66.5977 136.726 66.9258 136.817 67.3223 136.817ZM76.5029 130.289C77.4007 130.289 78.1208 130.617 78.6631 131.273C79.21 131.93 79.4834 132.905 79.4834 134.199C79.4834 135.056 79.3558 135.778 79.1006 136.366C78.8499 136.95 78.4967 137.392 78.041 137.692C77.5898 137.989 77.0635 138.137 76.4619 138.137C76.0791 138.137 75.7464 138.087 75.4639 137.986C75.1813 137.886 74.9398 137.756 74.7393 137.597C74.5387 137.433 74.3701 137.255 74.2334 137.063H74.1377C74.1605 137.246 74.181 137.449 74.1992 137.672C74.222 137.891 74.2334 138.091 74.2334 138.273V141.356H72.6201V130.433H73.9326L74.1582 131.479H74.2334C74.3747 131.264 74.5456 131.066 74.7461 130.884C74.9512 130.701 75.1973 130.558 75.4844 130.453C75.776 130.344 76.1156 130.289 76.5029 130.289ZM76.0723 131.602C75.6302 131.602 75.2747 131.69 75.0059 131.868C74.7415 132.041 74.5479 132.303 74.4248 132.654C74.3063 133.005 74.2425 133.445 74.2334 133.974V134.199C74.2334 134.76 74.2904 135.236 74.4043 135.628C74.5228 136.015 74.7165 136.312 74.9854 136.517C75.2588 136.717 75.6279 136.817 76.0928 136.817C76.4847 136.817 76.8083 136.71 77.0635 136.496C77.3232 136.282 77.5169 135.977 77.6445 135.58C77.7721 135.184 77.8359 134.716 77.8359 134.179C77.8359 133.363 77.6901 132.729 77.3984 132.278C77.1113 131.827 76.6693 131.602 76.0723 131.602ZM84.3096 130.289C85.2666 130.289 85.9889 130.501 86.4766 130.925C86.9688 131.349 87.2148 132.009 87.2148 132.907V138H86.0732L85.7656 136.927H85.7109C85.4967 137.2 85.2757 137.426 85.0479 137.604C84.82 137.781 84.5557 137.913 84.2549 138C83.9587 138.091 83.5964 138.137 83.168 138.137C82.7168 138.137 82.3135 138.055 81.958 137.891C81.6025 137.722 81.3223 137.467 81.1172 137.125C80.9121 136.783 80.8096 136.35 80.8096 135.826C80.8096 135.047 81.099 134.461 81.6777 134.069C82.2611 133.677 83.1406 133.461 84.3164 133.42L85.6289 133.372V132.976C85.6289 132.451 85.5059 132.078 85.2598 131.854C85.0182 131.631 84.6764 131.52 84.2344 131.52C83.8561 131.52 83.4893 131.574 83.1338 131.684C82.7783 131.793 82.432 131.927 82.0947 132.087L81.5752 130.952C81.9443 130.756 82.3636 130.597 82.833 130.474C83.307 130.351 83.7992 130.289 84.3096 130.289ZM85.6221 134.384L84.6445 134.418C83.8424 134.445 83.2796 134.582 82.9561 134.828C82.6325 135.074 82.4707 135.411 82.4707 135.84C82.4707 136.214 82.5824 136.487 82.8057 136.66C83.029 136.829 83.3229 136.913 83.6875 136.913C84.2435 136.913 84.7038 136.756 85.0684 136.441C85.4375 136.122 85.6221 135.655 85.6221 135.04V134.384ZM95.1787 131.697H92.6904V138H91.0908V131.697H88.6162V130.433H95.1787V131.697ZM98.2549 133.454H100.135C100.846 133.454 101.434 133.536 101.898 133.7C102.368 133.86 102.719 134.101 102.951 134.425C103.184 134.748 103.3 135.154 103.3 135.642C103.3 136.12 103.19 136.537 102.972 136.893C102.753 137.243 102.411 137.517 101.946 137.713C101.486 137.904 100.884 138 100.142 138H96.6416V130.433H98.2549V133.454ZM101.687 135.683C101.687 135.304 101.545 135.038 101.263 134.883C100.98 134.723 100.577 134.644 100.053 134.644H98.2549V136.817H100.066C100.545 136.817 100.935 136.731 101.235 136.558C101.536 136.38 101.687 136.088 101.687 135.683ZM113.684 127.363V130.357C114.495 130.426 115.19 130.626 115.769 130.959C116.347 131.287 116.792 131.727 117.102 132.278C117.411 132.83 117.566 133.475 117.566 134.213C117.566 134.942 117.416 135.585 117.115 136.141C116.819 136.697 116.382 137.141 115.803 137.474C115.229 137.806 114.522 138.009 113.684 138.082V141.363H112.159V138.082C111.348 138.014 110.653 137.813 110.074 137.48C109.495 137.148 109.049 136.703 108.734 136.147C108.42 135.591 108.263 134.947 108.263 134.213C108.263 133.47 108.411 132.821 108.707 132.265C109.003 131.709 109.441 131.267 110.02 130.938C110.598 130.61 111.318 130.417 112.18 130.357V127.363H113.684ZM112.18 131.608C111.688 131.663 111.273 131.804 110.936 132.032C110.603 132.256 110.352 132.552 110.184 132.921C110.015 133.29 109.931 133.721 109.931 134.213C109.931 134.71 110.013 135.145 110.177 135.519C110.345 135.888 110.596 136.184 110.929 136.407C111.266 136.631 111.683 136.77 112.18 136.824V131.608ZM113.684 131.629V136.824C114.176 136.77 114.586 136.631 114.914 136.407C115.247 136.179 115.495 135.881 115.659 135.512C115.828 135.138 115.912 134.705 115.912 134.213C115.912 133.475 115.721 132.88 115.338 132.429C114.96 131.978 114.408 131.711 113.684 131.629ZM120.964 130.433V134.295C120.964 134.418 120.959 134.575 120.95 134.767C120.946 134.953 120.937 135.149 120.923 135.354C120.909 135.555 120.896 135.74 120.882 135.908C120.868 136.077 120.857 136.202 120.848 136.284L124.655 130.433H126.61V138H125.072V134.179C125.072 133.978 125.077 133.746 125.086 133.481C125.1 133.217 125.113 132.962 125.127 132.716C125.145 132.47 125.157 132.283 125.161 132.155L121.367 138H119.419V130.433H120.964ZM135.148 138H133.528V131.69H131.43C131.339 132.839 131.225 133.821 131.088 134.637C130.951 135.452 130.78 136.118 130.575 136.633C130.37 137.143 130.117 137.517 129.816 137.754C129.516 137.991 129.153 138.109 128.729 138.109C128.543 138.109 128.374 138.096 128.224 138.068C128.073 138.046 127.939 138.009 127.82 137.959V136.694C127.898 136.722 127.982 136.744 128.073 136.763C128.164 136.781 128.258 136.79 128.354 136.79C128.522 136.79 128.677 136.722 128.818 136.585C128.964 136.444 129.099 136.223 129.222 135.922C129.345 135.621 129.456 135.225 129.557 134.732C129.657 134.236 129.748 133.634 129.83 132.928C129.912 132.217 129.985 131.385 130.049 130.433H135.148V138ZM139.065 133.454H140.945C141.656 133.454 142.244 133.536 142.709 133.7C143.178 133.86 143.529 134.101 143.762 134.425C143.994 134.748 144.11 135.154 144.11 135.642C144.11 136.12 144.001 136.537 143.782 136.893C143.563 137.243 143.222 137.517 142.757 137.713C142.297 137.904 141.695 138 140.952 138H137.452V130.433H139.065V133.454ZM142.497 135.683C142.497 135.304 142.356 135.038 142.073 134.883C141.791 134.723 141.387 134.644 140.863 134.644H139.065V136.817H140.877C141.355 136.817 141.745 136.731 142.046 136.558C142.347 136.38 142.497 136.088 142.497 135.683ZM151.603 131.697H149.114V138H147.515V131.697H145.04V130.433H151.603V131.697ZM156.948 130.289C157.846 130.289 158.566 130.617 159.108 131.273C159.655 131.93 159.929 132.905 159.929 134.199C159.929 135.056 159.801 135.778 159.546 136.366C159.295 136.95 158.942 137.392 158.486 137.692C158.035 137.989 157.509 138.137 156.907 138.137C156.524 138.137 156.192 138.087 155.909 137.986C155.627 137.886 155.385 137.756 155.185 137.597C154.984 137.433 154.815 137.255 154.679 137.063H154.583C154.606 137.246 154.626 137.449 154.645 137.672C154.667 137.891 154.679 138.091 154.679 138.273V141.356H153.065V130.433H154.378L154.604 131.479H154.679C154.82 131.264 154.991 131.066 155.191 130.884C155.396 130.701 155.643 130.558 155.93 130.453C156.221 130.344 156.561 130.289 156.948 130.289ZM156.518 131.602C156.076 131.602 155.72 131.69 155.451 131.868C155.187 132.041 154.993 132.303 154.87 132.654C154.752 133.005 154.688 133.445 154.679 133.974V134.199C154.679 134.76 154.736 135.236 154.85 135.628C154.968 136.015 155.162 136.312 155.431 136.517C155.704 136.717 156.073 136.817 156.538 136.817C156.93 136.817 157.254 136.71 157.509 136.496C157.769 136.282 157.962 135.977 158.09 135.58C158.217 135.184 158.281 134.716 158.281 134.179C158.281 133.363 158.135 132.729 157.844 132.278C157.557 131.827 157.115 131.602 156.518 131.602ZM161.788 138V130.433H163.401V133.454H164.926C165.637 133.454 166.222 133.536 166.683 133.7C167.143 133.86 167.485 134.101 167.708 134.425C167.931 134.748 168.043 135.154 168.043 135.642C168.043 136.12 167.936 136.537 167.722 136.893C167.507 137.243 167.173 137.517 166.717 137.713C166.261 137.904 165.664 138 164.926 138H161.788ZM163.401 136.817H164.816C165.299 136.817 165.689 136.731 165.985 136.558C166.286 136.38 166.437 136.088 166.437 135.683C166.437 135.304 166.298 135.038 166.02 134.883C165.746 134.723 165.345 134.644 164.816 134.644H163.401V136.817ZM169.212 138V130.433H170.825V138H169.212ZM56.1592 150.433V158H54.6689V153.68C54.6689 153.397 54.6758 153.115 54.6895 152.832C54.7031 152.549 54.7214 152.281 54.7441 152.025H54.7031L52.3994 158H51.1348L48.8516 152.019H48.8037C48.8265 152.278 48.8424 152.547 48.8516 152.825C48.8652 153.103 48.8721 153.404 48.8721 153.728V158H47.3818V150.433H49.624L51.7842 156.086L53.9785 150.433H56.1592ZM65.1348 154.199C65.1348 154.828 65.0527 155.386 64.8887 155.874C64.7246 156.362 64.4854 156.774 64.1709 157.111C63.8564 157.444 63.4782 157.699 63.0361 157.877C62.5941 158.05 62.0951 158.137 61.5391 158.137C61.0195 158.137 60.5433 158.05 60.1104 157.877C59.6774 157.699 59.3014 157.444 58.9824 157.111C58.668 156.774 58.4242 156.362 58.251 155.874C58.0778 155.386 57.9912 154.828 57.9912 154.199C57.9912 153.365 58.1348 152.659 58.4219 152.08C58.7135 151.497 59.1283 151.052 59.666 150.747C60.2038 150.442 60.8441 150.289 61.5869 150.289C62.2842 150.289 62.8994 150.442 63.4326 150.747C63.9658 151.052 64.3828 151.497 64.6836 152.08C64.9844 152.663 65.1348 153.37 65.1348 154.199ZM59.6455 154.199C59.6455 154.751 59.7116 155.222 59.8438 155.614C59.9805 156.006 60.1901 156.307 60.4727 156.517C60.7552 156.722 61.1198 156.824 61.5664 156.824C62.013 156.824 62.3776 156.722 62.6602 156.517C62.9427 156.307 63.1501 156.006 63.2822 155.614C63.4144 155.222 63.4805 154.751 63.4805 154.199C63.4805 153.648 63.4144 153.181 63.2822 152.798C63.1501 152.41 62.9427 152.117 62.6602 151.916C62.3776 151.711 62.0107 151.608 61.5596 151.608C60.8942 151.608 60.4089 151.832 60.1035 152.278C59.7982 152.725 59.6455 153.365 59.6455 154.199ZM76.7969 150.433L73.8301 154.083L77.0635 158H75.2998L72.2031 154.158V158H70.7061V154.158L67.6094 158H65.8457L69.0791 154.083L66.1123 150.433H67.8145L70.7061 154.104V150.433H72.2031V154.104L75.1016 150.433H76.7969ZM79.8594 150.433V153.475H83.4004V150.433H85.0137V158H83.4004V154.732H79.8594V158H78.2461V150.433H79.8594ZM94.0098 154.199C94.0098 154.828 93.9277 155.386 93.7637 155.874C93.5996 156.362 93.3604 156.774 93.0459 157.111C92.7314 157.444 92.3532 157.699 91.9111 157.877C91.4691 158.05 90.9701 158.137 90.4141 158.137C89.8945 158.137 89.4183 158.05 88.9854 157.877C88.5524 157.699 88.1764 157.444 87.8574 157.111C87.543 156.774 87.2992 156.362 87.126 155.874C86.9528 155.386 86.8662 154.828 86.8662 154.199C86.8662 153.365 87.0098 152.659 87.2969 152.08C87.5885 151.497 88.0033 151.052 88.541 150.747C89.0788 150.442 89.7191 150.289 90.4619 150.289C91.1592 150.289 91.7744 150.442 92.3076 150.747C92.8408 151.052 93.2578 151.497 93.5586 152.08C93.8594 152.663 94.0098 153.37 94.0098 154.199ZM88.5205 154.199C88.5205 154.751 88.5866 155.222 88.7188 155.614C88.8555 156.006 89.0651 156.307 89.3477 156.517C89.6302 156.722 89.9948 156.824 90.4414 156.824C90.888 156.824 91.2526 156.722 91.5352 156.517C91.8177 156.307 92.0251 156.006 92.1572 155.614C92.2894 155.222 92.3555 154.751 92.3555 154.199C92.3555 153.648 92.2894 153.181 92.1572 152.798C92.0251 152.41 91.8177 152.117 91.5352 151.916C91.2526 151.711 90.8857 151.608 90.4346 151.608C89.7692 151.608 89.2839 151.832 88.9785 152.278C88.6732 152.725 88.5205 153.365 88.5205 154.199ZM101.844 150.289C102.4 150.289 102.899 150.364 103.341 150.515C103.787 150.66 104.141 150.882 104.4 151.178C104.66 151.474 104.79 151.843 104.79 152.285C104.79 152.741 104.658 153.105 104.394 153.379C104.134 153.648 103.781 153.841 103.334 153.96V154.021C103.648 154.099 103.933 154.211 104.188 154.356C104.444 154.498 104.646 154.689 104.797 154.931C104.952 155.168 105.029 155.473 105.029 155.847C105.029 156.271 104.904 156.656 104.653 157.002C104.407 157.348 104.029 157.624 103.519 157.829C103.008 158.034 102.359 158.137 101.57 158.137C101.192 158.137 100.832 158.116 100.49 158.075C100.153 158.039 99.8454 157.986 99.5674 157.918C99.2894 157.845 99.0479 157.758 98.8428 157.658V156.277C99.1572 156.428 99.5378 156.564 99.9844 156.688C100.431 156.806 100.91 156.865 101.42 156.865C101.798 156.865 102.14 156.831 102.445 156.763C102.755 156.69 102.999 156.571 103.177 156.407C103.359 156.243 103.45 156.024 103.45 155.751C103.45 155.5 103.37 155.293 103.211 155.129C103.051 154.965 102.812 154.844 102.493 154.767C102.174 154.685 101.771 154.644 101.283 154.644H100.381V153.461H101.174C101.844 153.461 102.368 153.388 102.746 153.242C103.129 153.092 103.32 152.832 103.32 152.463C103.32 152.153 103.186 151.921 102.917 151.766C102.648 151.611 102.236 151.533 101.68 151.533C101.297 151.533 100.919 151.576 100.545 151.663C100.171 151.745 99.7975 151.864 99.4238 152.019L98.918 150.836C99.3327 150.667 99.777 150.535 100.251 150.439C100.725 150.339 101.256 150.289 101.844 150.289ZM112.945 150.433V156.756H114.039V160.666H112.556V158H107.333V160.666H105.85V156.756H106.465C106.848 156.2 107.167 155.58 107.422 154.896C107.682 154.213 107.882 153.493 108.023 152.736C108.169 151.975 108.26 151.207 108.297 150.433H112.945ZM111.353 151.663H109.678C109.623 152.278 109.53 152.891 109.397 153.502C109.265 154.108 109.094 154.689 108.885 155.245C108.68 155.797 108.434 156.3 108.146 156.756H111.353V151.663ZM118.462 150.289C119.136 150.289 119.715 150.428 120.198 150.706C120.681 150.984 121.053 151.378 121.312 151.889C121.572 152.399 121.702 153.01 121.702 153.721V154.582H116.65C116.669 155.316 116.865 155.881 117.238 156.277C117.617 156.674 118.145 156.872 118.824 156.872C119.307 156.872 119.74 156.826 120.123 156.735C120.51 156.64 120.909 156.501 121.319 156.318V157.624C120.941 157.802 120.556 157.932 120.164 158.014C119.772 158.096 119.303 158.137 118.756 158.137C118.013 158.137 117.359 157.993 116.794 157.706C116.233 157.414 115.794 156.981 115.475 156.407C115.16 155.833 115.003 155.12 115.003 154.268C115.003 153.42 115.146 152.7 115.434 152.107C115.721 151.515 116.124 151.064 116.644 150.754C117.163 150.444 117.769 150.289 118.462 150.289ZM118.462 151.499C117.956 151.499 117.546 151.663 117.231 151.991C116.922 152.319 116.739 152.8 116.685 153.434H120.13C120.125 153.055 120.062 152.72 119.938 152.429C119.82 152.137 119.638 151.909 119.392 151.745C119.15 151.581 118.84 151.499 118.462 151.499ZM126.562 158.137C125.847 158.137 125.227 157.998 124.703 157.72C124.179 157.442 123.776 157.016 123.493 156.441C123.211 155.867 123.069 155.138 123.069 154.254C123.069 153.333 123.224 152.581 123.534 151.998C123.844 151.415 124.272 150.984 124.819 150.706C125.371 150.428 126.002 150.289 126.713 150.289C127.164 150.289 127.572 150.335 127.937 150.426C128.306 150.512 128.618 150.619 128.873 150.747L128.395 152.032C128.117 151.918 127.832 151.823 127.54 151.745C127.248 151.668 126.968 151.629 126.699 151.629C126.257 151.629 125.888 151.727 125.592 151.923C125.3 152.119 125.081 152.41 124.936 152.798C124.794 153.185 124.724 153.666 124.724 154.24C124.724 154.796 124.797 155.266 124.942 155.648C125.088 156.027 125.305 156.314 125.592 156.51C125.879 156.701 126.232 156.797 126.651 156.797C127.066 156.797 127.438 156.747 127.766 156.646C128.094 156.546 128.404 156.416 128.695 156.257V157.651C128.408 157.815 128.101 157.936 127.772 158.014C127.444 158.096 127.041 158.137 126.562 158.137ZM132.086 153.454H133.966C134.677 153.454 135.265 153.536 135.729 153.7C136.199 153.86 136.55 154.101 136.782 154.425C137.015 154.748 137.131 155.154 137.131 155.642C137.131 156.12 137.021 156.537 136.803 156.893C136.584 157.243 136.242 157.517 135.777 157.713C135.317 157.904 134.715 158 133.973 158H130.473V150.433H132.086V153.454ZM135.518 155.683C135.518 155.304 135.376 155.038 135.094 154.883C134.811 154.723 134.408 154.644 133.884 154.644H132.086V156.817H133.897C134.376 156.817 134.766 156.731 135.066 156.558C135.367 156.38 135.518 156.088 135.518 155.683Z" fill="white"/>
</g>
<defs>
<filter id="filter0_d_3185_6487" x="0" y="-5" width="184" height="180" filterUnits="userSpaceOnUse" color-interpolation-filters="sRGB">
<feFlood flood-opacity="0" result="BackgroundImageFix"/>
<feColorMatrix in="SourceAlpha" type="matrix" values="0 0 0 0 0 0 0 0 0 0 0 0 0 0 0 0 0 0 127 0" result="hardAlpha"/>
<feOffset/>
<feGaussianBlur stdDeviation="6"/>
<feColorMatrix type="matrix" values="0 0 0 0 0 0 0 0 0 0 0 0 0 0 0 0 0 0 0.25 0"/>
<feBlend mode="normal" in2="BackgroundImageFix" result="effect1_dropShadow_3185_6487"/>
<feBlend mode="normal" in="SourceGraphic" in2="effect1_dropShadow_3185_6487" result="shape"/>
</filter>
</defs>
</svg>
