<svg width="36" height="36" viewBox="0 0 36 36" fill="none" xmlns="http://www.w3.org/2000/svg">
<path d="M19 18H28M28 18L24.667 14M28 18L24.667 22" stroke="#333333" stroke-width="1.5" stroke-linecap="round" stroke-linejoin="round"/>
<path d="M20 13V11.174C20 10.8973 19.9426 10.6237 19.8314 10.3704C19.7203 10.1171 19.5578 9.88961 19.3542 9.70231C19.1507 9.515 18.9104 9.37196 18.6488 9.28222C18.3871 9.19249 18.1097 9.15801 17.834 9.18097L9.834 9.84697C9.33405 9.88861 8.86801 10.1166 8.5283 10.4858C8.18859 10.8549 8.00002 11.3383 8 11.84V24.16C8.00002 24.6617 8.18859 25.145 8.5283 25.5142C8.86801 25.8833 9.33405 26.1113 9.834 26.153L17.834 26.82C18.1098 26.8429 18.3873 26.8084 18.649 26.7186C18.9107 26.6288 19.151 26.4857 19.3546 26.2983C19.5582 26.1109 19.7206 25.8833 19.8317 25.6298C19.9428 25.3764 20.0001 25.1027 20 24.826V23" stroke="#333333" stroke-width="1.5" stroke-linecap="round" stroke-linejoin="round"/>
</svg>
