<svg width="24" height="24" viewBox="0 0 24 24" fill="none" xmlns="http://www.w3.org/2000/svg">
<path d="M10.7796 13.2204C11.1345 13.558 11.1345 14.1119 10.7796 14.4495C10.442 14.7871 9.88806 14.7871 9.5505 14.4495C8.73981 13.6376 8.28447 12.5371 8.28447 11.3898C8.28447 10.2424 8.73981 9.14198 9.5505 8.33007L12.6145 5.26603C13.4264 4.45534 14.5269 4 15.6743 4C16.8216 4 17.9221 4.45534 18.734 5.26603C19.5447 6.07794 20 7.17839 20 8.32575C20 9.4731 19.5447 10.5736 18.734 11.3855L17.4443 12.6751C17.453 11.9654 17.3404 11.2556 17.0981 10.5805L17.5049 10.165C17.7475 9.92501 17.9402 9.63924 18.0716 9.32427C18.2031 9.0093 18.2708 8.67138 18.2708 8.33007C18.2708 7.98877 18.2031 7.65085 18.0716 7.33588C17.9402 7.02091 17.7475 6.73514 17.5049 6.49511C17.2649 6.25246 16.9791 6.05983 16.6641 5.92837C16.3492 5.7969 16.0112 5.72921 15.6699 5.72921C15.3286 5.72921 14.9907 5.7969 14.6757 5.92837C14.3608 6.05983 14.075 6.25246 13.835 6.49511L10.7796 9.5505C10.5369 9.79052 10.3443 10.0763 10.2128 10.3913C10.0814 10.7062 10.0137 11.0442 10.0137 11.3855C10.0137 11.7268 10.0814 12.0647 10.2128 12.3797C10.3443 12.6946 10.5369 12.9804 10.7796 13.2204ZM13.2204 9.5505C13.558 9.21293 14.1119 9.21293 14.4495 9.5505C15.2602 10.3624 15.7155 11.4629 15.7155 12.6102C15.7155 13.7576 15.2602 14.858 14.4495 15.6699L11.3855 18.734C10.5736 19.5447 9.4731 20 8.32575 20C7.17839 20 6.07794 19.5447 5.26603 18.734C4.45534 17.9221 4 16.8216 4 15.6743C4 14.5269 4.45534 13.4264 5.26603 12.6145L6.5557 11.3249C6.54704 12.0346 6.65956 12.7444 6.90192 13.4282L6.49511 13.835C6.25246 14.075 6.05983 14.3608 5.92837 14.6757C5.7969 14.9907 5.72921 15.3286 5.72921 15.6699C5.72921 16.0112 5.7969 16.3492 5.92837 16.6641C6.05983 16.9791 6.25246 17.2649 6.49511 17.5049C6.73514 17.7475 7.02091 17.9402 7.33588 18.0716C7.65085 18.2031 7.98877 18.2708 8.33007 18.2708C8.67138 18.2708 9.0093 18.2031 9.32427 18.0716C9.63924 17.9402 9.92501 17.7475 10.165 17.5049L13.2204 14.4495C13.4631 14.2095 13.6557 13.9237 13.7872 13.6087C13.9186 13.2938 13.9863 12.9558 13.9863 12.6145C13.9863 12.2732 13.9186 11.9353 13.7872 11.6203C13.6557 11.3054 13.4631 11.0196 13.2204 10.7796C13.1364 10.7008 13.0694 10.6056 13.0235 10.4999C12.9777 10.3942 12.9541 10.2802 12.9541 10.165C12.9541 10.0498 12.9777 9.93586 13.0235 9.83015C13.0694 9.72445 13.1364 9.62927 13.2204 9.5505Z" fill="#333333"/>
</svg>
