<svg width="24" height="24" viewBox="0 0 24 24" fill="none" xmlns="http://www.w3.org/2000/svg">
<path d="M8.66661 6.81482C8.66661 5.93076 9.0178 5.08291 9.64292 4.45779C10.268 3.83267 11.1159 3.48148 11.9999 3.48148C12.884 3.48148 13.7318 3.83267 14.357 4.45779C14.9821 5.08291 15.3333 5.93076 15.3333 6.81482C15.3333 7.69887 14.9821 8.54672 14.357 9.17184C13.7318 9.79696 12.884 10.1481 11.9999 10.1481C11.1159 10.1481 10.268 9.79696 9.64292 9.17184C9.0178 8.54672 8.66661 7.69887 8.66661 6.81482ZM11.9999 2C10.723 2 9.49831 2.50727 8.59536 3.41023C7.6924 4.31318 7.18513 5.53785 7.18513 6.81482C7.18513 8.09178 7.6924 9.31645 8.59536 10.2194C9.49831 11.1224 10.723 11.6296 11.9999 11.6296C13.2769 11.6296 14.5016 11.1224 15.4045 10.2194C16.3075 9.31645 16.8148 8.09178 16.8148 6.81482C16.8148 5.53785 16.3075 4.31318 15.4045 3.41023C14.5016 2.50727 13.2769 2 11.9999 2ZM4.22217 16.0741C4.22217 15.2882 4.53434 14.5346 5.09 13.9789C5.64566 13.4233 6.3993 13.1111 7.18513 13.1111H16.8148C17.6006 13.1111 18.3542 13.4233 18.9099 13.9789C19.4656 14.5346 19.7777 15.2882 19.7777 16.0741V16.1985C19.7777 16.2133 19.7777 16.2326 19.7748 16.2578C19.7567 16.5511 19.7146 16.8425 19.6488 17.1289C19.5229 17.6741 19.2725 18.403 18.7674 19.1348C17.7288 20.637 15.7229 22 11.9999 22C8.27698 22 6.27106 20.637 5.23254 19.1348C4.68561 18.3382 4.34459 17.4184 4.23995 16.4578C4.23109 16.3716 4.22516 16.2851 4.22217 16.1985V16.0741ZM5.70365 16.163V16.1896L5.71402 16.3126C5.79429 17.0228 6.04763 17.7024 6.4518 18.2919C7.17328 19.3348 8.68587 20.5185 11.9999 20.5185C15.314 20.5185 16.8266 19.3348 17.5481 18.2919C17.9524 17.7025 18.2057 17.0228 18.2859 16.3126C18.2907 16.2718 18.2937 16.2307 18.2948 16.1896L18.2962 16.1644V16.0741C18.2962 15.6812 18.1402 15.3043 17.8623 15.0265C17.5845 14.7487 17.2077 14.5926 16.8148 14.5926H7.18513C6.79222 14.5926 6.4154 14.7487 6.13757 15.0265C5.85973 15.3043 5.70365 15.6812 5.70365 16.0741V16.163Z" fill="#333333"/>
<path d="M5.70365 16.163V16.1896L5.71402 16.3126C5.79429 17.0228 6.04763 17.7024 6.4518 18.2919C7.17328 19.3348 8.68587 20.5185 11.9999 20.5185C15.314 20.5185 16.8266 19.3348 17.5481 18.2919C17.9524 17.7025 18.2057 17.0228 18.2859 16.3126C18.2907 16.2718 18.2937 16.2307 18.2948 16.1896L18.2962 16.1644V16.0741C18.2962 15.6812 18.1402 15.3043 17.8623 15.0265C17.5845 14.7487 17.2077 14.5926 16.8148 14.5926H7.18513C6.79222 14.5926 6.4154 14.7487 6.13757 15.0265C5.85973 15.3043 5.70365 15.6812 5.70365 16.0741V16.163Z" fill="#333333"/>
<path d="M8.66661 6.81482C8.66661 5.93076 9.0178 5.08291 9.64292 4.45779C10.268 3.83267 11.1159 3.48148 11.9999 3.48148C12.884 3.48148 13.7318 3.83267 14.357 4.45779C14.9821 5.08291 15.3333 5.93076 15.3333 6.81482C15.3333 7.69887 14.9821 8.54672 14.357 9.17184C13.7318 9.79696 12.884 10.1481 11.9999 10.1481C11.1159 10.1481 10.268 9.79696 9.64292 9.17184C9.0178 8.54672 8.66661 7.69887 8.66661 6.81482Z" fill="#333333"/>
</svg>
