<svg width="26" height="27" viewBox="0 0 26 27" fill="none" xmlns="http://www.w3.org/2000/svg">
<path d="M1.82 2.26116C3.44382e-07 4.0985 0 7.0365 0 12.9212V13.9612C0 19.8372 3.44382e-07 22.7752 1.82 24.6212C3.65733 26.4412 6.59533 26.4412 12.48 26.4412H13.52C19.396 26.4412 22.334 26.4412 24.18 24.6212C26 22.7838 26 19.8458 26 13.9612V12.9212C26 7.04516 26 4.10716 24.18 2.26116C22.3427 0.441162 19.4047 0.441162 13.52 0.441162H12.48C6.604 0.441162 3.666 0.441162 1.82 2.26116ZM4.38533 8.35383H7.36667C7.462 13.3112 9.646 15.4085 11.3793 15.8418V8.35383H14.1787V12.6265C15.886 12.4445 17.6887 10.4945 18.2953 8.34516H21.086C20.8585 9.45779 20.404 10.5115 19.7509 11.4406C19.0977 12.3696 18.26 13.1539 17.29 13.7445C18.3725 14.2831 19.3285 15.0451 20.0949 15.9803C20.8613 16.9155 21.4206 18.0026 21.736 19.1698H18.6593C18.0007 17.1158 16.354 15.5212 14.1787 15.3045V19.1698H13.832C7.904 19.1698 4.524 15.1138 4.38533 8.35383Z" fill="#0077FF"/>
</svg>
