<svg width="36" height="36" viewBox="0 0 36 36" fill="none" xmlns="http://www.w3.org/2000/svg">
<path d="M8.99997 11H13M27 11H17M8.99997 18H21M27 18H25M8.99997 25H11M27 25H15" stroke="#333333" stroke-width="1.5" stroke-linecap="round" stroke-linejoin="round"/>
<path d="M15 13C16.1045 13 17 12.1046 17 11C17 9.89543 16.1045 9 15 9C13.8954 9 13 9.89543 13 11C13 12.1046 13.8954 13 15 13Z" stroke="#333333" stroke-width="1.5" stroke-linecap="round" stroke-linejoin="round"/>
<path d="M23 20C24.1045 20 25 19.1046 25 18C25 16.8954 24.1045 16 23 16C21.8954 16 21 16.8954 21 18C21 19.1046 21.8954 20 23 20Z" stroke="#333333" stroke-width="1.5" stroke-linecap="round" stroke-linejoin="round"/>
<path d="M13 27C14.1045 27 15 26.1046 15 25C15 23.8954 14.1045 23 13 23C11.8954 23 11 23.8954 11 25C11 26.1046 11.8954 27 13 27Z" stroke="#333333" stroke-width="1.5" stroke-linecap="round" stroke-linejoin="round"/>
</svg>
