<svg width="20" height="20" viewBox="0 0 20 20" fill="none" xmlns="http://www.w3.org/2000/svg">
<g clip-path="url(#clip0_4810_3104)">
<path d="M13.9328 16.46L13.3994 12.19C13.3239 11.5852 13.0299 11.0288 12.5729 10.6255C12.1159 10.2222 11.5273 9.99977 10.9178 10H9.08111C8.47188 10.0002 7.88367 10.2228 7.42701 10.6261C6.97035 11.0293 6.67665 11.5855 6.60111 12.19L6.06694 16.46C6.03762 16.6946 6.05855 16.9327 6.12834 17.1586C6.19812 17.3845 6.31517 17.593 6.4717 17.7701C6.62822 17.9473 6.82066 18.0892 7.03621 18.1863C7.25177 18.2834 7.48552 18.3335 7.72194 18.3333H12.2786C12.515 18.3334 12.7486 18.2832 12.9641 18.186C13.1795 18.0889 13.3719 17.947 13.5283 17.7698C13.6847 17.5927 13.8017 17.3843 13.8714 17.1584C13.9412 16.9326 13.9621 16.6945 13.9328 16.46Z" stroke="white" stroke-width="1.5" stroke-linecap="round" stroke-linejoin="round"/>
<path d="M10.0002 6.66663C11.3809 6.66663 12.5002 5.54734 12.5002 4.16663C12.5002 2.78591 11.3809 1.66663 10.0002 1.66663C8.6195 1.66663 7.50021 2.78591 7.50021 4.16663C7.50021 5.54734 8.6195 6.66663 10.0002 6.66663Z" stroke="white" stroke-width="1.5" stroke-linecap="round" stroke-linejoin="round"/>
<path d="M3.33354 9.16671C4.25401 9.16671 5.0002 8.42052 5.0002 7.50004C5.0002 6.57957 4.25401 5.83337 3.33354 5.83337C2.41306 5.83337 1.66687 6.57957 1.66687 7.50004C1.66687 8.42052 2.41306 9.16671 3.33354 9.16671Z" stroke="white" stroke-width="1.5" stroke-linecap="round" stroke-linejoin="round"/>
<path d="M16.6669 9.16671C17.5874 9.16671 18.3335 8.42052 18.3335 7.50004C18.3335 6.57957 17.5874 5.83337 16.6669 5.83337C15.7464 5.83337 15.0002 6.57957 15.0002 7.50004C15.0002 8.42052 15.7464 9.16671 16.6669 9.16671Z" stroke="white" stroke-width="1.5" stroke-linecap="round" stroke-linejoin="round"/>
<path d="M3.3334 11.6666H3.0784C2.68387 11.6666 2.30212 11.8065 2.00105 12.0615C1.69999 12.3165 1.49914 12.67 1.43424 13.0591L1.15674 14.7258C1.11692 14.9646 1.12959 15.2092 1.19388 15.4426C1.25817 15.676 1.37253 15.8925 1.52901 16.0773C1.68549 16.262 1.88033 16.4104 2.09998 16.5122C2.31963 16.6139 2.55882 16.6667 2.8009 16.6666H5.83341" stroke="white" stroke-width="1.5" stroke-linecap="round" stroke-linejoin="round"/>
<path d="M16.6669 11.6666H16.9219C17.3164 11.6666 17.6982 11.8065 17.9992 12.0615C18.3003 12.3165 18.5011 12.67 18.566 13.0591L18.8435 14.7258C18.8834 14.9646 18.8707 15.2092 18.8064 15.4426C18.7421 15.676 18.6277 15.8925 18.4713 16.0773C18.3148 16.262 18.1199 16.4104 17.9003 16.5122C17.6806 16.6139 17.4415 16.6667 17.1994 16.6666H14.1669" stroke="white" stroke-width="1.5" stroke-linecap="round" stroke-linejoin="round"/>
</g>
<defs>
<clipPath id="clip0_4810_3104">
<rect width="20" height="20" fill="white"/>
</clipPath>
</defs>
</svg>
