<svg width="24" height="24" viewBox="0 0 24 24" fill="none" xmlns="http://www.w3.org/2000/svg">
<path d="M17.25 8C17.7141 8 18.1592 8.18061 18.4874 8.5021C18.8156 8.82359 19 9.25963 19 9.71429V18.2857C19 18.7404 18.8156 19.1764 18.4874 19.4979C18.1592 19.8194 17.7141 20 17.25 20H6.75C6.28587 20 5.84075 19.8194 5.51256 19.4979C5.18437 19.1764 5 18.7404 5 18.2857V9.71429C5 9.25963 5.18437 8.82359 5.51256 8.5021C5.84075 8.18061 6.28587 8 6.75 8H14.625V6.28571C14.625 5.60373 14.3484 4.94968 13.8562 4.46744C13.3639 3.9852 12.6962 3.71429 12 3.71429C11.3038 3.71429 10.6361 3.9852 10.1438 4.46744C9.65156 4.94968 9.375 5.60373 9.375 6.28571H7.625C7.625 5.14907 8.08594 4.05898 8.90641 3.25526C9.72688 2.45153 10.8397 2 12 2C12.5745 2 13.1434 2.11085 13.6742 2.32623C14.205 2.54161 14.6873 2.85729 15.0936 3.25526C15.4998 3.65322 15.8221 4.12568 16.042 4.64564C16.2618 5.16561 16.375 5.72291 16.375 6.28571V8H17.25ZM12 15.7143C12.4641 15.7143 12.9092 15.5337 13.2374 15.2122C13.5656 14.8907 13.75 14.4547 13.75 14C13.75 13.5453 13.5656 13.1093 13.2374 12.7878C12.9092 12.4663 12.4641 12.2857 12 12.2857C11.5359 12.2857 11.0908 12.4663 10.7626 12.7878C10.4344 13.1093 10.25 13.5453 10.25 14C10.25 14.4547 10.4344 14.8907 10.7626 15.2122C11.0908 15.5337 11.5359 15.7143 12 15.7143Z" fill="#CCCCCC"/>
</svg>
