<svg width="24" height="24" viewBox="0 0 24 24" fill="none" xmlns="http://www.w3.org/2000/svg">
<path d="M19.612 5.53811C19.1722 5.09809 18.65 4.74903 18.0752 4.51088C17.5005 4.27272 16.8844 4.15015 16.2623 4.15015C15.6401 4.15015 15.0241 4.27272 14.4493 4.51088C13.8746 4.74903 13.3524 5.09809 12.9126 5.53811L11.9998 6.4509L11.087 5.53811C10.1986 4.64971 8.99364 4.15061 7.73725 4.15061C6.48085 4.15061 5.27591 4.64971 4.38751 5.53811C3.4991 6.42652 3 7.63146 3 8.88785C3 10.1442 3.4991 11.3492 4.38751 12.2376L5.30029 13.1504L11.9998 19.8499L18.6992 13.1504L19.612 12.2376C20.0521 11.7978 20.4011 11.2756 20.6393 10.7008C20.8774 10.126 21 9.51 21 8.88785C21 8.26571 20.8774 7.64966 20.6393 7.0749C20.4011 6.50014 20.0521 5.97793 19.612 5.53811Z" fill="#333333" stroke="#333333" stroke-width="1.5" stroke-linecap="round" stroke-linejoin="round"/>
</svg>
