<svg width="24" height="24" viewBox="0 0 24 24" fill="none" xmlns="http://www.w3.org/2000/svg">
<path d="M4.44444 3.63281H19.5556C19.806 3.63281 20.0463 3.73232 20.2234 3.90943C20.4005 4.08655 20.5 4.32677 20.5 4.57726V6.07515C20.4999 6.32561 20.4004 6.56579 20.2233 6.74287L14.1647 12.8005C13.9879 12.9778 13.8887 13.2179 13.8889 13.4683V19.423C13.8889 19.5665 13.8562 19.7082 13.7932 19.8372C13.7302 19.9662 13.6387 20.0792 13.5255 20.1675C13.4123 20.2558 13.2805 20.3172 13.14 20.3469C12.9996 20.3767 12.8542 20.374 12.7149 20.3391L10.8261 19.8669C10.6218 19.8157 10.4405 19.6978 10.311 19.5318C10.1815 19.3658 10.1111 19.1613 10.1111 18.9508V13.4683C10.1111 13.2178 10.0115 12.9776 9.83439 12.8005L3.77578 6.74287C3.59899 6.56564 3.4998 6.32547 3.5 6.07515V4.57726C3.5 4.32677 3.5995 4.08655 3.77662 3.90943C3.95374 3.73232 4.19396 3.63281 4.44444 3.63281Z" stroke="#333333" stroke-width="1.4" stroke-linecap="round" stroke-linejoin="round"/>
</svg>
