<svg width="201" height="177" viewBox="0 0 201 177" fill="none" xmlns="http://www.w3.org/2000/svg">
<g clip-path="url(#clip0_175_2526)">
<path d="M100.5 176.988C149.324 176.988 188.903 137.371 188.903 88.5002C188.903 39.6298 149.324 0.0124512 100.5 0.0124512C51.6764 0.0124512 12.097 39.6298 12.097 88.5002C12.097 137.371 51.6764 176.988 100.5 176.988Z" fill="white"/>
<path opacity="0.1" d="M100.5 176.988C149.324 176.988 188.903 137.371 188.903 88.5002C188.903 39.6298 149.324 0.0124512 100.5 0.0124512C51.6764 0.0124512 12.097 39.6298 12.097 88.5002C12.097 137.371 51.6764 176.988 100.5 176.988Z" fill="#738BBF"/>
<path d="M43.0467 123.141L0.769531 123.013L0.94348 65.5247L30.1772 65.6133L43.1811 78.7089L43.0467 123.141Z" fill="white"/>
<path opacity="0.3" d="M30.1769 65.6133L30.1373 78.6693L43.1808 78.7089L30.1769 65.6133Z" fill="#738BBF"/>
<path d="M43.4469 78.6928C43.4452 78.6692 43.4406 78.6459 43.4331 78.6235C43.4302 78.6149 43.428 78.6065 43.4242 78.5979C43.4117 78.5686 43.3939 78.5418 43.3717 78.5189L30.3678 65.4233C30.3449 65.4008 30.3182 65.3825 30.2889 65.3694C30.2807 65.3659 30.2724 65.3629 30.2639 65.3602C30.2413 65.3524 30.2177 65.3476 30.1939 65.3462C30.1882 65.3462 30.1831 65.3427 30.1774 65.3427L0.944028 65.2551C0.872613 65.2551 0.804123 65.2835 0.753625 65.3341C0.703127 65.3846 0.674757 65.4532 0.674757 65.5247L0.5 123.012C0.5 123.083 0.52837 123.152 0.578868 123.202C0.629366 123.253 0.697856 123.281 0.769271 123.281L43.0448 123.41C43.1162 123.41 43.1847 123.382 43.2352 123.331C43.2857 123.281 43.3141 123.212 43.3141 123.141L43.4487 78.7089C43.4501 78.7038 43.4471 78.6987 43.4469 78.6928ZM30.4429 66.2651L36.4477 72.3098L42.5316 78.4367L30.4074 78.3998L30.4429 66.2651ZM1.03854 122.744L1.21088 65.795L29.9058 65.8821L29.8672 78.6685C29.8672 78.74 29.8956 78.8086 29.9461 78.8591C29.9966 78.9096 30.0651 78.938 30.1365 78.938L42.9107 78.9769L42.778 122.87L1.03854 122.744Z" fill="#333333"/>
<path d="M129.234 120.841L71.5826 120.666L71.8199 42.2715L111.685 42.3925L129.418 60.2504L129.234 120.841Z" fill="white"/>
<path opacity="0.3" d="M111.684 42.3923L111.631 60.1963L129.418 60.2503L111.684 42.3923Z" fill="#738BBF"/>
<path d="M129.684 60.2342C129.682 60.2107 129.678 60.1875 129.67 60.1652C129.667 60.1563 129.665 60.1479 129.661 60.1382C129.648 60.109 129.631 60.0823 129.609 60.0593L111.876 42.2013C111.853 42.1788 111.826 42.1606 111.797 42.1474C111.788 42.1437 111.78 42.1415 111.772 42.1385C111.749 42.1307 111.726 42.1259 111.702 42.1243C111.696 42.1243 111.691 42.121 111.685 42.121L71.8205 42C71.749 42 71.6806 42.0284 71.6301 42.0789C71.5796 42.1295 71.5512 42.198 71.5512 42.2695L71.314 120.664C71.314 120.735 71.3423 120.804 71.3928 120.854C71.4433 120.905 71.5118 120.933 71.5832 120.933L129.234 121.108C129.306 121.108 129.374 121.08 129.425 121.029C129.475 120.979 129.503 120.91 129.503 120.839L129.687 60.2485C129.687 60.2452 129.684 60.2401 129.684 60.2342ZM111.951 43.0439L128.768 59.9789L111.9 59.9277L111.951 43.0439ZM71.8525 120.397L72.0881 42.5418L111.414 42.6612L111.36 60.1956C111.36 60.2671 111.389 60.3357 111.439 60.3862C111.49 60.4368 111.558 60.4652 111.63 60.4652L129.147 60.5191L128.966 120.57L71.8525 120.397Z" fill="#333333"/>
<path d="M200.097 123.141L157.819 123.013L157.993 65.5247L187.227 65.6133L200.231 78.7089L200.097 123.141Z" fill="white"/>
<path opacity="0.3" d="M187.227 65.6135L187.187 78.6695L200.231 78.7091L187.227 65.6135Z" fill="#738BBF"/>
<path d="M200.497 78.6929C200.495 78.6693 200.491 78.646 200.483 78.6236C200.48 78.615 200.478 78.6066 200.474 78.598C200.462 78.5688 200.444 78.542 200.422 78.519L187.418 65.4234C187.395 65.4009 187.368 65.3826 187.339 65.3695C187.331 65.3657 187.322 65.3633 187.314 65.3603C187.291 65.3525 187.268 65.3478 187.244 65.3463C187.238 65.3463 187.233 65.3428 187.228 65.3428L157.994 65.2542C157.923 65.2542 157.854 65.2825 157.804 65.3331C157.753 65.3836 157.725 65.4522 157.725 65.5237L157.551 123.012C157.551 123.083 157.579 123.152 157.63 123.202C157.68 123.253 157.749 123.281 157.82 123.281L200.097 123.409C200.169 123.409 200.237 123.381 200.288 123.33C200.338 123.28 200.366 123.211 200.366 123.14L200.501 78.708C200.5 78.7039 200.497 78.6988 200.497 78.6929ZM187.494 66.2652L193.497 72.3099L199.582 78.4368L187.457 78.3999L187.494 66.2652ZM158.09 122.744L158.262 65.7951L186.957 65.8822L186.918 78.6686C186.918 78.7401 186.947 78.8087 186.997 78.8592C187.048 78.9097 187.116 78.9381 187.188 78.9381L199.962 78.977L199.829 122.87L158.09 122.744Z" fill="#333333"/>
<path d="M86.1002 87.9559C88.3292 87.9559 90.1361 86.1472 90.1361 83.9162C90.1361 81.6851 88.3292 79.8765 86.1002 79.8765C83.8713 79.8765 82.0644 81.6851 82.0644 83.9162C82.0644 86.1472 83.8713 87.9559 86.1002 87.9559Z" fill="#333333"/>
<path d="M113.774 87.9559C116.003 87.9559 117.81 86.1472 117.81 83.9162C117.81 81.6851 116.003 79.8765 113.774 79.8765C111.545 79.8765 109.738 81.6851 109.738 83.9162C109.738 86.1472 111.545 87.9559 113.774 87.9559Z" fill="#333333"/>
<path d="M105.348 95.0873H94.5262C94.4548 95.0873 94.3863 95.0589 94.3358 95.0085C94.2853 94.958 94.257 94.8895 94.257 94.8182C94.257 94.7468 94.2853 94.6784 94.3358 94.6279C94.3863 94.5774 94.4548 94.5491 94.5262 94.5491H105.348C105.419 94.5491 105.488 94.5774 105.538 94.6279C105.589 94.6784 105.617 94.7468 105.617 94.8182C105.617 94.8895 105.589 94.958 105.538 95.0085C105.488 95.0589 105.419 95.0873 105.348 95.0873Z" fill="#333333"/>
<path d="M81.937 95.4716C83.9253 95.4716 85.5372 94.6224 85.5372 93.5749C85.5372 92.5274 83.9253 91.6782 81.937 91.6782C79.9487 91.6782 78.3369 92.5274 78.3369 93.5749C78.3369 94.6224 79.9487 95.4716 81.937 95.4716Z" fill="white"/>
<path d="M117.937 95.4716C119.925 95.4716 121.537 94.6224 121.537 93.5749C121.537 92.5274 119.925 91.6782 117.937 91.6782C115.949 91.6782 114.337 92.5274 114.337 93.5749C114.337 94.6224 115.949 95.4716 117.937 95.4716Z" fill="white"/>
<g opacity="0.4">
<path d="M81.937 95.4716C83.9253 95.4716 85.5372 94.6224 85.5372 93.5749C85.5372 92.5274 83.9253 91.6782 81.937 91.6782C79.9487 91.6782 78.3369 92.5274 78.3369 93.5749C78.3369 94.6224 79.9487 95.4716 81.937 95.4716Z" fill="#738BBF"/>
<path d="M117.937 95.4716C119.925 95.4716 121.537 94.6224 121.537 93.5749C121.537 92.5274 119.925 91.6782 117.937 91.6782C115.949 91.6782 114.337 92.5274 114.337 93.5749C114.337 94.6224 115.949 95.4716 117.937 95.4716Z" fill="#738BBF"/>
</g>
<path fill-rule="evenodd" clip-rule="evenodd" d="M115.327 50.0834C110.468 48.0706 105.26 47.0347 100 47.0347C94.7404 47.0347 89.5323 48.0706 84.6731 50.0834C79.8139 52.0961 75.3987 55.0462 71.6797 58.7653C67.9606 62.4844 65.0105 66.8996 62.9977 71.7588C60.985 76.618 59.949 81.826 59.949 87.0856C59.949 92.3452 60.985 97.5532 62.9977 102.412C64.4919 106.02 66.5026 109.382 68.9611 112.397L52.1362 129.222C50.5545 130.803 50.5545 133.368 52.1362 134.949C53.7178 136.531 56.2821 136.531 57.8637 134.949L74.6885 118.125C81.8039 123.927 90.7365 127.137 100 127.137C110.622 127.137 120.809 122.917 128.32 115.406C135.831 107.895 140.051 97.7078 140.051 87.0856C140.051 76.4634 135.831 66.2763 128.32 58.7653C124.601 55.0462 120.186 52.0961 115.327 50.0834ZM100 55.1347C104.196 55.1347 108.351 55.9611 112.227 57.5668C116.104 59.1725 119.626 61.526 122.593 64.4929C128.585 70.4848 131.951 78.6117 131.951 87.0856C131.951 95.5595 128.585 103.686 122.593 109.678C116.601 115.67 108.474 119.037 100 119.037C91.526 119.037 83.3992 115.67 77.4072 109.678C74.4403 106.711 72.0868 103.189 70.4812 99.3127C68.8755 95.4362 68.049 91.2814 68.049 87.0856C68.049 82.8897 68.8755 78.735 70.4811 74.8585C72.0868 70.982 74.4403 67.4598 77.4072 64.4929C80.3742 61.526 83.8964 59.1725 87.7729 57.5668C91.6493 55.9611 95.8041 55.1347 100 55.1347Z" fill="#738BBF"/>
</g>
<defs>
<clipPath id="clip0_175_2526">
<rect width="200" height="177" fill="white" transform="translate(0.5)"/>
</clipPath>
</defs>
</svg>
