<svg width="25" height="22" viewBox="0 0 25 22" fill="none" xmlns="http://www.w3.org/2000/svg">
<path fill-rule="evenodd" clip-rule="evenodd" d="M22.1324 0.915982C22.4289 0.791172 22.7535 0.748125 23.0723 0.791323C23.3912 0.834521 23.6926 0.962385 23.9452 1.1616C24.1979 1.36082 24.3925 1.62412 24.5088 1.92408C24.6252 2.22404 24.659 2.54971 24.6068 2.86718L21.8852 19.3756C21.6212 20.968 19.874 21.8812 18.4136 21.088C17.192 20.4244 15.3776 19.402 13.7456 18.3352C12.9296 17.8012 10.43 16.0912 10.7372 14.8744C11.0012 13.834 15.2012 9.92438 17.6012 7.59998C18.5432 6.68678 18.1136 6.15998 17.0012 6.99998C14.2376 9.08558 9.80359 12.2572 8.33719 13.15C7.04359 13.9372 6.36919 14.0716 5.56279 13.9372C4.09159 13.6924 2.72719 13.3132 1.61359 12.8512C0.108787 12.2272 0.181987 10.1584 1.61239 9.55598L22.1324 0.915982Z" fill="white"/>
</svg>
