<svg width="22" height="22" viewBox="0 0 22 22" fill="none" xmlns="http://www.w3.org/2000/svg">
<path d="M21.7873 16.5168C21.5948 17.9802 20.8761 19.3235 19.7654 20.2958C18.6548 21.2681 17.2283 21.8028 15.7522 21.8002C7.17695 21.8002 0.200083 14.8233 0.200083 6.24804C0.197437 4.77198 0.73219 3.34542 1.70447 2.23482C2.67674 1.12422 4.02005 0.40551 5.48349 0.212937C5.85356 0.16775 6.22832 0.24346 6.55183 0.428765C6.87533 0.614069 7.13023 0.899029 7.27847 1.24111L9.55945 6.33336V6.34632C9.67295 6.60817 9.71982 6.89405 9.69589 7.17844C9.67195 7.46282 9.57796 7.73685 9.42229 7.97605C9.40285 8.00521 9.38233 8.03221 9.36073 8.05921L7.11215 10.7247C7.92108 12.3685 9.64046 14.0727 11.3058 14.8838L13.9346 12.6471C13.9604 12.6254 13.9874 12.6052 14.0156 12.5866C14.2546 12.4272 14.5295 12.3299 14.8156 12.3035C15.1017 12.2771 15.3898 12.3224 15.654 12.4354L15.668 12.4419L20.7559 14.7218C21.0986 14.8695 21.3843 15.1242 21.5702 15.4477C21.7561 15.7713 21.8323 16.1463 21.7873 16.5168Z" fill="white"/>
</svg>
