<svg width="24" height="24" viewBox="0 0 24 24" fill="none" xmlns="http://www.w3.org/2000/svg">
<path d="M19.0667 20C19.3333 20 19.5556 19.9111 19.7333 19.7333C19.9111 19.5556 20 19.3333 20 19.0667V15.4667C20 15.2593 19.9333 15.0776 19.8 14.9218C19.6667 14.7659 19.4963 14.6661 19.2889 14.6222L16.2222 14C16.0148 13.9704 15.8036 13.989 15.5884 14.056C15.3733 14.123 15.1994 14.2228 15.0667 14.3556L12.9778 16.4444C11.8519 15.763 10.8222 14.9556 9.88889 14.0222C8.95556 13.0889 8.17778 12.0889 7.55556 11.0222L9.68889 8.84444C9.82222 8.71111 9.90756 8.55911 9.94489 8.38844C9.98222 8.21778 9.98578 8.02904 9.95555 7.82222L9.37778 4.71111C9.34815 4.5037 9.25185 4.33333 9.08889 4.2C8.92593 4.06667 8.74074 4 8.53333 4H4.93333C4.66667 4 4.44444 4.08889 4.26667 4.26667C4.08889 4.44444 4 4.66667 4 4.93333C4 6.84444 4.42607 8.70756 5.27822 10.5227C6.13037 12.3378 7.2563 13.9452 8.656 15.3449C10.0557 16.7446 11.6631 17.8705 13.4782 18.7227C15.2933 19.5748 17.1561 20.0006 19.0667 20Z" fill="#333333"/>
</svg>
