<svg width="28" height="17" viewBox="0 0 28 17" fill="none" xmlns="http://www.w3.org/2000/svg">
<path fill-rule="evenodd" clip-rule="evenodd" d="M26.8644 1.22498C27.0646 0.590476 26.8644 0.129225 25.9784 0.129225H23.0326C22.2896 0.129225 21.9464 0.5331 21.7462 0.9651C21.7462 0.9651 20.2308 4.6551 18.1147 7.04741C17.4284 7.73929 17.114 7.96991 16.7422 7.96991C16.5419 7.96991 16.2843 7.73929 16.2843 7.10535V1.19516C16.2843 0.445913 16.0559 0.0999756 15.4265 0.0999756H10.7937C10.3359 0.0999756 10.0501 0.445913 10.0501 0.791851C10.0501 1.51241 11.1082 1.68566 11.2224 3.70335V8.08748C11.2224 9.03866 11.0536 9.21248 10.679 9.21248C9.67831 9.21248 7.24775 5.49379 5.78975 1.25648C5.50625 0.417225 5.21825 0.0999756 4.47463 0.0999756H1.50069C0.642875 0.0999756 0.5 0.503288 0.5 0.935851C0.5 1.71435 1.50069 5.63441 5.16087 10.8229C7.59144 14.3667 11.0514 16.2713 14.1682 16.2713C16.0559 16.2713 16.2843 15.8387 16.2843 15.1182V12.4373C16.2843 11.5727 16.4559 11.4287 17.0566 11.4287C17.4852 11.4287 18.2576 11.6588 20.0019 13.3598C22.0033 15.3775 22.3464 16.3 23.4618 16.3H26.4071C27.2649 16.3 27.6654 15.8674 27.4364 15.0315C27.1794 14.1957 26.2068 12.9852 24.9485 11.544C24.2623 10.7374 23.2329 9.8436 22.9184 9.41104C22.4898 8.83448 22.604 8.60385 22.9184 8.08523C22.8897 8.08523 26.4931 2.9541 26.8644 1.22273" fill="white"/>
</svg>
