<svg width="24" height="25" viewBox="0 0 24 25" fill="none" xmlns="http://www.w3.org/2000/svg">
<path d="M21.6302 11.3614C22.1233 12.0064 22.1233 12.8771 21.6302 13.5211C20.077 15.5486 16.3507 19.7233 12.0002 19.7233C7.64964 19.7233 3.9233 15.5486 2.37014 13.5211C2.13023 13.2122 2 12.8323 2 12.4412C2 12.0502 2.13023 11.6703 2.37014 11.3614C3.9233 9.33389 7.64964 5.15918 12.0002 5.15918C16.3507 5.15918 20.077 9.33389 21.6302 11.3614Z" stroke="#999999" stroke-width="1.6" stroke-linecap="round" stroke-linejoin="round"/>
<path d="M14.4969 12.4423C14.4969 13.8212 13.3791 14.939 12.0002 14.939C10.6213 14.939 9.50348 13.8212 9.50348 12.4423C9.50348 11.0634 10.6213 9.94556 12.0002 9.94556C13.3791 9.94556 14.4969 11.0634 14.4969 12.4423Z" fill="#999999" stroke="#999999" stroke-width="1.4" stroke-linecap="round" stroke-linejoin="round"/>
</svg>
