<svg width="201" height="221" viewBox="0 0 201 221" fill="none" xmlns="http://www.w3.org/2000/svg">
<g clip-path="url(#clip0_442_1854)">
<path d="M65.3947 77.7214L39.1223 183.538C38.0154 187.988 38.3473 192.674 40.0706 196.924C41.7939 201.174 44.8199 204.769 48.7142 207.193C58.7359 213.423 75.3042 220.167 100.64 220.94C127.496 221.76 145.362 214.048 155.926 207.047C159.66 204.571 162.535 201.001 164.158 196.826C165.781 192.651 166.072 188.077 164.992 183.73L138.67 77.7214" fill="#EEF1F7"/>
<path d="M102.032 82.6361C136.865 82.6361 165.103 73.1172 165.103 61.3749C165.103 49.6327 136.865 40.1138 102.032 40.1138C67.1993 40.1138 38.9617 49.6327 38.9617 61.3749C38.9617 73.1172 67.1993 82.6361 102.032 82.6361Z" fill="#333333"/>
<path d="M102.032 82.9889C85.1479 82.9889 69.2694 80.7709 57.3218 76.7422C45.2544 72.6742 38.6084 67.2164 38.6084 61.374C38.6084 55.5316 45.2537 50.0738 57.3218 46.0058C69.2694 41.9783 85.1479 39.759 102.032 39.759C118.917 39.759 134.795 41.9774 146.743 46.0058C158.81 50.0738 165.456 55.5316 165.456 61.374C165.456 67.2164 158.81 72.6742 146.743 76.7422C134.795 80.7709 118.916 82.9889 102.032 82.9889ZM102.032 40.4666C85.2225 40.4666 69.4243 42.6715 57.5471 46.6752C45.7896 50.6387 39.3144 55.8592 39.3144 61.3749C39.3144 66.8906 45.7896 72.1111 57.5471 76.0745C69.4243 80.0782 85.2228 82.2832 102.032 82.2832C118.842 82.2832 134.64 80.0782 146.517 76.0745C158.275 72.1111 164.75 66.8906 164.75 61.3749C164.75 55.8592 158.275 50.6387 146.517 46.6752C134.64 42.6715 118.842 40.4666 102.032 40.4666Z" fill="#333333"/>
<path d="M102.032 74.5368C147.798 74.5368 184.899 64.3341 184.899 51.7484C184.899 39.1627 147.798 28.96 102.032 28.96C56.2664 28.96 19.1658 39.1627 19.1658 51.7484C19.1658 64.3341 56.2664 74.5368 102.032 74.5368Z" fill="#738BBF"/>
<path d="M102.032 74.8896C79.8669 74.8896 59.024 72.5146 43.3431 68.2022C27.5244 63.852 18.8125 58.0087 18.8125 51.7474C18.8125 45.486 27.5244 39.6436 43.3431 35.2925C59.024 30.9801 79.8669 28.6055 102.032 28.6055C124.198 28.6055 145.04 30.9801 160.721 35.2925C176.54 39.6427 185.252 45.4863 185.252 51.7474C185.252 58.0084 176.54 63.8511 160.721 68.2022C145.04 72.5146 124.197 74.8896 102.032 74.8896ZM102.032 29.3127C79.9285 29.3127 59.152 31.6789 43.5302 35.9748C35.9548 38.0579 30.0133 40.4801 25.87 43.1738C21.6554 45.9141 19.5185 48.7989 19.5185 51.7483C19.5185 54.6977 21.6554 57.5827 25.87 60.3228C30.0133 63.0165 35.9548 65.4387 43.5302 67.5221C59.152 71.8186 79.9273 74.1838 102.032 74.1838C124.137 74.1838 144.912 71.818 160.534 67.5221C168.109 65.4387 174.051 63.0165 178.194 60.3228C182.409 57.5827 184.546 54.6977 184.546 51.7483C184.546 48.7989 182.409 45.9141 178.194 43.1738C174.051 40.4801 168.109 38.0579 160.534 35.9748C144.912 31.6789 124.136 29.3139 102.032 29.3139V29.3127Z" fill="#333333"/>
<path d="M140.16 38.4666C140.16 48.541 122.693 50.9141 104.479 51.3453C84.6339 51.8149 63.9053 48.3868 63.9053 38.4666C63.9338 28.3769 67.9634 18.7102 75.1107 11.5857C82.258 4.46124 91.9398 0.460449 102.033 0.460449C112.127 0.460449 121.809 4.46124 128.956 11.5857C136.103 18.7102 140.133 28.3769 140.161 38.4666H140.16Z" fill="white"/>
<path d="M135.211 36.4721C135.12 36.4721 135.032 36.4364 134.966 36.3726C134.9 36.3088 134.862 36.2219 134.859 36.1302C134.752 32.514 134.037 28.9415 132.744 25.5623C132.711 25.4749 132.713 25.3778 132.751 25.2923C132.79 25.2068 132.86 25.14 132.948 25.1066C133.035 25.0731 133.132 25.0757 133.218 25.1139C133.303 25.152 133.37 25.2226 133.404 25.31C134.724 28.763 135.455 32.4134 135.564 36.1086C135.567 36.2021 135.533 36.2929 135.469 36.3611C135.405 36.4293 135.316 36.4692 135.223 36.4721H135.211Z" fill="#333333"/>
<path d="M129.939 19.647C129.88 19.6471 129.822 19.6325 129.771 19.6045C129.719 19.5765 129.675 19.536 129.643 19.4867C124.985 12.3789 117.735 7.36966 109.437 5.52573C109.348 5.50367 109.271 5.44769 109.222 5.36969C109.174 5.29169 109.158 5.19782 109.177 5.10805C109.197 5.01827 109.251 4.93967 109.327 4.88895C109.404 4.83823 109.497 4.8194 109.588 4.83646C118.066 6.72032 125.474 11.8386 130.234 19.1013C130.269 19.1545 130.289 19.2161 130.291 19.2796C130.294 19.343 130.279 19.406 130.249 19.4619C130.219 19.5178 130.174 19.5645 130.12 19.5971C130.065 19.6297 130.003 19.6469 129.939 19.647Z" fill="#333333"/>
<path d="M100.782 51.7412C83.9242 51.7412 71.0908 48.9073 66.0626 44.0014C64.396 42.3748 63.5513 40.5123 63.5513 38.4662C63.5371 33.4056 64.5219 28.3919 66.4494 23.7124C68.3768 19.033 71.209 14.7797 74.7837 11.1962C78.3584 7.61283 82.6053 4.76971 87.2811 2.82981C91.9568 0.889915 96.9696 -0.108643 102.032 -0.108643C107.095 -0.108643 112.107 0.889915 116.783 2.82981C121.459 4.76971 125.706 7.61283 129.28 11.1962C132.855 14.7797 135.687 19.033 137.615 23.7124C139.542 28.3919 140.527 33.4056 140.513 38.4662C140.513 43.2182 136.723 46.7155 129.247 48.8607C123.495 50.5114 115.396 51.4393 104.487 51.6974C103.232 51.7266 101.997 51.7412 100.782 51.7412ZM102.031 0.704743C92.0162 0.716034 82.4146 4.69801 75.3328 11.7771C68.251 18.8561 64.2675 28.4542 64.2561 38.4655C64.2561 40.3146 65.0295 42.007 66.5549 43.4958C71.8108 48.627 85.9831 51.4283 104.469 50.9919C119.64 50.6333 139.809 48.9439 139.809 38.4665C139.797 28.4549 135.814 18.8566 128.732 11.7775C121.65 4.69835 112.048 0.716546 102.032 0.705657L102.031 0.704743Z" fill="#333333"/>
<path d="M40.3319 54.7986C43.0663 54.7986 45.283 52.5828 45.283 49.8494C45.283 47.116 43.0663 44.9001 40.3319 44.9001C37.5975 44.9001 35.3808 47.116 35.3808 49.8494C35.3808 52.5828 37.5975 54.7986 40.3319 54.7986Z" fill="white"/>
<path d="M40.3319 55.1513C39.2829 55.1513 38.2574 54.8404 37.3851 54.2578C36.5129 53.6752 35.833 52.8471 35.4316 51.8783C35.0301 50.9094 34.9251 49.8434 35.1297 48.8148C35.3344 47.7863 35.8396 46.8416 36.5814 46.1001C37.3231 45.3586 38.2682 44.8536 39.2971 44.649C40.326 44.4444 41.3925 44.5494 42.3617 44.9507C43.3309 45.352 44.1593 46.0316 44.7421 46.9035C45.3249 47.7755 45.636 48.8006 45.636 49.8492C45.6344 51.2549 45.0751 52.6026 44.0807 53.5966C43.0863 54.5906 41.7382 55.1497 40.3319 55.1513ZM40.3319 45.2525C39.4224 45.2525 38.5334 45.5221 37.7772 46.0272C37.021 46.5323 36.4316 47.2502 36.0835 48.0902C35.7355 48.9301 35.6444 49.8543 35.8219 50.746C35.9993 51.6377 36.4373 52.4567 37.0804 53.0996C37.7234 53.7424 38.5428 54.1802 39.4348 54.3576C40.3268 54.535 41.2514 54.4439 42.0916 54.096C42.9319 53.7481 43.6501 53.1589 44.1553 52.403C44.6606 51.6471 44.9303 50.7584 44.9303 49.8492C44.9291 48.6305 44.4442 47.462 43.5821 46.6002C42.72 45.7384 41.5511 45.2538 40.3319 45.2525Z" fill="#333333"/>
<path d="M102.032 68.9727C104.767 68.9727 106.983 66.7569 106.983 64.0235C106.983 61.2901 104.767 59.0742 102.032 59.0742C99.2978 59.0742 97.0812 61.2901 97.0812 64.0235C97.0812 66.7569 99.2978 68.9727 102.032 68.9727Z" fill="white"/>
<path d="M102.032 69.3254C100.983 69.3254 99.9577 69.0145 99.0855 68.4319C98.2132 67.8493 97.5334 67.0212 97.1319 66.0523C96.7304 65.0835 96.6254 64.0174 96.8301 62.9889C97.0347 61.9604 97.5399 61.0157 98.2817 60.2741C99.0235 59.5326 99.9686 59.0277 100.997 58.8231C102.026 58.6185 103.093 58.7235 104.062 59.1248C105.031 59.5261 105.86 60.2057 106.442 61.0776C107.025 61.9495 107.336 62.9747 107.336 64.0233C107.335 65.429 106.775 66.7767 105.781 67.7707C104.787 68.7647 103.438 69.3238 102.032 69.3254ZM102.032 59.4269C101.123 59.4269 100.234 59.6965 99.4777 60.2016C98.7215 60.7066 98.1322 61.4245 97.7842 62.2643C97.4361 63.1042 97.3451 64.0284 97.5225 64.92C97.6999 65.8116 98.1378 66.6306 98.7809 67.2734C99.424 67.9163 100.243 68.354 101.135 68.5314C102.027 68.7087 102.952 68.6177 103.792 68.2698C104.632 67.9219 105.35 67.3328 105.855 66.5769C106.361 65.8211 106.63 64.9324 106.63 64.0233C106.629 62.8047 106.144 61.6363 105.282 60.7746C104.42 59.9129 103.251 59.4282 102.032 59.4269Z" fill="#333333"/>
<path d="M163.722 54.7986C166.456 54.7986 168.673 52.5828 168.673 49.8494C168.673 47.116 166.456 44.9001 163.722 44.9001C160.987 44.9001 158.77 47.116 158.77 49.8494C158.77 52.5828 160.987 54.7986 163.722 54.7986Z" fill="white"/>
<path d="M163.722 55.1513C162.673 55.1513 161.647 54.8404 160.775 54.2578C159.903 53.6752 159.223 52.8471 158.821 51.8783C158.42 50.9094 158.315 49.8434 158.519 48.8148C158.724 47.7863 159.229 46.8416 159.971 46.1001C160.713 45.3586 161.658 44.8536 162.687 44.649C163.716 44.4444 164.782 44.5494 165.751 44.9507C166.721 45.352 167.549 46.0316 168.132 46.9035C168.715 47.7755 169.026 48.8006 169.026 49.8492C169.024 51.2549 168.465 52.6026 167.47 53.5966C166.476 54.5906 165.128 55.1497 163.722 55.1513ZM163.722 45.2525C162.812 45.2525 161.923 45.5221 161.167 46.0272C160.411 46.5323 159.821 47.2502 159.473 48.0902C159.125 48.9301 159.034 49.8543 159.212 50.746C159.389 51.6377 159.827 52.4567 160.47 53.0996C161.113 53.7424 161.932 54.1802 162.824 54.3576C163.716 54.535 164.641 54.4439 165.481 54.096C166.322 53.7481 167.04 53.1589 167.545 52.403C168.05 51.6471 168.32 50.7584 168.32 49.8492C168.319 48.6305 167.834 47.462 166.972 46.6002C166.11 45.7384 164.941 45.2538 163.722 45.2525Z" fill="#333333"/>
<path d="M137.409 64.0235C140.144 64.0235 142.36 61.8076 142.36 59.0742C142.36 56.3409 140.144 54.125 137.409 54.125C134.675 54.125 132.458 56.3409 132.458 59.0742C132.458 61.8076 134.675 64.0235 137.409 64.0235Z" fill="white"/>
<path d="M137.409 64.3762C136.36 64.3762 135.335 64.0652 134.463 63.4826C133.59 62.9 132.91 62.072 132.509 61.1031C132.108 60.1343 132.002 59.0682 132.207 58.0397C132.412 57.0112 132.917 56.0664 133.659 55.3249C134.401 54.5834 135.346 54.0784 136.375 53.8739C137.403 53.6693 138.47 53.7743 139.439 54.1756C140.408 54.5769 141.237 55.2565 141.82 56.1284C142.402 57.0003 142.713 58.0254 142.713 59.0741C142.712 60.4798 142.152 61.8275 141.158 62.8215C140.164 63.8155 138.816 64.3746 137.409 64.3762ZM137.409 54.4774C136.5 54.4773 135.611 54.7469 134.855 55.2519C134.098 55.757 133.509 56.4749 133.161 57.3148C132.813 58.1547 132.722 59.079 132.899 59.9707C133.076 60.8624 133.514 61.6814 134.157 62.3243C134.8 62.9672 135.62 63.405 136.512 63.5824C137.404 63.7598 138.328 63.6688 139.169 63.3209C140.009 62.973 140.727 62.3838 141.232 61.6279C141.738 60.872 142.007 59.9832 142.007 59.0741C142.006 57.8554 141.521 56.687 140.659 55.8252C139.797 54.9634 138.628 54.4787 137.409 54.4774Z" fill="#333333"/>
<path d="M66.6549 64.6973C69.3893 64.6973 71.606 62.4815 71.606 59.7481C71.606 57.0147 69.3893 54.7988 66.6549 54.7988C63.9204 54.7988 61.7038 57.0147 61.7038 59.7481C61.7038 62.4815 63.9204 64.6973 66.6549 64.6973Z" fill="white"/>
<path d="M66.6549 65.0503C65.6058 65.0503 64.5803 64.7393 63.7081 64.1567C62.8358 63.5741 62.156 62.746 61.7545 61.7772C61.3531 60.8084 61.248 59.7423 61.4527 58.7138C61.6573 57.6853 62.1625 56.7405 62.9043 55.999C63.6461 55.2575 64.5912 54.7525 65.6201 54.5479C66.649 54.3433 67.7154 54.4483 68.6846 54.8496C69.6538 55.251 70.4822 55.9305 71.065 56.8025C71.6479 57.6744 71.9589 58.6995 71.9589 59.7482C71.9573 61.1539 71.398 62.5015 70.4036 63.4955C69.4093 64.4895 68.0611 65.0487 66.6549 65.0503ZM66.6549 55.1515C65.7453 55.1512 64.8561 55.4205 64.0997 55.9254C63.3433 56.4304 62.7536 57.1482 62.4054 57.9881C62.0571 58.828 61.9658 59.7523 62.1431 60.6441C62.3204 61.5359 62.7583 62.3551 63.4013 62.9981C64.0444 63.6411 64.8638 64.079 65.7558 64.2564C66.6479 64.4339 67.5726 64.3429 68.4129 63.995C69.2533 63.6471 69.9715 63.0579 70.4768 62.3019C70.9821 61.5459 71.2518 60.6571 71.2517 59.7479C71.2504 58.5294 70.7658 57.3613 69.904 56.4996C69.0422 55.6379 67.8737 55.1531 66.6549 55.1515Z" fill="#333333"/>
<path d="M154.532 34.1166C154.163 35.2337 153.408 36.183 152.403 36.7943C151.397 37.4055 150.206 37.6387 149.044 37.4522C147.882 37.2656 146.825 36.6714 146.061 35.7761C145.298 34.8808 144.878 33.7429 144.878 32.5665C144.878 32.4559 144.882 32.3477 144.889 32.2395C148.271 32.8041 151.492 33.4297 154.532 34.1166Z" fill="white"/>
<path d="M149.829 37.8678C148.422 37.8664 147.074 37.3074 146.079 36.3133C145.085 35.3193 144.526 33.9715 144.524 32.5657C144.524 32.4474 144.529 32.3313 144.537 32.2155L144.563 31.8264L144.947 31.8907C148.347 32.4584 151.598 33.0913 154.61 33.7714L154.99 33.8574L154.868 34.2264C154.519 35.2869 153.844 36.2101 152.939 36.8641C152.034 37.5181 150.945 37.8694 149.829 37.8678ZM145.232 32.6543C145.252 33.7057 145.632 34.7184 146.309 35.5234C146.986 36.3283 147.919 36.877 148.951 37.0779C149.984 37.2788 151.054 37.1197 151.984 36.6271C152.913 36.1346 153.646 35.3385 154.059 34.3714C151.291 33.7544 148.326 33.1775 145.232 32.6543Z" fill="#333333"/>
<path d="M58.6545 32.5663C58.6542 33.7328 58.2418 34.8618 57.49 35.754C56.7383 36.6462 55.6954 37.2443 54.5455 37.4429C53.3956 37.6415 52.2124 37.4277 51.2048 36.8394C50.1972 36.251 49.4297 35.3258 49.0379 34.227C52.0662 33.5353 55.2757 32.9003 58.6475 32.3286C58.6521 32.4063 58.6545 32.4862 58.6545 32.5663Z" fill="white"/>
<path d="M53.7037 37.8677C52.6091 37.8662 51.5417 37.5271 50.647 36.8967C49.7523 36.2664 49.0739 35.3754 48.7045 34.3455L48.5709 33.9713L48.9584 33.8829C52.0015 33.1879 55.2413 32.5479 58.5874 31.9809L58.9752 31.915L58.999 32.3072C59.0042 32.3919 59.0066 32.4791 59.0066 32.5662C59.005 33.9717 58.4458 35.3191 57.4517 36.313C56.4576 37.3068 55.1097 37.866 53.7037 37.8677ZM49.5211 34.4789C49.9515 35.4188 50.6863 36.1862 51.6067 36.6573C52.5271 37.1284 53.5794 37.2757 54.5938 37.0754C55.6083 36.8751 56.5256 36.3389 57.1977 35.5534C57.8698 34.7679 58.2575 33.7789 58.2982 32.746C55.2571 33.2683 52.3088 33.8503 49.5211 34.4789Z" fill="#333333"/>
<path d="M109.734 205.342L64.4741 179.569L99.4994 118.107L130.796 135.928L136.805 157.839L109.734 205.342Z" fill="white"/>
<path opacity="0.3" d="M117.076 174.728C118.565 174.728 119.772 173.521 119.772 172.033C119.772 170.544 118.565 169.338 117.076 169.338C115.587 169.338 114.38 170.544 114.38 172.033C114.38 173.521 115.587 174.728 117.076 174.728Z" fill="#738BBF"/>
<path opacity="0.3" d="M88.6254 160.533C90.1143 160.533 91.3213 159.327 91.3213 157.838C91.3213 156.35 90.1143 155.144 88.6254 155.144C87.1365 155.144 85.9294 156.35 85.9294 157.838C85.9294 159.327 87.1365 160.533 88.6254 160.533Z" fill="#738BBF"/>
<path d="M109.866 205.823L63.9928 179.701L99.3674 117.625L131.097 135.695L137.184 157.887L109.866 205.823ZM64.9554 179.437L109.602 204.861L136.427 157.791L130.495 136.162L99.6317 118.588L64.9554 179.437Z" fill="#333333"/>
<path opacity="0.3" d="M130.796 135.928L122.841 149.887L136.805 157.839L130.796 135.928Z" fill="#738BBF"/>
<path d="M136.805 158.191C136.744 158.191 136.684 158.175 136.63 158.145L122.666 150.193C122.585 150.147 122.526 150.07 122.501 149.98C122.476 149.889 122.488 149.793 122.535 149.712L130.489 135.752C130.524 135.692 130.576 135.643 130.638 135.611C130.7 135.58 130.771 135.568 130.84 135.577C130.909 135.585 130.974 135.615 131.027 135.66C131.08 135.706 131.118 135.766 131.136 135.834L137.146 157.743C137.16 157.795 137.162 157.85 137.152 157.904C137.141 157.957 137.119 158.007 137.086 158.05C137.053 158.093 137.01 158.128 136.962 158.152C136.913 158.176 136.859 158.189 136.805 158.189V158.191ZM123.323 149.755L136.239 157.11L130.681 136.843L123.323 149.755Z" fill="#333333"/>
<path d="M97.6865 154.293C98.8617 154.293 99.8143 153.34 99.8143 152.166C99.8143 150.991 98.8617 150.039 97.6865 150.039C96.5114 150.039 95.5588 150.991 95.5588 152.166C95.5588 153.34 96.5114 154.293 97.6865 154.293Z" fill="#333333"/>
<path d="M117.644 163.364C118.819 163.364 119.772 162.412 119.772 161.237C119.772 160.062 118.819 159.11 117.644 159.11C116.469 159.11 115.517 160.062 115.517 161.237C115.517 162.412 116.469 163.364 117.644 163.364Z" fill="#333333"/>
<path d="M108.601 176.409C108.509 176.409 108.421 176.373 108.355 176.309C108.289 176.245 108.251 176.158 108.248 176.066C108.204 174.365 107.726 172.704 106.86 171.239C105.993 169.775 104.767 168.556 103.297 167.697C101.828 166.839 100.163 166.37 98.4616 166.334C96.7599 166.299 95.0773 166.698 93.5731 167.495C93.5321 167.518 93.4868 167.532 93.4401 167.537C93.3933 167.543 93.346 167.538 93.3008 167.525C93.2557 167.512 93.2137 167.49 93.1773 167.46C93.1409 167.43 93.1108 167.393 93.0889 167.352C93.0669 167.31 93.0534 167.265 93.0493 167.218C93.0452 167.171 93.0505 167.124 93.0649 167.079C93.0792 167.034 93.1024 166.993 93.1331 166.957C93.1637 166.921 93.2012 166.892 93.2433 166.871C94.8536 166.019 96.6548 165.592 98.4764 165.63C100.298 165.668 102.08 166.171 103.653 167.089C105.226 168.008 106.538 169.313 107.466 170.881C108.394 172.448 108.906 174.226 108.954 176.047C108.957 176.141 108.922 176.231 108.857 176.299C108.793 176.367 108.704 176.407 108.611 176.409H108.601Z" fill="#333333"/>
<path d="M99.5378 149.99C98.3917 149.976 97.2734 149.635 96.3139 149.008C96.2383 148.953 96.1874 148.871 96.172 148.78C96.1567 148.688 96.1782 148.594 96.2319 148.518C96.2857 148.442 96.3673 148.39 96.459 148.374C96.5506 148.358 96.645 148.378 96.7214 148.431C96.7495 148.451 98.8202 149.872 101.134 148.989C101.221 148.958 101.316 148.962 101.4 149.001C101.484 149.039 101.549 149.109 101.582 149.195C101.615 149.282 101.613 149.377 101.576 149.462C101.539 149.546 101.471 149.613 101.386 149.648C100.796 149.874 100.17 149.99 99.5378 149.99Z" fill="#333333"/>
<path d="M121.332 160.13C121.292 160.13 121.253 160.123 121.216 160.11C118.24 159.074 117.902 156.78 117.889 156.683C117.876 156.59 117.901 156.496 117.958 156.421C118.015 156.347 118.099 156.298 118.192 156.285C118.285 156.273 118.379 156.298 118.454 156.354C118.528 156.411 118.577 156.495 118.59 156.588C118.602 156.672 118.903 158.557 121.45 159.444C121.528 159.471 121.595 159.526 121.637 159.598C121.679 159.669 121.695 159.754 121.681 159.836C121.667 159.918 121.625 159.993 121.561 160.046C121.497 160.1 121.417 160.13 121.333 160.13H121.332Z" fill="#333333"/>
<path d="M4.10221 78.0743C4.05587 78.0743 4.00998 78.0652 3.96717 78.0474C3.92436 78.0297 3.88547 78.0037 3.85271 77.9709C3.81996 77.9381 3.79399 77.8992 3.77628 77.8564C3.75857 77.8136 3.74948 77.7678 3.74952 77.7214V67.7666C3.74813 67.7194 3.75623 67.6724 3.77334 67.6284C3.79045 67.5844 3.81621 67.5442 3.84912 67.5104C3.88202 67.4765 3.92139 67.4496 3.96489 67.4312C4.00839 67.4128 4.05513 67.4033 4.10236 67.4033C4.14959 67.4033 4.19634 67.4128 4.23984 67.4312C4.28334 67.4496 4.32271 67.4765 4.35561 67.5104C4.38851 67.5442 4.41428 67.5844 4.43139 67.6284C4.4485 67.6724 4.4566 67.7194 4.45521 67.7666V77.7214C4.45525 77.7678 4.44614 77.8137 4.42842 77.8565C4.41069 77.8993 4.38469 77.9383 4.35191 77.971C4.31912 78.0038 4.28019 78.0298 4.23734 78.0475C4.1945 78.0652 4.14858 78.0743 4.10221 78.0743Z" fill="#333333"/>
<path d="M7.35173 73.0974H0.852997C0.759376 73.0974 0.66959 73.0602 0.60339 72.994C0.537191 72.9278 0.5 72.838 0.5 72.7444C0.5 72.6507 0.537191 72.561 0.60339 72.4948C0.66959 72.4285 0.759376 72.3914 0.852997 72.3914H7.35173C7.44535 72.3914 7.53514 72.4285 7.60134 72.4948C7.66754 72.561 7.70473 72.6507 7.70473 72.7444C7.70473 72.838 7.66754 72.9278 7.60134 72.994C7.53514 73.0602 7.44535 73.0974 7.35173 73.0974Z" fill="#333333"/>
<path d="M173.615 133.519C173.521 133.519 173.431 133.482 173.365 133.416C173.299 133.349 173.262 133.26 173.262 133.166V118.023C173.262 117.93 173.299 117.84 173.365 117.774C173.431 117.708 173.521 117.67 173.615 117.67C173.708 117.67 173.798 117.708 173.864 117.774C173.93 117.84 173.968 117.93 173.968 118.023V133.166C173.968 133.26 173.93 133.349 173.864 133.415C173.798 133.482 173.708 133.519 173.615 133.519Z" fill="#333333"/>
<path d="M178.558 125.948H168.673C168.579 125.948 168.489 125.911 168.423 125.844C168.357 125.778 168.32 125.688 168.32 125.595C168.32 125.501 168.357 125.411 168.423 125.345C168.489 125.279 168.579 125.242 168.673 125.242H178.558C178.652 125.242 178.742 125.279 178.808 125.345C178.874 125.411 178.911 125.501 178.911 125.595C178.911 125.688 178.874 125.778 178.808 125.844C178.742 125.911 178.652 125.948 178.558 125.948Z" fill="#333333"/>
<path d="M197.676 85.6455C197.629 85.6455 197.583 85.6364 197.541 85.6187C197.498 85.601 197.459 85.575 197.426 85.5422C197.393 85.5095 197.367 85.4705 197.35 85.4277C197.332 85.3849 197.323 85.339 197.323 85.2926V77.7213C197.323 77.6277 197.36 77.5379 197.426 77.4718C197.492 77.4056 197.582 77.3684 197.676 77.3684C197.769 77.3684 197.859 77.4056 197.925 77.4718C197.992 77.5379 198.029 77.6277 198.029 77.7213V85.2926C198.029 85.339 198.02 85.3849 198.002 85.4277C197.984 85.4705 197.958 85.5095 197.925 85.5422C197.893 85.575 197.854 85.601 197.811 85.6187C197.768 85.6364 197.722 85.6455 197.676 85.6455Z" fill="#333333"/>
<path d="M200.147 81.8603H195.204C195.158 81.8603 195.112 81.8512 195.069 81.8334C195.027 81.8157 194.988 81.7897 194.955 81.7569C194.922 81.7241 194.896 81.6852 194.878 81.6424C194.861 81.5996 194.851 81.5537 194.851 81.5073C194.851 81.4609 194.861 81.415 194.878 81.3722C194.896 81.3294 194.922 81.2905 194.955 81.2577C194.988 81.2249 195.027 81.1989 195.069 81.1812C195.112 81.1634 195.158 81.1543 195.204 81.1543H200.147C200.241 81.1543 200.331 81.1915 200.397 81.2577C200.463 81.3239 200.5 81.4137 200.5 81.5073C200.5 81.6009 200.463 81.6907 200.397 81.7569C200.331 81.8231 200.241 81.8603 200.147 81.8603Z" fill="#333333"/>
</g>
<defs>
<clipPath id="clip0_442_1854">
<rect width="200" height="221" fill="white" transform="translate(0.5)"/>
</clipPath>
</defs>
</svg>
