<svg width="200" height="170" viewBox="0 0 200 170" fill="none" xmlns="http://www.w3.org/2000/svg">
<g clip-path="url(#clip0_475_2120)">
<path d="M199.083 117.21C193.62 89.7465 161.617 67.7965 155.375 39.1772C144.031 2.76569 106.638 -2.99104 82.339 12.8225C43.8377 37.8792 84.9106 44.0972 9.42202 103.38C-9.21781 118.018 -3.27832 182.634 55.3615 167.805C86.9189 159.824 96.5122 158.704 110.707 157.39C146.485 154.078 208.252 163.312 199.083 117.21Z" fill="#EEF1F7"/>
<path d="M156.341 124.093L101.043 153.212L45.8273 124.093V80.1211H156.341V124.093Z" fill="white"/>
<path d="M101.043 153.659C100.969 153.659 100.897 153.641 100.833 153.607L45.6194 124.488C45.5476 124.45 45.4875 124.394 45.4454 124.324C45.4034 124.255 45.381 124.176 45.3807 124.095V80.1212C45.3807 80.0027 45.4279 79.8891 45.5119 79.8054C45.5959 79.7216 45.7099 79.6746 45.8287 79.6746H156.341C156.46 79.6746 156.574 79.7216 156.658 79.8054C156.742 79.8891 156.789 80.0027 156.789 80.1212V124.093C156.789 124.174 156.767 124.254 156.725 124.323C156.683 124.392 156.622 124.449 156.551 124.486L101.252 153.606C101.188 153.641 101.116 153.659 101.043 153.659ZM46.2752 123.825L101.043 152.708L155.893 123.824V80.5678H46.2752V123.825Z" fill="#333333"/>
<path d="M156.342 70.6855L101.043 41.5664L125.892 29.6245L181.191 58.744L156.342 70.6855Z" fill="white"/>
<path d="M156.342 71.1321C156.269 71.1321 156.197 71.1144 156.132 71.0806L100.833 41.9611C100.76 41.9225 100.699 41.8643 100.657 41.7931C100.615 41.7219 100.593 41.6405 100.595 41.5579C100.596 41.4753 100.621 41.3947 100.666 41.3251C100.71 41.2555 100.773 41.1996 100.848 41.1637L125.697 29.2218C125.76 29.1913 125.83 29.176 125.9 29.1773C125.97 29.1786 126.039 29.1964 126.101 29.2293L181.4 58.3488C181.473 58.3874 181.534 58.4455 181.576 58.5167C181.619 58.5878 181.64 58.6693 181.639 58.7519C181.637 58.8345 181.613 58.915 181.568 58.9846C181.523 59.0542 181.46 59.11 181.385 59.1459L156.536 71.0878C156.475 71.117 156.409 71.1321 156.342 71.1321ZM102.036 41.5838L156.351 70.1845L180.197 58.725L125.883 30.125L102.036 41.5838Z" fill="#333333"/>
<path d="M45.8273 70.6855L101.126 41.5664L76.277 29.6245L20.9781 58.744L45.8273 70.6855Z" fill="white"/>
<path d="M45.8273 71.1321C45.7599 71.1321 45.6934 71.117 45.6327 71.0878L20.7849 59.1459C20.7103 59.11 20.6471 59.0542 20.6024 58.9846C20.5577 58.915 20.5332 58.8345 20.5317 58.7519C20.5302 58.6693 20.5517 58.5878 20.5938 58.5167C20.6359 58.4455 20.697 58.3874 20.7703 58.3488L76.0691 29.2293C76.1311 29.1964 76.1999 29.1786 76.2701 29.1773C76.3403 29.176 76.4098 29.1913 76.473 29.2218L101.322 41.1636C101.397 41.1996 101.46 41.2555 101.505 41.3251C101.549 41.3947 101.574 41.4753 101.575 41.5579C101.577 41.6405 101.555 41.7219 101.513 41.7931C101.471 41.8643 101.41 41.9225 101.337 41.9611L46.038 71.0806C45.973 71.1147 45.9007 71.1324 45.8273 71.1321ZM21.9718 58.7257L45.818 70.1852L100.132 41.5845L76.2863 30.125L21.9718 58.7257Z" fill="#333333"/>
<path d="M45.8273 70.6855L101.126 99.805L72.6934 115.319L17.3945 86.2003L45.8273 70.6855Z" fill="white"/>
<path d="M72.6933 115.766C72.6204 115.766 72.5485 115.748 72.4841 115.714L17.1852 86.5948C17.1138 86.557 17.054 86.5007 17.0121 86.4318C16.9702 86.3629 16.9477 86.284 16.9472 86.2034C16.9466 86.1229 16.9679 86.0436 17.0088 85.9741C17.0497 85.9047 17.1087 85.8475 17.1795 85.8087L45.6123 70.2939C45.6772 70.2584 45.75 70.2395 45.8241 70.239C45.8981 70.2385 45.9712 70.2564 46.0366 70.2911L101.335 99.4106C101.407 99.4483 101.467 99.5046 101.509 99.5735C101.55 99.6424 101.573 99.7213 101.573 99.8019C101.574 99.8824 101.553 99.9617 101.512 100.031C101.471 100.101 101.412 100.158 101.341 100.197L72.9084 115.711C72.8424 115.747 72.7685 115.766 72.6933 115.766ZM18.3406 86.1932L72.6894 114.812L100.18 99.8118L45.8312 71.1925L18.3406 86.1932Z" fill="#333333"/>
<path d="M156.341 70.6855L101.043 99.805L129.475 115.319L184.774 86.2003L156.341 70.6855Z" fill="white"/>
<path d="M129.476 115.766C129.401 115.766 129.327 115.747 129.261 115.711L100.828 100.197C100.757 100.158 100.698 100.101 100.658 100.031C100.617 99.9617 100.595 99.8824 100.596 99.8019C100.597 99.7213 100.619 99.6424 100.661 99.5735C100.703 99.5046 100.763 99.4483 100.834 99.4106L156.133 70.2911C156.198 70.2564 156.271 70.2385 156.345 70.239C156.419 70.2395 156.492 70.2584 156.557 70.2939L184.99 85.8087C185.061 85.8475 185.12 85.9047 185.161 85.9741C185.202 86.0436 185.223 86.1229 185.222 86.2034C185.222 86.284 185.199 86.3629 185.157 86.4318C185.115 86.5007 185.056 86.557 184.984 86.5948L129.685 115.714C129.621 115.748 129.549 115.766 129.476 115.766ZM101.99 99.8118L129.48 114.812L183.83 86.1932L156.339 71.1925L101.99 99.8118Z" fill="#333333"/>
<path d="M101.126 41.5664L45.8273 70.6856L101.043 99.805L156.341 70.6856L101.126 41.5664Z" fill="#333333"/>
<path d="M101.491 99.8047H100.595V153.213H101.491V99.8047Z" fill="#333333"/>
<path d="M70.0598 68.0418C69.9856 68.0418 69.9133 68.0187 69.853 67.9757C69.7755 67.9209 69.7229 67.8377 69.7069 67.7443C69.6909 67.6509 69.7128 67.5549 69.7677 67.4776C69.834 67.3844 76.3107 58.049 69.0804 49.5382C67.8007 48.0241 66.2043 46.8072 64.4032 45.973C62.6021 45.1388 60.6398 44.7074 58.6538 44.709H58.5564C59.243 47.0872 59.1204 49.2017 58.1482 50.8238C57.7339 51.5568 57.1226 52.1599 56.3831 52.5651C55.6436 52.9704 54.8052 53.1618 53.9625 53.1176C53.265 53.0606 52.5992 52.8021 52.0468 52.3736C51.4943 51.9451 51.0792 51.3653 50.8523 50.7052C50.0571 48.6371 50.8881 46.632 53.0785 45.3397C54.466 44.5768 56.0078 44.1346 57.5899 44.0459C57.0752 42.6854 56.406 41.3882 55.5952 40.1796C52.9846 36.2044 48.2266 33.4525 42.5408 32.6296C37.7223 31.9325 33.1044 32.7536 30.7747 34.7209C30.7022 34.7821 30.6082 34.812 30.5134 34.8042C30.4187 34.7963 30.331 34.7512 30.2696 34.6789C30.2082 34.6065 30.1782 34.5128 30.1861 34.4184C30.194 34.3239 30.2392 34.2365 30.3117 34.1753C32.7909 32.0819 37.6313 31.1969 42.6437 31.9243C48.5326 32.7768 53.4716 35.6434 56.1951 39.7898C57.0781 41.1048 57.7963 42.5226 58.3338 44.0116C60.4762 43.9603 62.6028 44.3888 64.557 45.2657C66.5112 46.1425 68.2432 47.4453 69.6255 49.078C77.2202 58.0172 70.4199 67.7949 70.3504 67.8928C70.3173 67.9388 70.2737 67.9763 70.2231 68.0023C70.1726 68.0282 70.1166 68.0417 70.0598 68.0418ZM57.8225 44.7351C56.2886 44.8003 54.7906 45.2178 53.4451 45.9549C51.5543 47.0704 50.8541 48.7089 51.5232 50.4497C51.7044 50.9831 52.0377 51.4522 52.4822 51.7997C52.9267 52.1472 53.4632 52.358 54.026 52.4062C54.7345 52.4379 55.438 52.2724 56.0576 51.9282C56.6773 51.5841 57.1887 51.0749 57.5347 50.4575C58.427 48.9676 58.5087 46.9871 57.8214 44.7351H57.8225Z" fill="#333333"/>
<path d="M24.5897 40.4815C23.9807 40.6639 23.3243 40.6021 22.7604 40.3092C22.1964 40.0164 21.7694 39.5156 21.5703 38.9135C21.3711 38.3114 21.4156 37.6556 21.6942 37.0857C21.9727 36.5158 22.4635 36.0769 23.0618 35.8623C23.6602 35.6477 24.3189 35.6745 24.8977 35.937C25.4765 36.1994 25.9297 36.6768 26.1608 37.2674C26.3919 37.858 26.3826 38.5153 26.135 39.0992C25.8873 39.6831 25.4208 40.1475 24.8348 40.3936C24.7547 40.4274 24.6729 40.4567 24.5897 40.4815ZM23.3981 36.5113C23.34 36.5287 23.283 36.5492 23.2272 36.5727C22.8148 36.7461 22.4867 37.073 22.3126 37.484C22.1385 37.895 22.1322 38.3576 22.2951 38.7731C22.4579 39.1887 22.7771 39.5244 23.1846 39.7088C23.5921 39.8932 24.0556 39.9117 24.4766 39.7603C24.8975 39.609 25.2426 39.2998 25.4383 38.8986C25.6339 38.4973 25.6648 38.0358 25.5242 37.6122C25.3836 37.1887 25.0827 36.8366 24.6856 36.6309C24.2884 36.4253 23.8265 36.3823 23.3981 36.5113Z" fill="#333333"/>
<path d="M24.5854 34.8827C24.0093 35.0542 23.39 35.0073 22.8465 34.7511C22.303 34.4949 21.8737 34.0474 21.6411 33.4946C21.4546 33.0515 21.4041 32.5632 21.496 32.0915C21.5879 31.6197 21.818 31.1857 22.1573 30.8444C22.4965 30.5031 22.9297 30.2697 23.402 30.1738C23.8743 30.078 24.3645 30.1239 24.8106 30.3058C25.2568 30.4877 25.6387 30.7975 25.9083 31.1958C26.1779 31.5942 26.3229 32.0633 26.325 32.5439C26.3271 33.0244 26.1863 33.4948 25.9203 33.8955C25.6542 34.2963 25.275 34.6094 24.8305 34.7952C24.7504 34.8286 24.6686 34.8578 24.5854 34.8827ZM23.3953 30.9121C23.3365 30.9297 23.2787 30.9503 23.2222 30.9739C22.8018 31.15 22.4687 31.4853 22.2961 31.9061C22.1236 32.3269 22.1256 32.7988 22.3019 33.2181C22.4305 33.5237 22.6451 33.7857 22.9198 33.9723C23.1946 34.1589 23.5176 34.2621 23.85 34.2694C24.1823 34.2768 24.5097 34.188 24.7924 34.0138C25.0752 33.8395 25.3013 33.5874 25.4434 33.2877C25.5854 32.9881 25.6373 32.6538 25.5929 32.3254C25.5484 31.9969 25.4094 31.6884 25.1927 31.437C24.9761 31.1856 24.691 31.0023 24.372 30.9091C24.053 30.8158 23.7137 30.8171 23.3953 30.9121Z" fill="#333333"/>
<path d="M23.8898 37.4095C25.6497 37.4095 27.0764 36.4594 27.0764 35.2875C27.0764 34.1156 25.6497 33.1655 23.8898 33.1655C22.1299 33.1655 20.7032 34.1156 20.7032 35.2875C20.7032 36.4594 22.1299 37.4095 23.8898 37.4095Z" fill="white"/>
<path d="M25.3003 37.5656C24.8434 37.7002 24.3694 37.7681 23.893 37.7671C21.9048 37.7671 20.3452 36.6809 20.3452 35.2907C20.3452 33.9004 21.9001 32.8103 23.8876 32.8082C24.7541 32.7916 25.6066 33.0276 26.3406 33.487C26.6703 33.6583 26.9465 33.9163 27.1395 34.233C27.3324 34.5498 27.4345 34.9132 27.4349 35.2838C27.4352 35.6544 27.3337 36.018 27.1413 36.3351C26.949 36.6522 26.6732 36.9107 26.3438 37.0825C26.0219 37.2941 25.6702 37.4569 25.3003 37.5656ZM22.6979 33.6929C21.7403 33.9787 21.0616 34.5957 21.0619 35.2889C21.0619 36.2454 22.3581 37.0525 23.893 37.0511C24.618 37.0663 25.3318 36.8706 25.9471 36.488C26.1779 36.382 26.3733 36.2122 26.5103 35.9989C26.6472 35.7855 26.7198 35.5374 26.7196 35.2841C26.7194 35.0308 26.6463 34.7828 26.509 34.5697C26.3717 34.3566 26.1759 34.1872 25.945 34.0816C25.3292 33.6997 24.6151 33.5053 23.8901 33.5221C23.4865 33.521 23.0849 33.5785 22.6979 33.6929Z" fill="#333333"/>
<path d="M24.6714 37.345L24.5961 33.2182L23.5669 33.1768L23.4949 37.3932L24.6714 37.345Z" fill="#333333"/>
<path d="M19.6622 36.1855C19.8439 36.1855 19.9912 36.0387 19.9912 35.8575C19.9912 35.6764 19.8439 35.5295 19.6622 35.5295C19.4805 35.5295 19.3333 35.6764 19.3333 35.8575C19.3333 36.0387 19.4805 36.1855 19.6622 36.1855Z" fill="#333333"/>
<path d="M19.9192 34.4304C20.1009 34.4304 20.2482 34.2836 20.2482 34.1024C20.2482 33.9213 20.1009 33.7744 19.9192 33.7744C19.7375 33.7744 19.5902 33.9213 19.5902 34.1024C19.5902 34.2836 19.7375 34.4304 19.9192 34.4304Z" fill="#333333"/>
<path d="M126.367 47.4367C126.291 47.4367 126.216 47.4121 126.154 47.3667C126.093 47.3212 126.047 47.2572 126.025 47.1841C124.836 42.7585 124.519 38.1452 125.091 33.5994C126.017 26.9537 129.693 18.2318 141.945 14.4127C143.668 13.8601 145.437 13.4559 147.23 13.2047C147.807 9.60992 150.003 5.7104 154.914 3.01998C166.583 -3.37274 174.466 2.36291 174.544 2.42151C174.62 2.47836 174.67 2.56301 174.683 2.65681C174.697 2.75062 174.672 2.84591 174.615 2.92172C174.558 2.99753 174.473 3.04765 174.379 3.06105C174.285 3.07445 174.19 3.05003 174.114 2.99318C174.039 2.93744 166.506 -2.51523 155.26 3.64667C150.671 6.16095 148.57 9.76963 147.973 13.1196C153.376 12.589 155.964 14.3862 157.126 15.7436C157.844 16.5598 158.306 17.5689 158.453 18.6449C158.601 19.721 158.427 20.8166 157.955 21.7951C157.581 22.586 156.976 23.2454 156.219 23.6861C155.461 24.1268 154.588 24.3282 153.714 24.2636C150.696 24.0871 148.198 21.5561 147.352 17.8152C147.073 16.5488 146.998 15.2461 147.132 13.9564C145.445 14.198 143.782 14.5793 142.159 15.0965C132.61 18.0731 127.108 24.3326 125.8 33.6998C125.24 38.1425 125.549 42.6513 126.71 46.9768C126.726 47.0303 126.73 47.0868 126.721 47.1419C126.711 47.1969 126.689 47.249 126.655 47.2939C126.622 47.3389 126.579 47.3754 126.529 47.4005C126.479 47.4257 126.423 47.4388 126.367 47.4388V47.4367ZM147.863 13.8671C147.713 15.1322 147.777 16.4134 148.051 17.6576C148.826 21.0798 151.065 23.3925 153.755 23.5501C154.489 23.6025 155.221 23.4327 155.856 23.0628C156.491 22.693 156.999 22.1405 157.313 21.4778C157.723 20.6245 157.872 19.6699 157.741 18.7329C157.611 17.7958 157.207 16.9178 156.579 16.2081C154.904 14.2476 151.846 13.4558 147.863 13.8671Z" fill="#333333"/>
<path d="M182.891 6.03279C182.409 6.03178 181.936 5.89471 181.528 5.63741C181.12 5.3801 180.794 5.01304 180.586 4.5786C180.379 4.14416 180.298 3.66004 180.355 3.18212C180.412 2.70419 180.602 2.25195 180.906 1.87758C181.209 1.50321 181.612 1.22198 182.069 1.06634C182.526 0.910702 183.017 0.887001 183.487 0.997974C183.957 1.10895 184.385 1.35007 184.723 1.69351C185.062 2.03696 185.295 2.46872 185.398 2.93898C185.478 3.31175 185.474 3.69771 185.385 4.06861C185.297 4.4395 185.126 4.78594 184.886 5.08255C184.645 5.37916 184.342 5.61843 183.996 5.78285C183.651 5.94726 183.274 6.03266 182.891 6.03279ZM182.897 1.64378C182.516 1.64377 182.144 1.76163 181.833 1.98112C181.522 2.20061 181.286 2.51091 181.159 2.86927C181.033 3.22763 181.02 3.61639 181.124 3.98199C181.228 4.34758 181.444 4.67201 181.74 4.91055C182.037 5.14909 182.401 5.29 182.781 5.31386C183.162 5.33772 183.54 5.24336 183.864 5.04378C184.189 4.8442 184.443 4.54923 184.592 4.19951C184.741 3.8498 184.778 3.46257 184.697 3.09118C184.61 2.68028 184.383 2.31198 184.055 2.04832C183.727 1.78467 183.318 1.6418 182.897 1.64378Z" fill="#333333"/>
<path d="M181.812 11.8642C181.156 11.8642 180.524 11.6131 180.047 11.1626C179.57 10.7121 179.285 10.0966 179.25 9.44267C179.214 8.78875 179.432 8.14625 179.857 7.64741C180.283 7.14857 180.884 6.83138 181.537 6.76112C182.19 6.69086 182.845 6.87288 183.368 7.26972C183.89 7.66655 184.24 8.248 184.346 8.89436C184.451 9.54072 184.304 10.2028 183.935 10.7443C183.566 11.2858 183.002 11.6655 182.36 11.8053C182.18 11.8445 181.997 11.8642 181.812 11.8642ZM181.821 7.47487C181.689 7.47493 181.557 7.48918 181.427 7.51739C180.969 7.61762 180.568 7.88898 180.304 8.27561C180.041 8.66224 179.937 9.13475 180.012 9.59592C180.088 10.0571 180.338 10.4718 180.711 10.7548C181.084 11.0378 181.551 11.1675 182.017 11.1173C182.483 11.067 182.912 10.8406 183.216 10.4846C183.519 10.1287 183.675 9.67021 183.649 9.2036C183.624 8.73699 183.421 8.29771 183.081 7.97614C182.741 7.65458 182.29 7.47518 181.821 7.47487Z" fill="#333333"/>
<path d="M185.661 7.0767C185.887 5.8563 184.584 4.59364 182.752 4.25647C180.919 3.91931 179.25 4.63532 179.024 5.85571C178.799 7.0761 180.101 8.33876 181.934 8.67592C183.766 9.01309 185.435 8.29709 185.661 7.0767Z" fill="white"/>
<path d="M182.836 9.11698C182.512 9.11645 182.188 9.08656 181.869 9.02765C180.967 8.87857 180.129 8.47054 179.457 7.85358C179.163 7.60334 178.937 7.28319 178.8 6.92273C178.662 6.56227 178.619 6.17312 178.672 5.79128C178.759 5.41555 178.939 5.06769 179.196 4.7798C179.454 4.49192 179.779 4.27331 180.144 4.14415C180.996 3.82315 181.921 3.74062 182.817 3.90549C183.713 4.07036 184.547 4.47635 185.228 5.07955C185.522 5.32979 185.748 5.64994 185.886 6.0104C186.023 6.37087 186.067 6.76001 186.013 7.14185C185.926 7.51758 185.746 7.86545 185.489 8.15333C185.232 8.44121 184.906 8.65983 184.541 8.78898C184.001 9.01194 183.421 9.12351 182.836 9.11698ZM181.846 4.53003C181.36 4.52386 180.877 4.61586 180.427 4.8005C180.172 4.88549 179.943 5.03245 179.76 5.2281C179.576 5.42374 179.445 5.66189 179.377 5.92098C179.348 6.18711 179.385 6.45636 179.486 6.70435C179.588 6.95233 179.749 7.17123 179.957 7.34122C180.536 7.84565 181.242 8.18529 181.998 8.32453C182.755 8.46378 183.535 8.39749 184.257 8.13263C184.512 8.04765 184.741 7.90068 184.925 7.70503C185.108 7.50939 185.239 7.27124 185.307 7.01215C185.337 6.74601 185.299 6.4767 185.198 6.22868C185.097 5.98065 184.935 5.76177 184.727 5.59191C184.157 5.07303 183.447 4.73122 182.685 4.60828C182.409 4.55703 182.129 4.53084 181.848 4.53003H181.846Z" fill="#333333"/>
<path d="M181.929 4.17407L181.208 8.48519L182.272 8.72672L183.163 4.35022L181.929 4.17407Z" fill="#333333"/>
<path d="M186.249 8.81226C186.441 8.81226 186.597 8.65677 186.597 8.46497C186.597 8.27316 186.441 8.11768 186.249 8.11768C186.057 8.11768 185.901 8.27316 185.901 8.46497C185.901 8.65677 186.057 8.81226 186.249 8.81226Z" fill="#333333"/>
<path d="M186.856 7.03418C187.048 7.03418 187.204 6.87869 187.204 6.68689C187.204 6.49509 187.048 6.3396 186.856 6.3396C186.664 6.3396 186.508 6.49509 186.508 6.68689C186.508 6.87869 186.664 7.03418 186.856 7.03418Z" fill="#333333"/>
</g>
<defs>
<clipPath id="clip0_475_2120">
<rect width="200" height="170" fill="white"/>
</clipPath>
</defs>
</svg>
