<svg width="36" height="36" viewBox="0 0 36 36" fill="none" xmlns="http://www.w3.org/2000/svg">
<path fill-rule="evenodd" clip-rule="evenodd" d="M18 14.25C17.0054 14.25 16.0516 14.6451 15.3483 15.3483C14.6451 16.0516 14.25 17.0054 14.25 18C14.25 18.9946 14.6451 19.9484 15.3483 20.6517C16.0516 21.3549 17.0054 21.75 18 21.75C18.9946 21.75 19.9484 21.3549 20.6517 20.6517C21.3549 19.9484 21.75 18.9946 21.75 18C21.75 17.0054 21.3549 16.0516 20.6517 15.3483C19.9484 14.6451 18.9946 14.25 18 14.25ZM15.75 18C15.75 17.4033 15.9871 16.831 16.409 16.409C16.831 15.9871 17.4033 15.75 18 15.75C18.5967 15.75 19.169 15.9871 19.591 16.409C20.0129 16.831 20.25 17.4033 20.25 18C20.25 18.5967 20.0129 19.169 19.591 19.591C19.169 20.0129 18.5967 20.25 18 20.25C17.4033 20.25 16.831 20.0129 16.409 19.591C15.9871 19.169 15.75 18.5967 15.75 18Z" fill="#333333"/>
<path fill-rule="evenodd" clip-rule="evenodd" d="M17.975 7.25C17.53 7.25 17.159 7.25 16.855 7.27C16.5443 7.28294 16.2378 7.34714 15.948 7.46C15.6143 7.59809 15.311 7.80057 15.0555 8.05589C14.8 8.3112 14.5973 8.61434 14.459 8.948C14.314 9.298 14.275 9.668 14.259 10.07C14.2574 10.217 14.2185 10.3612 14.1459 10.4891C14.0733 10.6169 13.9694 10.7243 13.844 10.801C13.7149 10.8715 13.57 10.908 13.4229 10.9072C13.2758 10.9063 13.1313 10.868 13.003 10.796C12.647 10.608 12.307 10.457 11.931 10.407C11.573 10.3599 11.2091 10.3838 10.8603 10.4773C10.5115 10.5708 10.1845 10.7321 9.89802 10.952C9.65579 11.1469 9.44733 11.3803 9.28102 11.643C9.11102 11.897 8.92502 12.218 8.70302 12.603L8.67802 12.647C8.45502 13.032 8.27002 13.353 8.13602 13.627C7.99602 13.913 7.88602 14.195 7.84602 14.507C7.75062 15.23 7.9463 15.9613 8.39002 16.54C8.62102 16.841 8.92202 17.06 9.26202 17.274C9.38878 17.3489 9.49439 17.4549 9.56891 17.5819C9.64344 17.7089 9.68442 17.8528 9.68802 18C9.68442 18.1472 9.64344 18.2911 9.56891 18.4181C9.49439 18.5451 9.38878 18.6511 9.26202 18.726C8.92202 18.94 8.62202 19.159 8.39002 19.46C8.17014 19.7465 8.00883 20.0735 7.91532 20.4223C7.82181 20.7711 7.79792 21.1349 7.84502 21.493C7.88602 21.805 7.99502 22.087 8.13502 22.373C8.27002 22.647 8.45502 22.968 8.67802 23.353L8.70302 23.397C8.92502 23.782 9.11102 24.103 9.28102 24.357C9.45802 24.62 9.64802 24.857 9.89802 25.047C10.1844 25.2671 10.5114 25.4285 10.8602 25.5222C11.209 25.6159 11.5729 25.64 11.931 25.593C12.307 25.543 12.647 25.393 13.003 25.204C13.1311 25.1321 13.2754 25.0939 13.4224 25.093C13.5693 25.0921 13.7141 25.1286 13.843 25.199C13.9691 25.2751 14.0737 25.3823 14.1467 25.5102C14.2197 25.6382 14.2587 25.7827 14.26 25.93C14.275 26.332 14.314 26.702 14.46 27.052C14.5981 27.3857 14.8006 27.689 15.0559 27.9445C15.3112 28.2 15.6144 28.4027 15.948 28.541C16.238 28.661 16.538 28.708 16.855 28.729C17.159 28.75 17.53 28.75 17.975 28.75H18.025C18.47 28.75 18.841 28.75 19.145 28.73C19.463 28.708 19.762 28.661 20.052 28.54C20.3858 28.4019 20.689 28.1994 20.9445 27.9441C21.2 27.6888 21.4027 27.3857 21.541 27.052C21.686 26.702 21.725 26.332 21.741 25.93C21.7425 25.7828 21.7813 25.6384 21.8539 25.5103C21.9265 25.3823 22.0305 25.2748 22.156 25.198C22.2852 25.1276 22.4302 25.0913 22.5773 25.0923C22.7244 25.0934 22.8688 25.1318 22.997 25.204C23.353 25.392 23.693 25.543 24.069 25.592C24.792 25.6874 25.5233 25.4917 26.102 25.048C26.352 24.856 26.542 24.62 26.719 24.357C26.889 24.103 27.075 23.782 27.297 23.397L27.322 23.353C27.545 22.968 27.73 22.647 27.864 22.373C28.004 22.087 28.114 21.804 28.154 21.493C28.2494 20.77 28.0537 20.0387 27.61 19.46C27.379 19.159 27.078 18.94 26.738 18.726C26.6113 18.6511 26.5056 18.5451 26.4311 18.4181C26.3566 18.2911 26.3156 18.1472 26.312 18C26.312 17.722 26.464 17.446 26.738 17.274C27.078 17.06 27.378 16.841 27.61 16.54C27.8299 16.2535 27.9912 15.9265 28.0847 15.5777C28.1782 15.2289 28.2021 14.8651 28.155 14.507C28.1074 14.1997 28.0094 13.9024 27.865 13.627C27.6943 13.2947 27.5132 12.9679 27.322 12.647L27.297 12.603C27.1143 12.2771 26.9216 11.9569 26.719 11.643C26.5527 11.3806 26.3442 11.1475 26.102 10.953C25.8156 10.7329 25.4887 10.5715 25.1398 10.4778C24.791 10.3841 24.4271 10.36 24.069 10.407C23.693 10.457 23.353 10.607 22.997 10.796C22.8689 10.8679 22.7246 10.906 22.5777 10.9069C22.4307 10.9078 22.286 10.8713 22.157 10.801C22.0312 10.7245 21.9269 10.6173 21.854 10.4894C21.7811 10.3615 21.7418 10.2172 21.74 10.07C21.725 9.668 21.686 9.298 21.54 8.948C21.4019 8.61425 21.1994 8.31097 20.9441 8.05549C20.6888 7.8 20.3857 7.59731 20.052 7.459C19.762 7.339 19.462 7.292 19.145 7.271C18.841 7.25 18.47 7.25 18.025 7.25H17.975ZM16.522 8.845C16.599 8.813 16.716 8.784 16.957 8.767C17.204 8.75 17.524 8.75 18 8.75C18.476 8.75 18.796 8.75 19.043 8.767C19.284 8.784 19.401 8.813 19.478 8.845C19.785 8.972 20.028 9.215 20.155 9.522C20.195 9.618 20.228 9.769 20.241 10.126C20.271 10.918 20.68 11.681 21.406 12.1C22.132 12.52 22.997 12.492 23.698 12.122C24.014 11.955 24.161 11.908 24.265 11.895C24.5936 11.8516 24.9259 11.9404 25.189 12.142C25.255 12.193 25.339 12.28 25.474 12.48C25.613 12.686 25.773 12.963 26.011 13.375C26.249 13.787 26.408 14.065 26.517 14.287C26.624 14.504 26.657 14.62 26.667 14.703C26.7104 15.0316 26.6216 15.3639 26.42 15.627C26.356 15.71 26.242 15.814 25.94 16.004C25.268 16.426 24.812 17.162 24.812 18C24.812 18.838 25.268 19.574 25.94 19.996C26.242 20.186 26.356 20.29 26.42 20.373C26.622 20.636 26.71 20.968 26.667 21.297C26.657 21.38 26.623 21.497 26.517 21.713C26.408 21.936 26.249 22.213 26.011 22.625C25.773 23.037 25.612 23.314 25.474 23.52C25.339 23.72 25.255 23.807 25.189 23.858C24.9259 24.0596 24.5936 24.1484 24.265 24.105C24.161 24.092 24.015 24.045 23.698 23.878C22.998 23.508 22.132 23.48 21.406 23.899C20.68 24.319 20.271 25.082 20.241 25.874C20.228 26.231 20.195 26.382 20.155 26.478C20.0922 26.6298 20.0001 26.7677 19.8839 26.8839C19.7677 27.0001 19.6298 27.0922 19.478 27.155C19.401 27.187 19.284 27.216 19.043 27.233C18.796 27.25 18.476 27.25 18 27.25C17.524 27.25 17.204 27.25 16.957 27.233C16.716 27.216 16.599 27.187 16.522 27.155C16.3702 27.0922 16.2323 27.0001 16.1161 26.8839C16 26.7677 15.9078 26.6298 15.845 26.478C15.805 26.382 15.772 26.231 15.759 25.874C15.729 25.082 15.32 24.319 14.594 23.9C13.868 23.48 13.003 23.508 12.302 23.878C11.986 24.045 11.839 24.092 11.735 24.105C11.4065 24.1484 11.0741 24.0596 10.811 23.858C10.745 23.807 10.661 23.72 10.526 23.52C10.3379 23.2272 10.1588 22.9287 9.98902 22.625C9.75102 22.213 9.59202 21.935 9.48302 21.713C9.37602 21.496 9.34302 21.38 9.33302 21.297C9.2896 20.9684 9.37845 20.6361 9.58002 20.373C9.64402 20.29 9.75802 20.186 10.06 19.996C10.732 19.574 11.188 18.838 11.188 18C11.188 17.162 10.732 16.426 10.06 16.004C9.75802 15.814 9.64402 15.71 9.58002 15.627C9.37845 15.3639 9.2896 15.0316 9.33302 14.703C9.34302 14.62 9.37702 14.503 9.48302 14.287C9.59202 14.064 9.75102 13.787 9.98902 13.375C10.227 12.963 10.388 12.686 10.526 12.48C10.661 12.28 10.745 12.193 10.811 12.142C11.0741 11.9404 11.4065 11.8516 11.735 11.895C11.839 11.908 11.985 11.955 12.302 12.122C13.002 12.492 13.868 12.52 14.594 12.1C15.32 11.681 15.729 10.918 15.759 10.126C15.772 9.769 15.805 9.618 15.845 9.522C15.972 9.215 16.215 8.972 16.522 8.845Z" fill="#333333"/>
</svg>
