<svg width="173" height="186" viewBox="0 0 173 186" fill="none" xmlns="http://www.w3.org/2000/svg">
<g filter="url(#filter0_d_476_2928)">
<path d="M16.835 22H15.1875V13.4004H12.2617V12.0059H19.7539V13.4004H16.835V22ZM24.0879 14.2891C25.0449 14.2891 25.7673 14.501 26.2549 14.9248C26.7471 15.3486 26.9932 16.0094 26.9932 16.9072V22H25.8516L25.5439 20.9268H25.4893C25.2751 21.2002 25.054 21.4258 24.8262 21.6035C24.5983 21.7812 24.334 21.9134 24.0332 22C23.737 22.0911 23.3747 22.1367 22.9463 22.1367C22.4951 22.1367 22.0918 22.0547 21.7363 21.8906C21.3809 21.722 21.1006 21.4668 20.8955 21.125C20.6904 20.7832 20.5879 20.3503 20.5879 19.8262C20.5879 19.0469 20.8773 18.4613 21.4561 18.0693C22.0394 17.6774 22.9189 17.4609 24.0947 17.4199L25.4072 17.3721V16.9756C25.4072 16.4515 25.2842 16.0778 25.0381 15.8545C24.7965 15.6312 24.4548 15.5195 24.0127 15.5195C23.6344 15.5195 23.2676 15.5742 22.9121 15.6836C22.5566 15.793 22.2103 15.9274 21.873 16.0869L21.3535 14.9521C21.7227 14.7562 22.1419 14.5967 22.6113 14.4736C23.0853 14.3506 23.5775 14.2891 24.0879 14.2891ZM25.4004 18.3838L24.4229 18.418C23.6208 18.4453 23.0579 18.582 22.7344 18.8281C22.4108 19.0742 22.249 19.4115 22.249 19.8398C22.249 20.2135 22.3607 20.487 22.584 20.6602C22.8073 20.8288 23.1012 20.9131 23.4658 20.9131C24.0218 20.9131 24.4821 20.7559 24.8467 20.4414C25.2158 20.1224 25.4004 19.6553 25.4004 19.04V18.3838ZM35.8525 14.4326V22H34.2324V15.7041H30.8555V22H29.2422V14.4326H35.8525ZM39.7695 14.4326V17.4746H43.3105V14.4326H44.9238V22H43.3105V18.7324H39.7695V22H38.1562V14.4326H39.7695ZM48.7656 14.4326V18.2949C48.7656 18.418 48.7611 18.5752 48.752 18.7666C48.7474 18.9535 48.7383 19.1494 48.7246 19.3545C48.7109 19.555 48.6973 19.7396 48.6836 19.9082C48.6699 20.0768 48.6585 20.2021 48.6494 20.2842L52.457 14.4326H54.4121V22H52.874V18.1787C52.874 17.9782 52.8786 17.7458 52.8877 17.4814C52.9014 17.2171 52.915 16.9619 52.9287 16.7158C52.9469 16.4697 52.9583 16.2829 52.9629 16.1553L49.1689 22H47.2207V14.4326H48.7656ZM62.4375 15.6973H59.9492V22H58.3496V15.6973H55.875V14.4326H62.4375V15.6973ZM66.915 14.2891C67.5895 14.2891 68.1683 14.4281 68.6514 14.7061C69.1344 14.984 69.5059 15.3783 69.7656 15.8887C70.0254 16.3991 70.1553 17.0098 70.1553 17.7207V18.582H65.1035C65.1217 19.3158 65.3177 19.8809 65.6914 20.2773C66.0697 20.6738 66.5983 20.8721 67.2773 20.8721C67.7604 20.8721 68.1934 20.8265 68.5762 20.7354C68.9635 20.6396 69.3623 20.5007 69.7725 20.3184V21.624C69.3942 21.8018 69.0091 21.9316 68.6172 22.0137C68.2253 22.0957 67.7559 22.1367 67.209 22.1367C66.4661 22.1367 65.8122 21.9932 65.2471 21.7061C64.6865 21.4144 64.2467 20.9814 63.9277 20.4072C63.6133 19.833 63.4561 19.1198 63.4561 18.2676C63.4561 17.4199 63.5996 16.6999 63.8867 16.1074C64.1738 15.515 64.5771 15.0638 65.0967 14.7539C65.6162 14.444 66.2223 14.2891 66.915 14.2891ZM66.915 15.499C66.4092 15.499 65.999 15.6631 65.6846 15.9912C65.3747 16.3193 65.1924 16.8001 65.1377 17.4336H68.583C68.5785 17.0553 68.5146 16.7204 68.3916 16.4287C68.2731 16.137 68.0908 15.9092 67.8447 15.7451C67.6032 15.5811 67.2933 15.499 66.915 15.499ZM82.2139 14.4326V22H80.5938V15.7041H77.2168V22H75.6035V14.4326H82.2139ZM91.2168 18.1992C91.2168 18.8281 91.1348 19.3864 90.9707 19.874C90.8066 20.3617 90.5674 20.7741 90.2529 21.1113C89.9385 21.444 89.5602 21.6992 89.1182 21.877C88.6761 22.0501 88.1771 22.1367 87.6211 22.1367C87.1016 22.1367 86.6253 22.0501 86.1924 21.877C85.7594 21.6992 85.3835 21.444 85.0645 21.1113C84.75 20.7741 84.5062 20.3617 84.333 19.874C84.1598 19.3864 84.0732 18.8281 84.0732 18.1992C84.0732 17.3652 84.2168 16.6589 84.5039 16.0801C84.7956 15.4967 85.2103 15.0524 85.748 14.7471C86.2858 14.4417 86.9261 14.2891 87.6689 14.2891C88.3662 14.2891 88.9814 14.4417 89.5146 14.7471C90.0479 15.0524 90.4648 15.4967 90.7656 16.0801C91.0664 16.6634 91.2168 17.3698 91.2168 18.1992ZM85.7275 18.1992C85.7275 18.7507 85.7936 19.2223 85.9258 19.6143C86.0625 20.0062 86.2721 20.307 86.5547 20.5166C86.8372 20.7217 87.2018 20.8242 87.6484 20.8242C88.0951 20.8242 88.4596 20.7217 88.7422 20.5166C89.0247 20.307 89.2321 20.0062 89.3643 19.6143C89.4964 19.2223 89.5625 18.7507 89.5625 18.1992C89.5625 17.6478 89.4964 17.1807 89.3643 16.7979C89.2321 16.4105 89.0247 16.1165 88.7422 15.916C88.4596 15.7109 88.0928 15.6084 87.6416 15.6084C86.9762 15.6084 86.4909 15.8317 86.1855 16.2783C85.8802 16.7249 85.7275 17.3652 85.7275 18.1992ZM101.389 14.4326H103.159L100.028 18.0693L103.426 22H101.573L98.3125 18.1582V22H96.6992V14.4326H98.3125V18.1035L101.389 14.4326ZM107.623 14.2891C108.58 14.2891 109.302 14.501 109.79 14.9248C110.282 15.3486 110.528 16.0094 110.528 16.9072V22H109.387L109.079 20.9268H109.024C108.81 21.2002 108.589 21.4258 108.361 21.6035C108.133 21.7812 107.869 21.9134 107.568 22C107.272 22.0911 106.91 22.1367 106.481 22.1367C106.03 22.1367 105.627 22.0547 105.271 21.8906C104.916 21.722 104.636 21.4668 104.431 21.125C104.226 20.7832 104.123 20.3503 104.123 19.8262C104.123 19.0469 104.412 18.4613 104.991 18.0693C105.575 17.6774 106.454 17.4609 107.63 17.4199L108.942 17.3721V16.9756C108.942 16.4515 108.819 16.0778 108.573 15.8545C108.332 15.6312 107.99 15.5195 107.548 15.5195C107.17 15.5195 106.803 15.5742 106.447 15.6836C106.092 15.793 105.745 15.9274 105.408 16.0869L104.889 14.9521C105.258 14.7562 105.677 14.5967 106.146 14.4736C106.62 14.3506 107.113 14.2891 107.623 14.2891ZM108.936 18.3838L107.958 18.418C107.156 18.4453 106.593 18.582 106.27 18.8281C105.946 19.0742 105.784 19.4115 105.784 19.8398C105.784 20.2135 105.896 20.487 106.119 20.6602C106.342 20.8288 106.636 20.9131 107.001 20.9131C107.557 20.9131 108.017 20.7559 108.382 20.4414C108.751 20.1224 108.936 19.6553 108.936 19.04V18.3838ZM116.66 14.2891C117.558 14.2891 118.278 14.6172 118.82 15.2734C119.367 15.9297 119.641 16.9049 119.641 18.1992C119.641 19.056 119.513 19.7783 119.258 20.3662C119.007 20.9495 118.654 21.3916 118.198 21.6924C117.747 21.9886 117.221 22.1367 116.619 22.1367C116.236 22.1367 115.904 22.0866 115.621 21.9863C115.339 21.8861 115.097 21.7562 114.896 21.5967C114.696 21.4326 114.527 21.2549 114.391 21.0635H114.295C114.318 21.2458 114.338 21.4486 114.356 21.6719C114.379 21.8906 114.391 22.0911 114.391 22.2734V25.3564H112.777V14.4326H114.09L114.315 15.4785H114.391C114.532 15.2643 114.703 15.0661 114.903 14.8838C115.108 14.7015 115.354 14.5579 115.642 14.4531C115.933 14.3438 116.273 14.2891 116.66 14.2891ZM116.229 15.6016C115.787 15.6016 115.432 15.6904 115.163 15.8682C114.899 16.0413 114.705 16.3034 114.582 16.6543C114.464 17.0052 114.4 17.445 114.391 17.9736V18.1992C114.391 18.7598 114.448 19.236 114.562 19.6279C114.68 20.0153 114.874 20.3115 115.143 20.5166C115.416 20.7171 115.785 20.8174 116.25 20.8174C116.642 20.8174 116.965 20.7103 117.221 20.4961C117.48 20.2819 117.674 19.9766 117.802 19.5801C117.929 19.1836 117.993 18.7165 117.993 18.1787C117.993 17.363 117.847 16.7295 117.556 16.2783C117.269 15.8271 116.826 15.6016 116.229 15.6016ZM127.215 15.6973H124.727V22H123.127V15.6973H120.652V14.4326H127.215V15.6973ZM135.377 18.1992C135.377 18.8281 135.295 19.3864 135.131 19.874C134.967 20.3617 134.728 20.7741 134.413 21.1113C134.099 21.444 133.72 21.6992 133.278 21.877C132.836 22.0501 132.337 22.1367 131.781 22.1367C131.262 22.1367 130.785 22.0501 130.353 21.877C129.92 21.6992 129.544 21.444 129.225 21.1113C128.91 20.7741 128.666 20.3617 128.493 19.874C128.32 19.3864 128.233 18.8281 128.233 18.1992C128.233 17.3652 128.377 16.6589 128.664 16.0801C128.956 15.4967 129.37 15.0524 129.908 14.7471C130.446 14.4417 131.086 14.2891 131.829 14.2891C132.526 14.2891 133.142 14.4417 133.675 14.7471C134.208 15.0524 134.625 15.4967 134.926 16.0801C135.227 16.6634 135.377 17.3698 135.377 18.1992ZM129.888 18.1992C129.888 18.7507 129.954 19.2223 130.086 19.6143C130.223 20.0062 130.432 20.307 130.715 20.5166C130.997 20.7217 131.362 20.8242 131.809 20.8242C132.255 20.8242 132.62 20.7217 132.902 20.5166C133.185 20.307 133.392 20.0062 133.524 19.6143C133.657 19.2223 133.723 18.7507 133.723 18.1992C133.723 17.6478 133.657 17.1807 133.524 16.7979C133.392 16.4105 133.185 16.1165 132.902 15.916C132.62 15.7109 132.253 15.6084 131.802 15.6084C131.136 15.6084 130.651 15.8317 130.346 16.2783C130.04 16.7249 129.888 17.3652 129.888 18.1992ZM138.631 14.4326V17.1738C138.631 17.5749 138.736 17.8734 138.945 18.0693C139.155 18.2653 139.456 18.3633 139.848 18.3633C140.285 18.3633 140.686 18.304 141.051 18.1855C141.42 18.0671 141.791 17.9076 142.165 17.707V14.4326H143.771V22H142.165V18.8008C141.787 19.0241 141.393 19.2109 140.982 19.3613C140.572 19.5117 140.091 19.5869 139.54 19.5869C138.756 19.5869 138.141 19.3841 137.694 18.9785C137.248 18.5729 137.024 17.9941 137.024 17.2422V14.4326H138.631ZM150.758 14.4326H152.528L149.397 18.0693L152.795 22H150.942L147.682 18.1582V22H146.068V14.4326H147.682V18.1035L150.758 14.4326ZM157.04 14.2891C157.715 14.2891 158.293 14.4281 158.776 14.7061C159.259 14.984 159.631 15.3783 159.891 15.8887C160.15 16.3991 160.28 17.0098 160.28 17.7207V18.582H155.229C155.247 19.3158 155.443 19.8809 155.816 20.2773C156.195 20.6738 156.723 20.8721 157.402 20.8721C157.885 20.8721 158.318 20.8265 158.701 20.7354C159.089 20.6396 159.487 20.5007 159.897 20.3184V21.624C159.519 21.8018 159.134 21.9316 158.742 22.0137C158.35 22.0957 157.881 22.1367 157.334 22.1367C156.591 22.1367 155.937 21.9932 155.372 21.7061C154.812 21.4144 154.372 20.9814 154.053 20.4072C153.738 19.833 153.581 19.1198 153.581 18.2676C153.581 17.4199 153.725 16.6999 154.012 16.1074C154.299 15.515 154.702 15.0638 155.222 14.7539C155.741 14.444 156.347 14.2891 157.04 14.2891ZM157.04 15.499C156.534 15.499 156.124 15.6631 155.81 15.9912C155.5 16.3193 155.317 16.8001 155.263 17.4336H158.708C158.703 17.0553 158.64 16.7204 158.517 16.4287C158.398 16.137 158.216 15.9092 157.97 15.7451C157.728 15.5811 157.418 15.499 157.04 15.499Z" fill="white"/>
<path d="M68.2188 68.8125C68.2188 65.2072 69.651 61.7496 72.2003 59.2003C74.7496 56.6509 78.2072 55.2188 81.8125 55.2188C85.4178 55.2188 88.8754 56.6509 91.4247 59.2003C93.9741 61.7496 95.4063 65.2072 95.4063 68.8125C95.4063 69.1855 95.2581 69.5431 94.9944 69.8069C94.7307 70.0706 94.373 70.2188 94 70.2188C93.6271 70.2188 93.2694 70.0706 93.0056 69.8069C92.7419 69.5431 92.5938 69.1855 92.5938 68.8125C92.5938 65.9531 91.4579 63.2109 89.436 61.189C87.4141 59.1671 84.6719 58.0312 81.8125 58.0312C78.9531 58.0312 76.2109 59.1671 74.189 61.189C72.1671 63.2109 71.0313 65.9531 71.0313 68.8125C71.0313 69.1855 70.8831 69.5431 70.6194 69.8069C70.3557 70.0706 69.998 70.2188 69.625 70.2188C69.252 70.2188 68.8944 70.0706 68.6306 69.8069C68.3669 69.5431 68.2188 69.1855 68.2188 68.8125ZM100.563 79.5938C99.3428 79.5926 98.151 79.9593 97.143 80.6461C96.9345 79.6858 96.4968 78.7903 95.8674 78.0357C95.2379 77.2812 94.4353 76.69 93.528 76.3127C92.6207 75.9354 91.6356 75.783 90.6568 75.8687C89.6779 75.9544 88.7342 76.2755 87.9063 76.8047V68.8125C87.9063 67.1963 87.2642 65.6464 86.1214 64.5036C84.9786 63.3608 83.4287 62.7188 81.8125 62.7188C80.1963 62.7188 78.6464 63.3608 77.5036 64.5036C76.3608 65.6464 75.7188 67.1963 75.7188 68.8125V89.2031L73.9539 86.3672C73.1418 84.9686 71.8073 83.9499 70.2441 83.5352C68.6809 83.1205 67.017 83.3437 65.6184 84.1559C64.2198 84.968 63.2011 86.3024 62.7864 87.8657C62.3717 89.4289 62.5949 91.0928 63.407 92.4914L70.2789 104.21C70.4715 104.522 70.7782 104.746 71.1337 104.835C71.4892 104.924 71.8654 104.871 72.1822 104.687C72.499 104.503 72.7314 104.202 72.8299 103.849C72.9283 103.496 72.8851 103.118 72.7094 102.797L65.8445 91.0781C65.6291 90.7049 65.4893 90.293 65.433 89.8657C65.3768 89.4385 65.4052 89.0044 65.5168 88.5881C65.7421 87.7475 66.292 87.0308 67.0457 86.5957C67.7994 86.1606 68.6951 86.0427 69.5357 86.2679C69.9519 86.3795 70.3421 86.5719 70.684 86.8343C71.0258 87.0966 71.3127 87.4237 71.5281 87.7969C71.5346 87.8109 71.5425 87.8242 71.5516 87.8367L75.9297 94.868C76.0909 95.1281 76.3325 95.3285 76.6179 95.4388C76.9033 95.5492 77.2169 95.5634 77.5112 95.4794C77.8054 95.3953 78.0642 95.2176 78.2483 94.9732C78.4324 94.7288 78.5317 94.431 78.5313 94.125V68.8125C78.5313 67.9423 78.877 67.1077 79.4923 66.4923C80.1077 65.877 80.9423 65.5312 81.8125 65.5312C82.6828 65.5312 83.5174 65.877 84.1327 66.4923C84.7481 67.1077 85.0938 67.9423 85.0938 68.8125V84.75C85.0938 85.123 85.2419 85.4806 85.5056 85.7444C85.7694 86.0081 86.1271 86.1562 86.5 86.1562C86.873 86.1562 87.2307 86.0081 87.4944 85.7444C87.7581 85.4806 87.9063 85.123 87.9063 84.75V81.9375C87.9063 81.0673 88.252 80.2327 88.8673 79.6173C89.4827 79.002 90.3173 78.6562 91.1875 78.6562C92.0578 78.6562 92.8924 79.002 93.5077 79.6173C94.1231 80.2327 94.4688 81.0673 94.4688 81.9375V86.625C94.4688 86.998 94.6169 87.3556 94.8806 87.6194C95.1444 87.8831 95.5021 88.0312 95.875 88.0312C96.248 88.0312 96.6057 87.8831 96.8694 87.6194C97.1331 87.3556 97.2813 86.998 97.2813 86.625V85.6875C97.2813 84.8173 97.627 83.9827 98.2423 83.3673C98.8577 82.752 99.6923 82.4062 100.563 82.4062C101.433 82.4062 102.267 82.752 102.883 83.3673C103.498 83.9827 103.844 84.8173 103.844 85.6875V94.125C103.844 99.3117 102.133 102.839 102.116 102.872C101.953 103.204 101.928 103.588 102.046 103.939C102.164 104.29 102.416 104.58 102.747 104.747C102.94 104.85 103.156 104.904 103.375 104.906C103.637 104.907 103.894 104.834 104.116 104.697C104.339 104.559 104.519 104.362 104.636 104.128C104.718 103.964 106.659 100.015 106.659 94.125V85.6875C106.659 84.8871 106.501 84.0945 106.195 83.355C105.888 82.6155 105.439 81.9436 104.873 81.3777C104.307 80.8119 103.635 80.363 102.895 80.0569C102.156 79.7508 101.363 79.5934 100.563 79.5938Z" fill="white"/>
<path d="M21.415 142.433V145.174C21.415 145.575 21.5199 145.873 21.7295 146.069C21.9391 146.265 22.2399 146.363 22.6318 146.363C23.0693 146.363 23.4704 146.304 23.835 146.186C24.2041 146.067 24.5755 145.908 24.9492 145.707V142.433H26.5557V150H24.9492V146.801C24.571 147.024 24.1768 147.211 23.7666 147.361C23.3564 147.512 22.8757 147.587 22.3242 147.587C21.5404 147.587 20.9251 147.384 20.4785 146.979C20.0319 146.573 19.8086 145.994 19.8086 145.242V142.433H21.415ZM34.5674 143.697H32.0791V150H30.4795V143.697H28.0049V142.433H34.5674V143.697ZM42.7295 146.199C42.7295 146.828 42.6475 147.386 42.4834 147.874C42.3193 148.362 42.0801 148.774 41.7656 149.111C41.4512 149.444 41.0729 149.699 40.6309 149.877C40.1888 150.05 39.6898 150.137 39.1338 150.137C38.6143 150.137 38.138 150.05 37.7051 149.877C37.2721 149.699 36.8962 149.444 36.5771 149.111C36.2627 148.774 36.0189 148.362 35.8457 147.874C35.6725 147.386 35.5859 146.828 35.5859 146.199C35.5859 145.365 35.7295 144.659 36.0166 144.08C36.3083 143.497 36.723 143.052 37.2607 142.747C37.7985 142.442 38.4388 142.289 39.1816 142.289C39.8789 142.289 40.4941 142.442 41.0273 142.747C41.5605 143.052 41.9775 143.497 42.2783 144.08C42.5791 144.663 42.7295 145.37 42.7295 146.199ZM37.2402 146.199C37.2402 146.751 37.3063 147.222 37.4385 147.614C37.5752 148.006 37.7848 148.307 38.0674 148.517C38.3499 148.722 38.7145 148.824 39.1611 148.824C39.6077 148.824 39.9723 148.722 40.2549 148.517C40.5374 148.307 40.7448 148.006 40.877 147.614C41.0091 147.222 41.0752 146.751 41.0752 146.199C41.0752 145.648 41.0091 145.181 40.877 144.798C40.7448 144.41 40.5374 144.117 40.2549 143.916C39.9723 143.711 39.6055 143.608 39.1543 143.608C38.4889 143.608 38.0036 143.832 37.6982 144.278C37.3929 144.725 37.2402 145.365 37.2402 146.199ZM44.1445 145.461C44.1445 144.363 44.2653 143.428 44.5068 142.658C44.7484 141.888 45.1289 141.271 45.6484 140.806C46.168 140.341 46.8424 140.024 47.6719 139.855C48.2096 139.732 48.7565 139.628 49.3125 139.541C49.8685 139.454 50.4245 139.37 50.9805 139.288L51.1992 140.703C50.9395 140.735 50.6615 140.774 50.3652 140.819C50.069 140.86 49.7705 140.904 49.4697 140.949C49.1735 140.995 48.8887 141.043 48.6152 141.093C48.3464 141.138 48.1048 141.184 47.8906 141.229C47.4622 141.321 47.0999 141.471 46.8037 141.681C46.512 141.886 46.2842 142.187 46.1201 142.583C45.9561 142.979 45.8581 143.508 45.8262 144.169H45.915C46.0381 143.982 46.209 143.795 46.4277 143.608C46.6465 143.422 46.9108 143.267 47.2207 143.144C47.5352 143.016 47.8929 142.952 48.2939 142.952C48.9229 142.952 49.4561 143.084 49.8936 143.349C50.3356 143.613 50.6706 143.996 50.8984 144.497C51.1309 144.998 51.2471 145.602 51.2471 146.309C51.2471 147.152 51.0967 147.858 50.7959 148.428C50.4997 148.993 50.085 149.419 49.5518 149.706C49.0186 149.993 48.3965 150.137 47.6855 150.137C47.1387 150.137 46.6465 150.034 46.209 149.829C45.776 149.624 45.4046 149.323 45.0947 148.927C44.7894 148.526 44.5547 148.036 44.3906 147.457C44.2266 146.874 44.1445 146.208 44.1445 145.461ZM47.7949 148.817C48.1595 148.817 48.474 148.74 48.7383 148.585C49.0072 148.43 49.2145 148.179 49.3604 147.833C49.5107 147.487 49.5859 147.029 49.5859 146.459C49.5859 145.757 49.4583 145.206 49.2031 144.805C48.9525 144.399 48.5378 144.196 47.959 144.196C47.6035 144.196 47.2777 144.276 46.9814 144.436C46.6852 144.595 46.4346 144.782 46.2295 144.996C46.0244 145.206 45.8786 145.39 45.792 145.55C45.792 145.965 45.8216 146.366 45.8809 146.753C45.9447 147.14 46.0495 147.491 46.1953 147.806C46.3457 148.116 46.5508 148.362 46.8105 148.544C47.0703 148.726 47.3984 148.817 47.7949 148.817ZM53.0928 150V142.433H54.7061V145.454H56.2305C56.9414 145.454 57.527 145.536 57.9873 145.7C58.4476 145.86 58.7894 146.101 59.0127 146.425C59.236 146.748 59.3477 147.154 59.3477 147.642C59.3477 148.12 59.2406 148.537 59.0264 148.893C58.8122 149.243 58.4772 149.517 58.0215 149.713C57.5658 149.904 56.9688 150 56.2305 150H53.0928ZM54.7061 148.817H56.1211C56.6042 148.817 56.9938 148.731 57.29 148.558C57.5908 148.38 57.7412 148.088 57.7412 147.683C57.7412 147.304 57.6022 147.038 57.3242 146.883C57.0508 146.723 56.6497 146.644 56.1211 146.644H54.7061V148.817ZM60.5166 150V142.433H62.1299V150H60.5166ZM74.6738 142.433V150H73.0537V143.704H69.6768V150H68.0635V142.433H74.6738ZM83.6768 146.199C83.6768 146.828 83.5947 147.386 83.4307 147.874C83.2666 148.362 83.0273 148.774 82.7129 149.111C82.3984 149.444 82.0202 149.699 81.5781 149.877C81.1361 150.05 80.637 150.137 80.0811 150.137C79.5615 150.137 79.0853 150.05 78.6523 149.877C78.2194 149.699 77.8434 149.444 77.5244 149.111C77.21 148.774 76.9661 148.362 76.793 147.874C76.6198 147.386 76.5332 146.828 76.5332 146.199C76.5332 145.365 76.6768 144.659 76.9639 144.08C77.2555 143.497 77.6702 143.052 78.208 142.747C78.7458 142.442 79.3861 142.289 80.1289 142.289C80.8262 142.289 81.4414 142.442 81.9746 142.747C82.5078 143.052 82.9248 143.497 83.2256 144.08C83.5264 144.663 83.6768 145.37 83.6768 146.199ZM78.1875 146.199C78.1875 146.751 78.2536 147.222 78.3857 147.614C78.5225 148.006 78.7321 148.307 79.0146 148.517C79.2972 148.722 79.6618 148.824 80.1084 148.824C80.555 148.824 80.9196 148.722 81.2021 148.517C81.4847 148.307 81.6921 148.006 81.8242 147.614C81.9564 147.222 82.0225 146.751 82.0225 146.199C82.0225 145.648 81.9564 145.181 81.8242 144.798C81.6921 144.41 81.4847 144.117 81.2021 143.916C80.9196 143.711 80.5527 143.608 80.1016 143.608C79.4362 143.608 78.9508 143.832 78.6455 144.278C78.3402 144.725 78.1875 145.365 78.1875 146.199ZM88.5713 150.137C87.8558 150.137 87.236 149.998 86.7119 149.72C86.1878 149.442 85.7845 149.016 85.502 148.441C85.2194 147.867 85.0781 147.138 85.0781 146.254C85.0781 145.333 85.2331 144.581 85.543 143.998C85.8529 143.415 86.2812 142.984 86.8281 142.706C87.3796 142.428 88.0107 142.289 88.7217 142.289C89.1729 142.289 89.5807 142.335 89.9453 142.426C90.3145 142.512 90.6266 142.619 90.8818 142.747L90.4033 144.032C90.1253 143.918 89.8405 143.823 89.5488 143.745C89.2572 143.668 88.9769 143.629 88.708 143.629C88.266 143.629 87.8968 143.727 87.6006 143.923C87.3089 144.119 87.0902 144.41 86.9443 144.798C86.8031 145.185 86.7324 145.666 86.7324 146.24C86.7324 146.796 86.8053 147.266 86.9512 147.648C87.097 148.027 87.3135 148.314 87.6006 148.51C87.8877 148.701 88.2409 148.797 88.6602 148.797C89.0749 148.797 89.4463 148.747 89.7744 148.646C90.1025 148.546 90.4124 148.416 90.7041 148.257V149.651C90.417 149.815 90.1094 149.936 89.7812 150.014C89.4531 150.096 89.0498 150.137 88.5713 150.137ZM101.252 142.433V150H99.7617V145.68C99.7617 145.397 99.7686 145.115 99.7822 144.832C99.7959 144.549 99.8141 144.281 99.8369 144.025H99.7959L97.4922 150H96.2275L93.9443 144.019H93.8965C93.9193 144.278 93.9352 144.547 93.9443 144.825C93.958 145.103 93.9648 145.404 93.9648 145.728V150H92.4746V142.433H94.7168L96.877 148.086L99.0713 142.433H101.252ZM110.228 146.199C110.228 146.828 110.146 147.386 109.981 147.874C109.817 148.362 109.578 148.774 109.264 149.111C108.949 149.444 108.571 149.699 108.129 149.877C107.687 150.05 107.188 150.137 106.632 150.137C106.112 150.137 105.636 150.05 105.203 149.877C104.77 149.699 104.394 149.444 104.075 149.111C103.761 148.774 103.517 148.362 103.344 147.874C103.171 147.386 103.084 146.828 103.084 146.199C103.084 145.365 103.228 144.659 103.515 144.08C103.806 143.497 104.221 143.052 104.759 142.747C105.297 142.442 105.937 142.289 106.68 142.289C107.377 142.289 107.992 142.442 108.525 142.747C109.059 143.052 109.476 143.497 109.776 144.08C110.077 144.663 110.228 145.37 110.228 146.199ZM104.738 146.199C104.738 146.751 104.804 147.222 104.937 147.614C105.073 148.006 105.283 148.307 105.565 148.517C105.848 148.722 106.213 148.824 106.659 148.824C107.106 148.824 107.47 148.722 107.753 148.517C108.035 148.307 108.243 148.006 108.375 147.614C108.507 147.222 108.573 146.751 108.573 146.199C108.573 145.648 108.507 145.181 108.375 144.798C108.243 144.41 108.035 144.117 107.753 143.916C107.47 143.711 107.104 143.608 106.652 143.608C105.987 143.608 105.502 143.832 105.196 144.278C104.891 144.725 104.738 145.365 104.738 146.199ZM117.788 143.697H115.3V150H113.7V143.697H111.226V142.433H117.788V143.697ZM123.134 142.289C124.032 142.289 124.752 142.617 125.294 143.273C125.841 143.93 126.114 144.905 126.114 146.199C126.114 147.056 125.987 147.778 125.731 148.366C125.481 148.95 125.128 149.392 124.672 149.692C124.221 149.989 123.694 150.137 123.093 150.137C122.71 150.137 122.377 150.087 122.095 149.986C121.812 149.886 121.571 149.756 121.37 149.597C121.17 149.433 121.001 149.255 120.864 149.063H120.769C120.791 149.246 120.812 149.449 120.83 149.672C120.853 149.891 120.864 150.091 120.864 150.273V153.356H119.251V142.433H120.563L120.789 143.479H120.864C121.006 143.264 121.176 143.066 121.377 142.884C121.582 142.701 121.828 142.558 122.115 142.453C122.407 142.344 122.746 142.289 123.134 142.289ZM122.703 143.602C122.261 143.602 121.906 143.69 121.637 143.868C121.372 144.041 121.179 144.303 121.056 144.654C120.937 145.005 120.873 145.445 120.864 145.974V146.199C120.864 146.76 120.921 147.236 121.035 147.628C121.154 148.015 121.347 148.312 121.616 148.517C121.89 148.717 122.259 148.817 122.724 148.817C123.116 148.817 123.439 148.71 123.694 148.496C123.954 148.282 124.148 147.977 124.275 147.58C124.403 147.184 124.467 146.716 124.467 146.179C124.467 145.363 124.321 144.729 124.029 144.278C123.742 143.827 123.3 143.602 122.703 143.602ZM130.988 142.289C131.663 142.289 132.242 142.428 132.725 142.706C133.208 142.984 133.579 143.378 133.839 143.889C134.099 144.399 134.229 145.01 134.229 145.721V146.582H129.177C129.195 147.316 129.391 147.881 129.765 148.277C130.143 148.674 130.672 148.872 131.351 148.872C131.834 148.872 132.267 148.826 132.649 148.735C133.037 148.64 133.436 148.501 133.846 148.318V149.624C133.467 149.802 133.082 149.932 132.69 150.014C132.299 150.096 131.829 150.137 131.282 150.137C130.539 150.137 129.885 149.993 129.32 149.706C128.76 149.414 128.32 148.981 128.001 148.407C127.687 147.833 127.529 147.12 127.529 146.268C127.529 145.42 127.673 144.7 127.96 144.107C128.247 143.515 128.65 143.064 129.17 142.754C129.689 142.444 130.296 142.289 130.988 142.289ZM130.988 143.499C130.482 143.499 130.072 143.663 129.758 143.991C129.448 144.319 129.266 144.8 129.211 145.434H132.656C132.652 145.055 132.588 144.72 132.465 144.429C132.346 144.137 132.164 143.909 131.918 143.745C131.676 143.581 131.367 143.499 130.988 143.499ZM141.755 143.697H139.267V150H137.667V143.697H135.192V142.433H141.755V143.697ZM144.831 145.454H146.711C147.422 145.454 148.01 145.536 148.475 145.7C148.944 145.86 149.295 146.101 149.527 146.425C149.76 146.748 149.876 147.154 149.876 147.642C149.876 148.12 149.767 148.537 149.548 148.893C149.329 149.243 148.987 149.517 148.522 149.713C148.062 149.904 147.461 150 146.718 150H143.218V142.433H144.831V145.454ZM148.263 147.683C148.263 147.304 148.121 147.038 147.839 146.883C147.556 146.723 147.153 146.644 146.629 146.644H144.831V148.817H146.643C147.121 148.817 147.511 148.731 147.812 148.558C148.112 148.38 148.263 148.088 148.263 147.683ZM55.6973 162.433V170H54.0771V163.704H50.7002V170H49.0869V162.433H55.6973ZM64.7002 166.199C64.7002 166.828 64.6182 167.386 64.4541 167.874C64.29 168.362 64.0508 168.774 63.7363 169.111C63.4219 169.444 63.0436 169.699 62.6016 169.877C62.1595 170.05 61.6605 170.137 61.1045 170.137C60.585 170.137 60.1087 170.05 59.6758 169.877C59.2428 169.699 58.8669 169.444 58.5479 169.111C58.2334 168.774 57.9896 168.362 57.8164 167.874C57.6432 167.386 57.5566 166.828 57.5566 166.199C57.5566 165.365 57.7002 164.659 57.9873 164.08C58.279 163.497 58.6937 163.052 59.2314 162.747C59.7692 162.442 60.4095 162.289 61.1523 162.289C61.8496 162.289 62.4648 162.442 62.998 162.747C63.5312 163.052 63.9482 163.497 64.249 164.08C64.5498 164.663 64.7002 165.37 64.7002 166.199ZM59.2109 166.199C59.2109 166.751 59.277 167.222 59.4092 167.614C59.5459 168.006 59.7555 168.307 60.0381 168.517C60.3206 168.722 60.6852 168.824 61.1318 168.824C61.5785 168.824 61.943 168.722 62.2256 168.517C62.5081 168.307 62.7155 168.006 62.8477 167.614C62.9798 167.222 63.0459 166.751 63.0459 166.199C63.0459 165.648 62.9798 165.181 62.8477 164.798C62.7155 164.41 62.5081 164.117 62.2256 163.916C61.943 163.711 61.5762 163.608 61.125 163.608C60.4596 163.608 59.9743 163.832 59.6689 164.278C59.3636 164.725 59.2109 165.365 59.2109 166.199ZM72.7256 162.433V168.756H73.8193V172.666H72.3359V170H67.1133V172.666H65.6299V168.756H66.2451C66.6279 168.2 66.9469 167.58 67.2021 166.896C67.4619 166.213 67.6624 165.493 67.8037 164.736C67.9495 163.975 68.0407 163.207 68.0771 162.433H72.7256ZM71.1328 163.663H69.458C69.4033 164.278 69.3099 164.891 69.1777 165.502C69.0456 166.108 68.8747 166.689 68.665 167.245C68.46 167.797 68.2139 168.3 67.9268 168.756H71.1328V163.663ZM79.1104 162.289C80.0081 162.289 80.7282 162.617 81.2705 163.273C81.8174 163.93 82.0908 164.905 82.0908 166.199C82.0908 167.056 81.9632 167.778 81.708 168.366C81.4574 168.95 81.1042 169.392 80.6484 169.692C80.1973 169.989 79.6709 170.137 79.0693 170.137C78.6865 170.137 78.3538 170.087 78.0713 169.986C77.7887 169.886 77.5472 169.756 77.3467 169.597C77.1462 169.433 76.9775 169.255 76.8408 169.063H76.7451C76.7679 169.246 76.7884 169.449 76.8066 169.672C76.8294 169.891 76.8408 170.091 76.8408 170.273V173.356H75.2275V162.433H76.54L76.7656 163.479H76.8408C76.9821 163.264 77.153 163.066 77.3535 162.884C77.5586 162.701 77.8047 162.558 78.0918 162.453C78.3835 162.344 78.723 162.289 79.1104 162.289ZM78.6797 163.602C78.2376 163.602 77.8822 163.69 77.6133 163.868C77.349 164.041 77.1553 164.303 77.0322 164.654C76.9137 165.005 76.8499 165.445 76.8408 165.974V166.199C76.8408 166.76 76.8978 167.236 77.0117 167.628C77.1302 168.015 77.3239 168.312 77.5928 168.517C77.8662 168.717 78.2354 168.817 78.7002 168.817C79.0921 168.817 79.4157 168.71 79.6709 168.496C79.9307 168.282 80.1243 167.977 80.252 167.58C80.3796 167.184 80.4434 166.716 80.4434 166.179C80.4434 165.363 80.2975 164.729 80.0059 164.278C79.7188 163.827 79.2767 163.602 78.6797 163.602ZM90.6494 166.199C90.6494 166.828 90.5674 167.386 90.4033 167.874C90.2393 168.362 90 168.774 89.6855 169.111C89.3711 169.444 88.9928 169.699 88.5508 169.877C88.1087 170.05 87.6097 170.137 87.0537 170.137C86.5342 170.137 86.0579 170.05 85.625 169.877C85.1921 169.699 84.8161 169.444 84.4971 169.111C84.1826 168.774 83.9388 168.362 83.7656 167.874C83.5924 167.386 83.5059 166.828 83.5059 166.199C83.5059 165.365 83.6494 164.659 83.9365 164.08C84.2282 163.497 84.6429 163.052 85.1807 162.747C85.7184 162.442 86.3587 162.289 87.1016 162.289C87.7988 162.289 88.4141 162.442 88.9473 162.747C89.4805 163.052 89.8975 163.497 90.1982 164.08C90.499 164.663 90.6494 165.37 90.6494 166.199ZM85.1602 166.199C85.1602 166.751 85.2262 167.222 85.3584 167.614C85.4951 168.006 85.7048 168.307 85.9873 168.517C86.2699 168.722 86.6344 168.824 87.0811 168.824C87.5277 168.824 87.8923 168.722 88.1748 168.517C88.4574 168.307 88.6647 168.006 88.7969 167.614C88.929 167.222 88.9951 166.751 88.9951 166.199C88.9951 165.648 88.929 165.181 88.7969 164.798C88.6647 164.41 88.4574 164.117 88.1748 163.916C87.8923 163.711 87.5254 163.608 87.0742 163.608C86.4089 163.608 85.9235 163.832 85.6182 164.278C85.3128 164.725 85.1602 165.365 85.1602 166.199ZM92.0645 165.461C92.0645 164.363 92.1852 163.428 92.4268 162.658C92.6683 161.888 93.0488 161.271 93.5684 160.806C94.0879 160.341 94.7624 160.024 95.5918 159.855C96.1296 159.732 96.6764 159.628 97.2324 159.541C97.7884 159.454 98.3444 159.37 98.9004 159.288L99.1191 160.703C98.8594 160.735 98.5814 160.774 98.2852 160.819C97.9889 160.86 97.6904 160.904 97.3896 160.949C97.0934 160.995 96.8086 161.043 96.5352 161.093C96.2663 161.138 96.0247 161.184 95.8105 161.229C95.3822 161.321 95.0199 161.471 94.7236 161.681C94.432 161.886 94.2041 162.187 94.04 162.583C93.876 162.979 93.778 163.508 93.7461 164.169H93.835C93.958 163.982 94.1289 163.795 94.3477 163.608C94.5664 163.422 94.8307 163.267 95.1406 163.144C95.4551 163.016 95.8128 162.952 96.2139 162.952C96.8428 162.952 97.376 163.084 97.8135 163.349C98.2555 163.613 98.5905 163.996 98.8184 164.497C99.0508 164.998 99.167 165.602 99.167 166.309C99.167 167.152 99.0166 167.858 98.7158 168.428C98.4196 168.993 98.0049 169.419 97.4717 169.706C96.9385 169.993 96.3164 170.137 95.6055 170.137C95.0586 170.137 94.5664 170.034 94.1289 169.829C93.696 169.624 93.3245 169.323 93.0146 168.927C92.7093 168.526 92.4746 168.036 92.3105 167.457C92.1465 166.874 92.0645 166.208 92.0645 165.461ZM95.7148 168.817C96.0794 168.817 96.3939 168.74 96.6582 168.585C96.9271 168.43 97.1344 168.179 97.2803 167.833C97.4307 167.487 97.5059 167.029 97.5059 166.459C97.5059 165.757 97.3783 165.206 97.123 164.805C96.8724 164.399 96.4577 164.196 95.8789 164.196C95.5234 164.196 95.1976 164.276 94.9014 164.436C94.6051 164.595 94.3545 164.782 94.1494 164.996C93.9443 165.206 93.7985 165.39 93.7119 165.55C93.7119 165.965 93.7415 166.366 93.8008 166.753C93.8646 167.14 93.9694 167.491 94.1152 167.806C94.2656 168.116 94.4707 168.362 94.7305 168.544C94.9902 168.726 95.3184 168.817 95.7148 168.817ZM102.626 162.433V165.475H106.167V162.433H107.78V170H106.167V166.732H102.626V170H101.013V162.433H102.626ZM113.092 162.289C113.766 162.289 114.345 162.428 114.828 162.706C115.311 162.984 115.683 163.378 115.942 163.889C116.202 164.399 116.332 165.01 116.332 165.721V166.582H111.28C111.299 167.316 111.494 167.881 111.868 168.277C112.246 168.674 112.775 168.872 113.454 168.872C113.937 168.872 114.37 168.826 114.753 168.735C115.14 168.64 115.539 168.501 115.949 168.318V169.624C115.571 169.802 115.186 169.932 114.794 170.014C114.402 170.096 113.933 170.137 113.386 170.137C112.643 170.137 111.989 169.993 111.424 169.706C110.863 169.414 110.424 168.981 110.104 168.407C109.79 167.833 109.633 167.12 109.633 166.268C109.633 165.42 109.776 164.7 110.063 164.107C110.351 163.515 110.754 163.064 111.273 162.754C111.793 162.444 112.399 162.289 113.092 162.289ZM113.092 163.499C112.586 163.499 112.176 163.663 111.861 163.991C111.551 164.319 111.369 164.8 111.314 165.434H114.76C114.755 165.055 114.691 164.72 114.568 164.429C114.45 164.137 114.268 163.909 114.021 163.745C113.78 163.581 113.47 163.499 113.092 163.499ZM121.158 162.289C121.833 162.289 122.411 162.428 122.895 162.706C123.378 162.984 123.749 163.378 124.009 163.889C124.269 164.399 124.398 165.01 124.398 165.721V166.582H119.347C119.365 167.316 119.561 167.881 119.935 168.277C120.313 168.674 120.841 168.872 121.521 168.872C122.004 168.872 122.437 168.826 122.819 168.735C123.207 168.64 123.605 168.501 124.016 168.318V169.624C123.637 169.802 123.252 169.932 122.86 170.014C122.468 170.096 121.999 170.137 121.452 170.137C120.709 170.137 120.055 169.993 119.49 169.706C118.93 169.414 118.49 168.981 118.171 168.407C117.856 167.833 117.699 167.12 117.699 166.268C117.699 165.42 117.843 164.7 118.13 164.107C118.417 163.515 118.82 163.064 119.34 162.754C119.859 162.444 120.465 162.289 121.158 162.289ZM121.158 163.499C120.652 163.499 120.242 163.663 119.928 163.991C119.618 164.319 119.436 164.8 119.381 165.434H122.826C122.822 165.055 122.758 164.72 122.635 164.429C122.516 164.137 122.334 163.909 122.088 163.745C121.846 163.581 121.536 163.499 121.158 163.499Z" fill="white"/>
</g>
<defs>
<filter id="filter0_d_476_2928" x="0" y="-5" width="173" height="192" filterUnits="userSpaceOnUse" color-interpolation-filters="sRGB">
<feFlood flood-opacity="0" result="BackgroundImageFix"/>
<feColorMatrix in="SourceAlpha" type="matrix" values="0 0 0 0 0 0 0 0 0 0 0 0 0 0 0 0 0 0 127 0" result="hardAlpha"/>
<feOffset/>
<feGaussianBlur stdDeviation="6"/>
<feColorMatrix type="matrix" values="0 0 0 0 0 0 0 0 0 0 0 0 0 0 0 0 0 0 0.25 0"/>
<feBlend mode="normal" in2="BackgroundImageFix" result="effect1_dropShadow_476_2928"/>
<feBlend mode="normal" in="SourceGraphic" in2="effect1_dropShadow_476_2928" result="shape"/>
</filter>
</defs>
</svg>
