<svg width="281" height="214" viewBox="0 0 281 214" fill="none" xmlns="http://www.w3.org/2000/svg">
<path d="M103.291 208.485C118.148 217.44 128.747 213.723 132.804 206.542C140.651 192.655 166.742 164.258 208.087 154.66C262.848 141.948 251.412 108.196 217.748 90.4843C184.085 72.7726 158.914 48.2652 162.724 21.6178C166.534 -5.02971 128.788 -14.2159 112.002 37.0448C101.155 70.1714 81.7151 79.0462 69.319 81.1795C57.6358 83.19 44.8559 85.7127 38.6238 95.7972C31.0616 108.033 33.7005 120.411 65.3619 128.9C110.229 140.93 69.9911 188.413 103.291 208.485Z" fill="#EEF1F7"/>
<path d="M64.6905 150.424C65.3193 150.064 72.4156 147.06 107.719 163.518C107.616 163.658 107.572 163.724 107.572 163.724C107.572 163.724 70.8711 176.084 63.6803 160.858C61.533 156.325 62.1483 153.203 64.6292 150.459L64.6905 150.424Z" fill="#738BBF" stroke="#333333"/>
<path d="M183.347 156.652C175.677 163.1 163.649 167.78 152.043 161.557C153.877 160.385 155.771 159.178 157.703 157.929C169.358 150.44 179.625 155.451 183.347 156.652Z" fill="#738BBF" stroke="#333333"/>
<path d="M197.394 77.0501C205.231 142.302 186.608 154.144 184.535 155.943C183.935 156.464 183.691 156.426 182.784 156.193L182.769 156.201C178.928 155.183 169.668 150.141 158.012 157.629C156.08 158.878 154.185 160.085 152.352 161.257C140.462 168.798 130.86 174.112 123.942 171.028C118.075 168.035 112.784 165.444 108.028 163.219C72.7251 146.761 65.6287 149.765 65 150.125C65.7295 149.728 72.422 146.018 81.4332 139.495C81.4639 139.477 81.4945 139.459 81.5011 139.435C93.5459 130.706 109.676 116.951 121.271 99.2554C128.188 88.7098 129.539 68.1878 144.56 55.5562C148.991 51.8295 154.526 49.6166 160.236 48.6549C184.345 44.5939 195.355 60.072 197.394 77.0501Z" fill="#96A8CF" stroke="#333333"/>
<path d="M171.115 88.5533C170.957 88.5731 170.796 88.5382 170.661 88.4543C170.525 88.3704 170.422 88.2425 170.368 88.0919C170.147 87.7235 169.959 86.2354 168.509 85.8217C167.353 85.5565 166.087 86.4325 165.457 87.0221C165.321 87.149 165.141 87.2169 164.955 87.2108C164.77 87.2046 164.594 87.125 164.467 86.9895C164.34 86.854 164.273 86.6736 164.279 86.488C164.285 86.3024 164.364 86.1269 164.5 86C164.748 85.7677 166.576 84.115 168.717 84.4372C170.942 84.7721 171.583 87.3287 171.688 87.6251C171.71 87.6873 171.735 87.829 171.724 87.933C171.713 88.0371 171.679 88.1373 171.624 88.2264C171.569 88.3154 171.495 88.391 171.407 88.4476C171.319 88.5042 171.219 88.5403 171.115 88.5533Z" fill="#333333"/>
<circle cx="180.5" cy="78.5" r="2.5" fill="#333333"/>
<circle cx="161.5" cy="74.5" r="2.5" fill="#333333"/>
</svg>
