<svg width="24" height="24" viewBox="0 0 24 24" fill="none" xmlns="http://www.w3.org/2000/svg">
<path d="M9.8956 14.8958L9.89571 14.8957L11.7207 13.0707L11.8914 12.9H11.65H4C3.74191 12.9 3.53007 12.8136 3.35771 12.6413C3.18537 12.4689 3.0994 12.2575 3.1 12.0002V12C3.1 11.7419 3.18636 11.5301 3.35871 11.3577C3.53106 11.1854 3.74249 11.0994 3.99977 11.1H4H11.65H11.8914L11.7207 10.9293L9.87071 9.07929C9.6889 8.89747 9.6 8.68502 9.6 8.437C9.6 8.189 9.68888 7.97694 9.8706 7.79583L9.87071 7.79571C10.0525 7.61389 10.265 7.525 10.513 7.525C10.761 7.525 10.9731 7.61388 11.1542 7.79559L11.1543 7.79571L14.7293 11.3707C14.8203 11.4618 14.8826 11.5579 14.9189 11.6589C14.9567 11.7637 14.9756 11.877 14.975 11.9995V12C14.975 12.1228 14.956 12.2365 14.9187 12.3416C14.8831 12.4422 14.8211 12.5381 14.7295 12.6291L14.7293 12.6293L11.1293 16.2293C10.9659 16.3927 10.7629 16.475 10.513 16.475C10.2658 16.475 10.0533 16.3862 9.87071 16.2043C9.69021 16.0238 9.60474 15.8087 9.61196 15.5528C9.61924 15.2951 9.71307 15.0777 9.8956 14.8958ZM3.1 19.0001V19V16C3.1 15.7419 3.18636 15.5301 3.35871 15.3577C3.53106 15.1854 3.74249 15.0994 3.99977 15.1H4C4.2581 15.1 4.46994 15.1864 4.64229 15.3587C4.81464 15.5311 4.90061 15.7425 4.9 15.9998V16V19V19.1H5H19H19.1V19V5V4.9H19H5H4.9V5V8C4.9 8.2581 4.81365 8.46993 4.64129 8.64229C4.46895 8.81464 4.25752 8.90061 4.00024 8.9H4C3.74191 8.9 3.53007 8.81365 3.35771 8.64129C3.18537 8.46895 3.0994 8.25752 3.1 8.00024V8V5C3.1 4.47676 3.2853 4.03113 3.65871 3.65771C4.03212 3.2843 4.47739 3.09937 4.99988 3.1H5H19C19.5232 3.1 19.9689 3.2853 20.3423 3.65871C20.7157 4.03212 20.9006 4.47738 20.9 4.99988V5V19C20.9 19.5232 20.7147 19.9689 20.3413 20.3423C19.9679 20.7157 19.5226 20.9006 19.0001 20.9H19H5C4.47676 20.9 4.03113 20.7147 3.65771 20.3413C3.2843 19.9679 3.09937 19.5226 3.1 19.0001ZM4 9C3.71667 9 3.479 8.904 3.287 8.712C3.095 8.52 2.99934 8.28267 3 8V5C3 4.45 3.196 3.979 3.588 3.587C3.98 3.195 4.45067 2.99934 5 3L4 9ZM19 19V18.9L21 19C21 19.55 20.804 20.021 20.412 20.413C20.02 20.805 19.5493 21.0007 19 21H5C4.45 21 3.979 20.804 3.587 20.412C3.195 20.02 2.99934 19.5493 3 19V16C3 15.7167 3.096 15.479 3.288 15.287C3.48 15.095 3.71734 14.9993 4 15C4.28334 15 4.521 15.096 4.713 15.288C4.905 15.48 5.00067 15.7173 5 16V18.9V19H5.1H18.9H19Z" fill="#E54544" stroke="white" stroke-width="0.2"/>
</svg>
