<svg width="24" height="24" viewBox="0 0 24 24" fill="none" xmlns="http://www.w3.org/2000/svg">
<path d="M8.66667 6.81482C8.66667 5.93076 9.01786 5.08291 9.64298 4.45779C10.2681 3.83267 11.116 3.48148 12 3.48148C12.8841 3.48148 13.7319 3.83267 14.357 4.45779C14.9822 5.08291 15.3333 5.93076 15.3333 6.81482C15.3333 7.69887 14.9822 8.54672 14.357 9.17184C13.7319 9.79696 12.8841 10.1481 12 10.1481C11.116 10.1481 10.2681 9.79696 9.64298 9.17184C9.01786 8.54672 8.66667 7.69887 8.66667 6.81482ZM12 2C10.723 2 9.49837 2.50727 8.59542 3.41023C7.69247 4.31318 7.18519 5.53785 7.18519 6.81482C7.18519 8.09178 7.69247 9.31645 8.59542 10.2194C9.49837 11.1224 10.723 11.6296 12 11.6296C13.277 11.6296 14.5016 11.1224 15.4046 10.2194C16.3075 9.31645 16.8148 8.09178 16.8148 6.81482C16.8148 5.53785 16.3075 4.31318 15.4046 3.41023C14.5016 2.50727 13.277 2 12 2ZM4.22223 16.0741C4.22223 15.2882 4.5344 14.5346 5.09006 13.9789C5.64572 13.4233 6.39937 13.1111 7.18519 13.1111H16.8148C17.6006 13.1111 18.3543 13.4233 18.91 13.9789C19.4656 14.5346 19.7778 15.2882 19.7778 16.0741V16.1985C19.7778 16.2133 19.7778 16.2326 19.7748 16.2578C19.7568 16.5511 19.7147 16.8425 19.6489 17.1289C19.523 17.6741 19.2726 18.403 18.7674 19.1348C17.7289 20.637 15.723 22 12 22C8.27704 22 6.27112 20.637 5.2326 19.1348C4.68567 18.3382 4.34465 17.4184 4.24001 16.4578C4.23115 16.3716 4.22522 16.2851 4.22223 16.1985V16.0741ZM5.70371 16.163V16.1896L5.71408 16.3126C5.79435 17.0228 6.04769 17.7024 6.45186 18.2919C7.17334 19.3348 8.68593 20.5185 12 20.5185C15.3141 20.5185 16.8267 19.3348 17.5482 18.2919C17.9524 17.7025 18.2058 17.0228 18.2859 16.3126C18.2908 16.2718 18.2938 16.2307 18.2948 16.1896L18.2963 16.1644V16.0741C18.2963 15.6812 18.1402 15.3043 17.8624 15.0265C17.5846 14.7487 17.2077 14.5926 16.8148 14.5926H7.18519C6.79228 14.5926 6.41546 14.7487 6.13763 15.0265C5.85979 15.3043 5.70371 15.6812 5.70371 16.0741V16.163Z" fill="#333333"/>
</svg>
