<svg width="175" height="187" viewBox="0 0 175 187" fill="none" xmlns="http://www.w3.org/2000/svg">
<g filter="url(#filter0_d_476_2933)">
<path d="M26.8584 14.2568C26.3799 14.2568 25.9515 14.3434 25.5732 14.5166C25.1995 14.6898 24.8828 14.9404 24.623 15.2686C24.3633 15.5921 24.165 15.9863 24.0283 16.4512C23.8916 16.9115 23.8232 17.431 23.8232 18.0098C23.8232 18.7845 23.9326 19.4521 24.1514 20.0127C24.3701 20.5687 24.7028 20.9971 25.1494 21.2979C25.596 21.5941 26.1611 21.7422 26.8447 21.7422C27.2686 21.7422 27.681 21.7012 28.082 21.6191C28.4831 21.5371 28.8978 21.4255 29.3262 21.2842V22.6787C28.9206 22.8382 28.5104 22.9544 28.0957 23.0273C27.681 23.1003 27.2025 23.1367 26.6602 23.1367C25.6393 23.1367 24.7917 22.9248 24.1172 22.501C23.4473 22.0771 22.946 21.4801 22.6133 20.71C22.2852 19.9398 22.1211 19.0374 22.1211 18.0029C22.1211 17.2464 22.2259 16.5537 22.4355 15.9248C22.6452 15.2959 22.9505 14.7536 23.3516 14.2979C23.7526 13.8376 24.2471 13.4844 24.835 13.2383C25.4274 12.9876 26.1042 12.8623 26.8652 12.8623C27.3665 12.8623 27.8587 12.9193 28.3418 13.0332C28.8294 13.1426 29.2806 13.2998 29.6953 13.5049L29.1211 14.8584C28.7747 14.6943 28.4124 14.5531 28.0342 14.4346C27.6559 14.3161 27.264 14.2568 26.8584 14.2568ZM37.6729 17.374C37.6729 17.8115 37.5384 18.1693 37.2695 18.4473C37.0052 18.7207 36.6406 18.9007 36.1758 18.9873V19.042C36.6725 19.1058 37.0872 19.2812 37.4199 19.5684C37.7526 19.8555 37.9189 20.2542 37.9189 20.7646C37.9189 21.1976 37.8096 21.5827 37.5908 21.9199C37.3766 22.2526 37.0348 22.5169 36.5654 22.7129C36.1006 22.9043 35.4922 23 34.7402 23H31.3086V15.4326H34.7266C35.2917 15.4326 35.7952 15.4941 36.2373 15.6172C36.6839 15.7402 37.0348 15.943 37.29 16.2256C37.5452 16.5081 37.6729 16.891 37.6729 17.374ZM36.2441 20.71C36.2441 20.3363 36.1006 20.0674 35.8135 19.9033C35.5309 19.7393 35.1162 19.6572 34.5693 19.6572H32.9219V21.8174H34.6035C35.1139 21.8174 35.515 21.7331 35.8066 21.5645C36.0983 21.3913 36.2441 21.1064 36.2441 20.71ZM36.0391 17.5176C36.0391 17.2214 35.9274 17.0026 35.7041 16.8613C35.4808 16.7155 35.1299 16.6426 34.6514 16.6426H32.9219V18.4746H34.4326C34.9613 18.4746 35.36 18.3994 35.6289 18.249C35.9023 18.0941 36.0391 17.8503 36.0391 17.5176ZM42.6973 15.2891C43.6543 15.2891 44.3766 15.501 44.8643 15.9248C45.3564 16.3486 45.6025 17.0094 45.6025 17.9072V23H44.4609L44.1533 21.9268H44.0986C43.8844 22.2002 43.6634 22.4258 43.4355 22.6035C43.2077 22.7812 42.9434 22.9134 42.6426 23C42.3464 23.0911 41.984 23.1367 41.5557 23.1367C41.1045 23.1367 40.7012 23.0547 40.3457 22.8906C39.9902 22.722 39.71 22.4668 39.5049 22.125C39.2998 21.7832 39.1973 21.3503 39.1973 20.8262C39.1973 20.0469 39.4867 19.4613 40.0654 19.0693C40.6488 18.6774 41.5283 18.4609 42.7041 18.4199L44.0166 18.3721V17.9756C44.0166 17.4515 43.8936 17.0778 43.6475 16.8545C43.4059 16.6312 43.0641 16.5195 42.6221 16.5195C42.2438 16.5195 41.877 16.5742 41.5215 16.6836C41.166 16.793 40.8197 16.9274 40.4824 17.0869L39.9629 15.9521C40.332 15.7562 40.7513 15.5967 41.2207 15.4736C41.6947 15.3506 42.1868 15.2891 42.6973 15.2891ZM44.0098 19.3838L43.0322 19.418C42.2301 19.4453 41.6673 19.582 41.3438 19.8281C41.0202 20.0742 40.8584 20.4115 40.8584 20.8398C40.8584 21.2135 40.9701 21.487 41.1934 21.6602C41.4167 21.8288 41.7106 21.9131 42.0752 21.9131C42.6312 21.9131 43.0915 21.7559 43.4561 21.4414C43.8252 21.1224 44.0098 20.6553 44.0098 20.04V19.3838ZM49.3965 15.4326V19.2949C49.3965 19.418 49.3919 19.5752 49.3828 19.7666C49.3783 19.9535 49.3691 20.1494 49.3555 20.3545C49.3418 20.555 49.3281 20.7396 49.3145 20.9082C49.3008 21.0768 49.2894 21.2021 49.2803 21.2842L53.0879 15.4326H55.043V23H53.5049V19.1787C53.5049 18.9782 53.5094 18.7458 53.5186 18.4814C53.5322 18.2171 53.5459 17.9619 53.5596 17.7158C53.5778 17.4697 53.5892 17.2829 53.5938 17.1553L49.7998 23H47.8516V15.4326H49.3965ZM54.4756 12.2471C54.43 12.7165 54.3024 13.1221 54.0928 13.4639C53.8877 13.8011 53.5755 14.0609 53.1562 14.2432C52.737 14.4255 52.1855 14.5166 51.502 14.5166C50.7956 14.5166 50.2373 14.43 49.8271 14.2568C49.417 14.0791 49.1208 13.8216 48.9385 13.4844C48.7562 13.1426 48.6468 12.7301 48.6104 12.2471H50.0732C50.1188 12.7529 50.251 13.0947 50.4697 13.2725C50.6885 13.4456 51.0417 13.5322 51.5293 13.5322C51.9486 13.5322 52.2835 13.4388 52.5342 13.252C52.7894 13.0651 52.9421 12.7301 52.9922 12.2471H54.4756ZM63.9639 15.4326V23H62.3438V16.7041H58.9668V23H57.3535V15.4326H63.9639ZM67.8809 15.4326V18.4746H71.4219V15.4326H73.0352V23H71.4219V19.7324H67.8809V23H66.2676V15.4326H67.8809ZM76.877 15.4326V19.2949C76.877 19.418 76.8724 19.5752 76.8633 19.7666C76.8587 19.9535 76.8496 20.1494 76.8359 20.3545C76.8223 20.555 76.8086 20.7396 76.7949 20.9082C76.7812 21.0768 76.7699 21.2021 76.7607 21.2842L80.5684 15.4326H82.5234V23H80.9854V19.1787C80.9854 18.9782 80.9899 18.7458 80.999 18.4814C81.0127 18.2171 81.0264 17.9619 81.04 17.7158C81.0583 17.4697 81.0697 17.2829 81.0742 17.1553L77.2803 23H75.332V15.4326H76.877ZM90.5488 16.6973H88.0605V23H86.4609V16.6973H83.9863V15.4326H90.5488V16.6973ZM95.0264 15.2891C95.7008 15.2891 96.2796 15.4281 96.7627 15.7061C97.2458 15.984 97.6172 16.3783 97.877 16.8887C98.1367 17.3991 98.2666 18.0098 98.2666 18.7207V19.582H93.2148C93.2331 20.3158 93.429 20.8809 93.8027 21.2773C94.181 21.6738 94.7096 21.8721 95.3887 21.8721C95.8717 21.8721 96.3047 21.8265 96.6875 21.7354C97.0749 21.6396 97.4736 21.5007 97.8838 21.3184V22.624C97.5055 22.8018 97.1204 22.9316 96.7285 23.0137C96.3366 23.0957 95.8672 23.1367 95.3203 23.1367C94.5775 23.1367 93.9235 22.9932 93.3584 22.7061C92.7979 22.4144 92.3581 21.9814 92.0391 21.4072C91.7246 20.833 91.5674 20.1198 91.5674 19.2676C91.5674 18.4199 91.7109 17.6999 91.998 17.1074C92.2852 16.515 92.6885 16.0638 93.208 15.7539C93.7275 15.444 94.3337 15.2891 95.0264 15.2891ZM95.0264 16.499C94.5205 16.499 94.1104 16.6631 93.7959 16.9912C93.486 17.3193 93.3037 17.8001 93.249 18.4336H96.6943C96.6898 18.0553 96.626 17.7204 96.5029 17.4287C96.3844 17.137 96.2021 16.9092 95.9561 16.7451C95.7145 16.5811 95.4046 16.499 95.0264 16.499ZM110.079 17.374C110.079 17.8115 109.945 18.1693 109.676 18.4473C109.411 18.7207 109.047 18.9007 108.582 18.9873V19.042C109.079 19.1058 109.493 19.2812 109.826 19.5684C110.159 19.8555 110.325 20.2542 110.325 20.7646C110.325 21.1976 110.216 21.5827 109.997 21.9199C109.783 22.2526 109.441 22.5169 108.972 22.7129C108.507 22.9043 107.898 23 107.146 23H103.715V15.4326H107.133C107.698 15.4326 108.201 15.4941 108.644 15.6172C109.09 15.7402 109.441 15.943 109.696 16.2256C109.951 16.5081 110.079 16.891 110.079 17.374ZM108.65 20.71C108.65 20.3363 108.507 20.0674 108.22 19.9033C107.937 19.7393 107.522 19.6572 106.976 19.6572H105.328V21.8174H107.01C107.52 21.8174 107.921 21.7331 108.213 21.5645C108.505 21.3913 108.65 21.1064 108.65 20.71ZM108.445 17.5176C108.445 17.2214 108.334 17.0026 108.11 16.8613C107.887 16.7155 107.536 16.6426 107.058 16.6426H105.328V18.4746H106.839C107.368 18.4746 107.766 18.3994 108.035 18.249C108.309 18.0941 108.445 17.8503 108.445 17.5176ZM118.747 15.4326V23H117.127V16.7041H113.75V23H112.137V15.4326H118.747ZM124.934 15.2891C125.831 15.2891 126.551 15.6172 127.094 16.2734C127.641 16.9297 127.914 17.9049 127.914 19.1992C127.914 20.056 127.786 20.7783 127.531 21.3662C127.281 21.9495 126.927 22.3916 126.472 22.6924C126.021 22.9886 125.494 23.1367 124.893 23.1367C124.51 23.1367 124.177 23.0866 123.895 22.9863C123.612 22.8861 123.37 22.7562 123.17 22.5967C122.969 22.4326 122.801 22.2549 122.664 22.0635H122.568C122.591 22.2458 122.612 22.4486 122.63 22.6719C122.653 22.8906 122.664 23.0911 122.664 23.2734V26.3564H121.051V15.4326H122.363L122.589 16.4785H122.664C122.805 16.2643 122.976 16.0661 123.177 15.8838C123.382 15.7015 123.628 15.5579 123.915 15.4531C124.207 15.3438 124.546 15.2891 124.934 15.2891ZM124.503 16.6016C124.061 16.6016 123.705 16.6904 123.437 16.8682C123.172 17.0413 122.979 17.3034 122.855 17.6543C122.737 18.0052 122.673 18.445 122.664 18.9736V19.1992C122.664 19.7598 122.721 20.236 122.835 20.6279C122.953 21.0153 123.147 21.3115 123.416 21.5166C123.689 21.7171 124.059 21.8174 124.523 21.8174C124.915 21.8174 125.239 21.7103 125.494 21.4961C125.754 21.2819 125.948 20.9766 126.075 20.5801C126.203 20.1836 126.267 19.7165 126.267 19.1787C126.267 18.363 126.121 17.7295 125.829 17.2783C125.542 16.8271 125.1 16.6016 124.503 16.6016ZM132.74 15.2891C133.697 15.2891 134.42 15.501 134.907 15.9248C135.399 16.3486 135.646 17.0094 135.646 17.9072V23H134.504L134.196 21.9268H134.142C133.927 22.2002 133.706 22.4258 133.479 22.6035C133.251 22.7812 132.986 22.9134 132.686 23C132.389 23.0911 132.027 23.1367 131.599 23.1367C131.147 23.1367 130.744 23.0547 130.389 22.8906C130.033 22.722 129.753 22.4668 129.548 22.125C129.343 21.7832 129.24 21.3503 129.24 20.8262C129.24 20.0469 129.53 19.4613 130.108 19.0693C130.692 18.6774 131.571 18.4609 132.747 18.4199L134.06 18.3721V17.9756C134.06 17.4515 133.937 17.0778 133.69 16.8545C133.449 16.6312 133.107 16.5195 132.665 16.5195C132.287 16.5195 131.92 16.5742 131.564 16.6836C131.209 16.793 130.863 16.9274 130.525 17.0869L130.006 15.9521C130.375 15.7562 130.794 15.5967 131.264 15.4736C131.738 15.3506 132.23 15.2891 132.74 15.2891ZM134.053 19.3838L133.075 19.418C132.273 19.4453 131.71 19.582 131.387 19.8281C131.063 20.0742 130.901 20.4115 130.901 20.8398C130.901 21.2135 131.013 21.487 131.236 21.6602C131.46 21.8288 131.754 21.9131 132.118 21.9131C132.674 21.9131 133.134 21.7559 133.499 21.4414C133.868 21.1224 134.053 20.6553 134.053 20.04V19.3838ZM144.259 17.374C144.259 17.8115 144.124 18.1693 143.855 18.4473C143.591 18.7207 143.227 18.9007 142.762 18.9873V19.042C143.258 19.1058 143.673 19.2812 144.006 19.5684C144.339 19.8555 144.505 20.2542 144.505 20.7646C144.505 21.1976 144.396 21.5827 144.177 21.9199C143.963 22.2526 143.621 22.5169 143.151 22.7129C142.687 22.9043 142.078 23 141.326 23H137.895V15.4326H141.312C141.878 15.4326 142.381 15.4941 142.823 15.6172C143.27 15.7402 143.621 15.943 143.876 16.2256C144.131 16.5081 144.259 16.891 144.259 17.374ZM142.83 20.71C142.83 20.3363 142.687 20.0674 142.399 19.9033C142.117 19.7393 141.702 19.6572 141.155 19.6572H139.508V21.8174H141.189C141.7 21.8174 142.101 21.7331 142.393 21.5645C142.684 21.3913 142.83 21.1064 142.83 20.71ZM142.625 17.5176C142.625 17.2214 142.513 17.0026 142.29 16.8613C142.067 16.7155 141.716 16.6426 141.237 16.6426H139.508V18.4746H141.019C141.547 18.4746 141.946 18.3994 142.215 18.249C142.488 18.0941 142.625 17.8503 142.625 17.5176ZM153.016 19.1992C153.016 19.8281 152.934 20.3864 152.77 20.874C152.605 21.3617 152.366 21.7741 152.052 22.1113C151.737 22.444 151.359 22.6992 150.917 22.877C150.475 23.0501 149.976 23.1367 149.42 23.1367C148.9 23.1367 148.424 23.0501 147.991 22.877C147.558 22.6992 147.182 22.444 146.863 22.1113C146.549 21.7741 146.305 21.3617 146.132 20.874C145.959 20.3864 145.872 19.8281 145.872 19.1992C145.872 18.3652 146.016 17.6589 146.303 17.0801C146.594 16.4967 147.009 16.0524 147.547 15.7471C148.085 15.4417 148.725 15.2891 149.468 15.2891C150.165 15.2891 150.78 15.4417 151.313 15.7471C151.847 16.0524 152.264 16.4967 152.564 17.0801C152.865 17.6634 153.016 18.3698 153.016 19.1992ZM147.526 19.1992C147.526 19.7507 147.592 20.2223 147.725 20.6143C147.861 21.0062 148.071 21.307 148.354 21.5166C148.636 21.7217 149.001 21.8242 149.447 21.8242C149.894 21.8242 150.258 21.7217 150.541 21.5166C150.824 21.307 151.031 21.0062 151.163 20.6143C151.295 20.2223 151.361 19.7507 151.361 19.1992C151.361 18.6478 151.295 18.1807 151.163 17.7979C151.031 17.4105 150.824 17.1165 150.541 16.916C150.258 16.7109 149.892 16.6084 149.44 16.6084C148.775 16.6084 148.29 16.8317 147.984 17.2783C147.679 17.7249 147.526 18.3652 147.526 19.1992Z" fill="white"/>
<path d="M104.846 86.635V95.0716C104.846 100.961 102.905 104.914 102.821 105.074C102.705 105.307 102.525 105.504 102.304 105.641C102.082 105.778 101.826 105.851 101.565 105.852C101.347 105.852 101.131 105.801 100.937 105.702C100.607 105.535 100.355 105.244 100.238 104.893C100.12 104.542 100.146 104.159 100.309 103.827C100.325 103.794 102.036 100.267 102.036 95.081V86.635C102.036 85.7648 101.69 84.9303 101.075 84.315C100.46 83.6997 99.6253 83.354 98.7551 83.354C97.885 83.354 97.0505 83.6997 96.4352 84.315C95.8199 84.9303 95.4742 85.7648 95.4742 86.635V87.5724C95.4742 87.9453 95.3261 88.3029 95.0624 88.5666C94.7987 88.8303 94.441 88.9785 94.0681 88.9785C93.6952 88.9785 93.3375 88.8303 93.0738 88.5666C92.8101 88.3029 92.662 87.9453 92.662 87.5724V82.8853C92.662 82.0152 92.3163 81.1807 91.701 80.5654C91.0857 79.9501 90.2512 79.6044 89.3811 79.6044C88.5109 79.6044 87.6764 79.9501 87.0611 80.5654C86.4458 81.1807 86.1002 82.0152 86.1002 82.8853V85.6976C86.1002 86.0705 85.952 86.4281 85.6883 86.6918C85.4246 86.9555 85.067 87.1037 84.6941 87.1037C84.3211 87.1037 83.9635 86.9555 83.6998 86.6918C83.4361 86.4281 83.2879 86.0705 83.2879 85.6976V69.7617C83.2879 68.8915 82.9423 68.057 82.327 67.4417C81.7117 66.8264 80.8772 66.4807 80.007 66.4807C79.1369 66.4807 78.3024 66.8264 77.6871 67.4417C77.0718 68.057 76.7261 68.8915 76.7261 69.7617V95.0716C76.7258 95.3769 76.6261 95.6737 76.4421 95.9173C76.2582 96.161 76 96.3381 75.7064 96.422C75.4129 96.5059 75.1001 96.492 74.8152 96.3824C74.5303 96.2728 74.2888 96.0735 74.1271 95.8145L69.7495 88.784C69.7404 88.7715 69.7325 88.7581 69.726 88.7441C69.2909 87.9905 68.5743 87.4406 67.7338 87.2154C66.8933 86.9901 65.9977 87.108 65.2441 87.5431C64.4904 87.9782 63.9405 88.6948 63.7153 89.5353C63.49 90.3759 63.6079 91.2714 64.043 92.025L70.9072 103.743C71.0122 103.903 71.0836 104.082 71.1168 104.271C71.15 104.459 71.1443 104.652 71.1003 104.839C71.0562 105.025 70.9745 105.2 70.8603 105.354C70.7461 105.507 70.6018 105.636 70.4362 105.732C70.2705 105.828 70.0871 105.889 69.897 105.911C69.707 105.934 69.5143 105.917 69.3309 105.862C69.1475 105.808 68.9772 105.716 68.8303 105.594C68.6835 105.471 68.5632 105.32 68.4769 105.149L61.6057 93.4312C60.7937 92.0327 60.5705 90.3689 60.9851 88.8059C61.3998 87.2428 62.4184 85.9085 63.8169 85.0964C65.2153 84.2844 66.8791 84.0612 68.4421 84.4758C70.0052 84.8905 71.3395 85.9091 72.1516 87.3076L73.9115 90.1502V69.7617C73.9115 68.1457 74.5535 66.5958 75.6962 65.4532C76.8389 64.3105 78.3887 63.6685 80.0047 63.6685C81.6207 63.6685 83.1705 64.3105 84.3132 65.4532C85.4559 66.5958 86.0978 68.1457 86.0978 69.7617V77.753C86.9258 77.2234 87.8695 76.9019 88.8486 76.816C89.8277 76.73 90.813 76.8822 91.7206 77.2596C92.6281 77.6369 93.4309 78.2282 94.0604 78.9829C94.69 79.7377 95.1276 80.6336 95.3359 81.5941C96.2519 80.9737 97.3195 80.6144 98.4242 80.5547C99.5289 80.4951 100.629 80.7373 101.606 81.2554C102.584 81.7735 103.402 82.548 103.973 83.4957C104.543 84.4435 104.845 85.5287 104.846 86.635ZM113.808 65.9558L106.308 58.4565C106.042 58.2082 105.689 58.073 105.325 58.0794C104.961 58.0858 104.613 58.2334 104.355 58.491C104.098 58.7486 103.95 59.0962 103.944 59.4605C103.937 59.8247 104.073 60.1773 104.321 60.4438L109.418 65.5433H95.9406C95.5677 65.5433 95.21 65.6915 94.9463 65.9552C94.6826 66.2189 94.5345 66.5765 94.5345 66.9494C94.5345 67.3224 94.6826 67.68 94.9463 67.9437C95.21 68.2074 95.5677 68.3556 95.9406 68.3556H109.418L104.321 73.455C104.183 73.5838 104.072 73.739 103.995 73.9115C103.918 74.084 103.877 74.2702 103.874 74.459C103.87 74.6478 103.905 74.8353 103.976 75.0104C104.047 75.1855 104.152 75.3445 104.285 75.478C104.419 75.6116 104.578 75.7168 104.753 75.7875C104.928 75.8583 105.116 75.893 105.304 75.8897C105.493 75.8863 105.679 75.845 105.852 75.7681C106.024 75.6913 106.18 75.5805 106.308 75.4423L113.808 67.9431C114.071 67.6794 114.219 67.3221 114.219 66.9494C114.219 66.5768 114.071 66.2194 113.808 65.9558Z" fill="white"/>
<path d="M27.0908 143.433V146.174C27.0908 146.575 27.1956 146.873 27.4053 147.069C27.6149 147.265 27.9157 147.363 28.3076 147.363C28.7451 147.363 29.1462 147.304 29.5107 147.186C29.8799 147.067 30.2513 146.908 30.625 146.707V143.433H32.2314V151H30.625V147.801C30.2467 148.024 29.8525 148.211 29.4424 148.361C29.0322 148.512 28.5514 148.587 28 148.587C27.2161 148.587 26.6009 148.384 26.1543 147.979C25.7077 147.573 25.4844 146.994 25.4844 146.242V143.433H27.0908ZM40.2432 144.697H37.7549V151H36.1553V144.697H33.6807V143.433H40.2432V144.697ZM48.4053 147.199C48.4053 147.828 48.3232 148.386 48.1592 148.874C47.9951 149.362 47.7559 149.774 47.4414 150.111C47.127 150.444 46.7487 150.699 46.3066 150.877C45.8646 151.05 45.3656 151.137 44.8096 151.137C44.29 151.137 43.8138 151.05 43.3809 150.877C42.9479 150.699 42.5719 150.444 42.2529 150.111C41.9385 149.774 41.6947 149.362 41.5215 148.874C41.3483 148.386 41.2617 147.828 41.2617 147.199C41.2617 146.365 41.4053 145.659 41.6924 145.08C41.984 144.497 42.3988 144.052 42.9365 143.747C43.4743 143.442 44.1146 143.289 44.8574 143.289C45.5547 143.289 46.1699 143.442 46.7031 143.747C47.2363 144.052 47.6533 144.497 47.9541 145.08C48.2549 145.663 48.4053 146.37 48.4053 147.199ZM42.916 147.199C42.916 147.751 42.9821 148.222 43.1143 148.614C43.251 149.006 43.4606 149.307 43.7432 149.517C44.0257 149.722 44.3903 149.824 44.8369 149.824C45.2835 149.824 45.6481 149.722 45.9307 149.517C46.2132 149.307 46.4206 149.006 46.5527 148.614C46.6849 148.222 46.751 147.751 46.751 147.199C46.751 146.648 46.6849 146.181 46.5527 145.798C46.4206 145.41 46.2132 145.117 45.9307 144.916C45.6481 144.711 45.2812 144.608 44.8301 144.608C44.1647 144.608 43.6794 144.832 43.374 145.278C43.0687 145.725 42.916 146.365 42.916 147.199ZM49.8203 146.461C49.8203 145.363 49.9411 144.428 50.1826 143.658C50.4242 142.888 50.8047 142.271 51.3242 141.806C51.8438 141.341 52.5182 141.024 53.3477 140.855C53.8854 140.732 54.4323 140.628 54.9883 140.541C55.5443 140.454 56.1003 140.37 56.6562 140.288L56.875 141.703C56.6152 141.735 56.3372 141.774 56.041 141.819C55.7448 141.86 55.4463 141.904 55.1455 141.949C54.8493 141.995 54.5645 142.043 54.291 142.093C54.0221 142.138 53.7806 142.184 53.5664 142.229C53.138 142.321 52.7757 142.471 52.4795 142.681C52.1878 142.886 51.96 143.187 51.7959 143.583C51.6318 143.979 51.5339 144.508 51.502 145.169H51.5908C51.7139 144.982 51.8848 144.795 52.1035 144.608C52.3223 144.422 52.5866 144.267 52.8965 144.144C53.2109 144.016 53.5687 143.952 53.9697 143.952C54.5986 143.952 55.1318 144.084 55.5693 144.349C56.0114 144.613 56.3464 144.996 56.5742 145.497C56.8066 145.998 56.9229 146.602 56.9229 147.309C56.9229 148.152 56.7725 148.858 56.4717 149.428C56.1755 149.993 55.7607 150.419 55.2275 150.706C54.6943 150.993 54.0723 151.137 53.3613 151.137C52.8145 151.137 52.3223 151.034 51.8848 150.829C51.4518 150.624 51.0804 150.323 50.7705 149.927C50.4652 149.526 50.2305 149.036 50.0664 148.457C49.9023 147.874 49.8203 147.208 49.8203 146.461ZM53.4707 149.817C53.8353 149.817 54.1497 149.74 54.4141 149.585C54.6829 149.43 54.8903 149.179 55.0361 148.833C55.1865 148.487 55.2617 148.029 55.2617 147.459C55.2617 146.757 55.1341 146.206 54.8789 145.805C54.6283 145.399 54.2135 145.196 53.6348 145.196C53.2793 145.196 52.9535 145.276 52.6572 145.436C52.361 145.595 52.1104 145.782 51.9053 145.996C51.7002 146.206 51.5544 146.39 51.4678 146.55C51.4678 146.965 51.4974 147.366 51.5566 147.753C51.6204 148.14 51.7253 148.491 51.8711 148.806C52.0215 149.116 52.2266 149.362 52.4863 149.544C52.7461 149.726 53.0742 149.817 53.4707 149.817ZM58.7686 151V143.433H60.3818V146.454H61.9062C62.6172 146.454 63.2028 146.536 63.6631 146.7C64.1234 146.86 64.4652 147.101 64.6885 147.425C64.9118 147.748 65.0234 148.154 65.0234 148.642C65.0234 149.12 64.9163 149.537 64.7021 149.893C64.488 150.243 64.153 150.517 63.6973 150.713C63.2415 150.904 62.6445 151 61.9062 151H58.7686ZM60.3818 149.817H61.7969C62.2799 149.817 62.6696 149.731 62.9658 149.558C63.2666 149.38 63.417 149.088 63.417 148.683C63.417 148.304 63.278 148.038 63 147.883C62.7266 147.723 62.3255 147.644 61.7969 147.644H60.3818V149.817ZM66.1924 151V143.433H67.8057V151H66.1924ZM76.7881 151.137C76.0726 151.137 75.4528 150.998 74.9287 150.72C74.4046 150.442 74.0013 150.016 73.7188 149.441C73.4362 148.867 73.2949 148.138 73.2949 147.254C73.2949 146.333 73.4499 145.581 73.7598 144.998C74.0697 144.415 74.498 143.984 75.0449 143.706C75.5964 143.428 76.2275 143.289 76.9385 143.289C77.3896 143.289 77.7975 143.335 78.1621 143.426C78.5312 143.512 78.8434 143.619 79.0986 143.747L78.6201 145.032C78.3421 144.918 78.0573 144.823 77.7656 144.745C77.474 144.668 77.1937 144.629 76.9248 144.629C76.4827 144.629 76.1136 144.727 75.8174 144.923C75.5257 145.119 75.307 145.41 75.1611 145.798C75.0199 146.185 74.9492 146.666 74.9492 147.24C74.9492 147.796 75.0221 148.266 75.168 148.648C75.3138 149.027 75.5303 149.314 75.8174 149.51C76.1045 149.701 76.4577 149.797 76.877 149.797C77.2917 149.797 77.6631 149.747 77.9912 149.646C78.3193 149.546 78.6292 149.416 78.9209 149.257V150.651C78.6338 150.815 78.3262 150.936 77.998 151.014C77.6699 151.096 77.2666 151.137 76.7881 151.137ZM87.3975 147.199C87.3975 147.828 87.3154 148.386 87.1514 148.874C86.9873 149.362 86.748 149.774 86.4336 150.111C86.1191 150.444 85.7409 150.699 85.2988 150.877C84.8568 151.05 84.3577 151.137 83.8018 151.137C83.2822 151.137 82.806 151.05 82.373 150.877C81.9401 150.699 81.5641 150.444 81.2451 150.111C80.9307 149.774 80.6868 149.362 80.5137 148.874C80.3405 148.386 80.2539 147.828 80.2539 147.199C80.2539 146.365 80.3975 145.659 80.6846 145.08C80.9762 144.497 81.391 144.052 81.9287 143.747C82.4665 143.442 83.1068 143.289 83.8496 143.289C84.5469 143.289 85.1621 143.442 85.6953 143.747C86.2285 144.052 86.6455 144.497 86.9463 145.08C87.2471 145.663 87.3975 146.37 87.3975 147.199ZM81.9082 147.199C81.9082 147.751 81.9743 148.222 82.1064 148.614C82.2432 149.006 82.4528 149.307 82.7354 149.517C83.0179 149.722 83.3825 149.824 83.8291 149.824C84.2757 149.824 84.6403 149.722 84.9229 149.517C85.2054 149.307 85.4128 149.006 85.5449 148.614C85.6771 148.222 85.7432 147.751 85.7432 147.199C85.7432 146.648 85.6771 146.181 85.5449 145.798C85.4128 145.41 85.2054 145.117 84.9229 144.916C84.6403 144.711 84.2734 144.608 83.8223 144.608C83.1569 144.608 82.6715 144.832 82.3662 145.278C82.0609 145.725 81.9082 146.365 81.9082 147.199ZM90.918 147.131L88.3887 143.433H90.2207L91.9502 146.092L93.6865 143.433H95.5117L92.9688 147.131L95.6416 151H93.8027L91.9502 148.163L90.0908 151H88.2656L90.918 147.131ZM100.837 143.289C101.735 143.289 102.455 143.617 102.997 144.273C103.544 144.93 103.817 145.905 103.817 147.199C103.817 148.056 103.69 148.778 103.435 149.366C103.184 149.95 102.831 150.392 102.375 150.692C101.924 150.989 101.397 151.137 100.796 151.137C100.413 151.137 100.08 151.087 99.7979 150.986C99.5153 150.886 99.2738 150.756 99.0732 150.597C98.8727 150.433 98.7041 150.255 98.5674 150.063H98.4717C98.4945 150.246 98.515 150.449 98.5332 150.672C98.556 150.891 98.5674 151.091 98.5674 151.273V154.356H96.9541V143.433H98.2666L98.4922 144.479H98.5674C98.7087 144.264 98.8796 144.066 99.0801 143.884C99.2852 143.701 99.5312 143.558 99.8184 143.453C100.11 143.344 100.45 143.289 100.837 143.289ZM100.406 144.602C99.9642 144.602 99.6087 144.69 99.3398 144.868C99.0755 145.041 98.8818 145.303 98.7588 145.654C98.6403 146.005 98.5765 146.445 98.5674 146.974V147.199C98.5674 147.76 98.6243 148.236 98.7383 148.628C98.8568 149.015 99.0505 149.312 99.3193 149.517C99.5928 149.717 99.9619 149.817 100.427 149.817C100.819 149.817 101.142 149.71 101.397 149.496C101.657 149.282 101.851 148.977 101.979 148.58C102.106 148.184 102.17 147.716 102.17 147.179C102.17 146.363 102.024 145.729 101.732 145.278C101.445 144.827 101.003 144.602 100.406 144.602ZM108.644 143.289C109.601 143.289 110.323 143.501 110.811 143.925C111.303 144.349 111.549 145.009 111.549 145.907V151H110.407L110.1 149.927H110.045C109.831 150.2 109.61 150.426 109.382 150.604C109.154 150.781 108.89 150.913 108.589 151C108.293 151.091 107.93 151.137 107.502 151.137C107.051 151.137 106.647 151.055 106.292 150.891C105.937 150.722 105.656 150.467 105.451 150.125C105.246 149.783 105.144 149.35 105.144 148.826C105.144 148.047 105.433 147.461 106.012 147.069C106.595 146.677 107.475 146.461 108.65 146.42L109.963 146.372V145.976C109.963 145.451 109.84 145.078 109.594 144.854C109.352 144.631 109.01 144.52 108.568 144.52C108.19 144.52 107.823 144.574 107.468 144.684C107.112 144.793 106.766 144.927 106.429 145.087L105.909 143.952C106.278 143.756 106.698 143.597 107.167 143.474C107.641 143.351 108.133 143.289 108.644 143.289ZM109.956 147.384L108.979 147.418C108.176 147.445 107.614 147.582 107.29 147.828C106.966 148.074 106.805 148.411 106.805 148.84C106.805 149.214 106.916 149.487 107.14 149.66C107.363 149.829 107.657 149.913 108.021 149.913C108.577 149.913 109.038 149.756 109.402 149.441C109.771 149.122 109.956 148.655 109.956 148.04V147.384ZM115.411 143.433V146.475H118.952V143.433H120.565V151H118.952V147.732H115.411V151H113.798V143.433H115.411ZM124.407 143.433V147.295C124.407 147.418 124.403 147.575 124.394 147.767C124.389 147.953 124.38 148.149 124.366 148.354C124.353 148.555 124.339 148.74 124.325 148.908C124.312 149.077 124.3 149.202 124.291 149.284L128.099 143.433H130.054V151H128.516V147.179C128.516 146.978 128.52 146.746 128.529 146.481C128.543 146.217 128.557 145.962 128.57 145.716C128.589 145.47 128.6 145.283 128.604 145.155L124.811 151H122.862V143.433H124.407ZM138.079 144.697H135.591V151H133.991V144.697H131.517V143.433H138.079V144.697ZM141.155 146.454H143.035C143.746 146.454 144.334 146.536 144.799 146.7C145.268 146.86 145.619 147.101 145.852 147.425C146.084 147.748 146.2 148.154 146.2 148.642C146.2 149.12 146.091 149.537 145.872 149.893C145.653 150.243 145.312 150.517 144.847 150.713C144.386 150.904 143.785 151 143.042 151H139.542V143.433H141.155V146.454ZM144.587 148.683C144.587 148.304 144.446 148.038 144.163 147.883C143.881 147.723 143.477 147.644 142.953 147.644H141.155V149.817H142.967C143.445 149.817 143.835 149.731 144.136 149.558C144.437 149.38 144.587 149.088 144.587 148.683ZM18.5732 165.374C18.5732 165.812 18.4388 166.169 18.1699 166.447C17.9056 166.721 17.541 166.901 17.0762 166.987V167.042C17.5729 167.106 17.9876 167.281 18.3203 167.568C18.653 167.855 18.8193 168.254 18.8193 168.765C18.8193 169.198 18.71 169.583 18.4912 169.92C18.277 170.253 17.9352 170.517 17.4658 170.713C17.001 170.904 16.3926 171 15.6406 171H12.209V163.433H15.627C16.1921 163.433 16.6956 163.494 17.1377 163.617C17.5843 163.74 17.9352 163.943 18.1904 164.226C18.4456 164.508 18.5732 164.891 18.5732 165.374ZM17.1445 168.71C17.1445 168.336 17.001 168.067 16.7139 167.903C16.4313 167.739 16.0166 167.657 15.4697 167.657H13.8223V169.817H15.5039C16.0143 169.817 16.4154 169.733 16.707 169.564C16.9987 169.391 17.1445 169.106 17.1445 168.71ZM16.9395 165.518C16.9395 165.221 16.8278 165.003 16.6045 164.861C16.3812 164.715 16.0303 164.643 15.5518 164.643H13.8223V166.475H15.333C15.8617 166.475 16.2604 166.399 16.5293 166.249C16.8027 166.094 16.9395 165.85 16.9395 165.518ZM22.1758 163.433V167.295C22.1758 167.418 22.1712 167.575 22.1621 167.767C22.1576 167.953 22.1484 168.149 22.1348 168.354C22.1211 168.555 22.1074 168.74 22.0938 168.908C22.0801 169.077 22.0687 169.202 22.0596 169.284L25.8672 163.433H27.8223V171H26.2842V167.179C26.2842 166.978 26.2887 166.746 26.2979 166.481C26.3115 166.217 26.3252 165.962 26.3389 165.716C26.3571 165.47 26.3685 165.283 26.373 165.155L22.5791 171H20.6309V163.433H22.1758ZM32.4844 163.289C33.0404 163.289 33.5394 163.364 33.9814 163.515C34.4281 163.66 34.7812 163.882 35.041 164.178C35.3008 164.474 35.4307 164.843 35.4307 165.285C35.4307 165.741 35.2985 166.105 35.0342 166.379C34.7744 166.648 34.4212 166.841 33.9746 166.96V167.021C34.2891 167.099 34.5739 167.211 34.8291 167.356C35.0843 167.498 35.2871 167.689 35.4375 167.931C35.5924 168.168 35.6699 168.473 35.6699 168.847C35.6699 169.271 35.5446 169.656 35.2939 170.002C35.0479 170.348 34.6696 170.624 34.1592 170.829C33.6488 171.034 32.9993 171.137 32.2109 171.137C31.8327 171.137 31.4727 171.116 31.1309 171.075C30.7936 171.039 30.486 170.986 30.208 170.918C29.93 170.845 29.6885 170.758 29.4834 170.658V169.277C29.7979 169.428 30.1784 169.564 30.625 169.688C31.0716 169.806 31.5501 169.865 32.0605 169.865C32.4388 169.865 32.7806 169.831 33.0859 169.763C33.3958 169.69 33.6396 169.571 33.8174 169.407C33.9997 169.243 34.0908 169.024 34.0908 168.751C34.0908 168.5 34.0111 168.293 33.8516 168.129C33.6921 167.965 33.4528 167.844 33.1338 167.767C32.8148 167.685 32.4115 167.644 31.9238 167.644H31.0215V166.461H31.8145C32.4844 166.461 33.0085 166.388 33.3867 166.242C33.7695 166.092 33.9609 165.832 33.9609 165.463C33.9609 165.153 33.8265 164.921 33.5576 164.766C33.2887 164.611 32.8763 164.533 32.3203 164.533C31.9375 164.533 31.5592 164.576 31.1855 164.663C30.8118 164.745 30.4382 164.864 30.0645 165.019L29.5586 163.836C29.9733 163.667 30.4176 163.535 30.8916 163.439C31.3656 163.339 31.8965 163.289 32.4844 163.289ZM38.9512 163.433V167.295C38.9512 167.418 38.9466 167.575 38.9375 167.767C38.9329 167.953 38.9238 168.149 38.9102 168.354C38.8965 168.555 38.8828 168.74 38.8691 168.908C38.8555 169.077 38.8441 169.202 38.835 169.284L42.6426 163.433H44.5977V171H43.0596V167.179C43.0596 166.978 43.0641 166.746 43.0732 166.481C43.0869 166.217 43.1006 165.962 43.1143 165.716C43.1325 165.47 43.1439 165.283 43.1484 165.155L39.3545 171H37.4062V163.433H38.9512ZM52.623 164.697H50.1348V171H48.5352V164.697H46.0605V163.433H52.623V164.697ZM58.7754 163.433H60.5459L57.415 167.069L60.8125 171H58.96L55.6992 167.158V171H54.0859V163.433H55.6992V167.104L58.7754 163.433ZM60.9014 163.433H62.6514L64.2031 167.753C64.2715 167.949 64.333 168.143 64.3877 168.334C64.4469 168.521 64.4971 168.705 64.5381 168.888C64.5837 169.07 64.6201 169.252 64.6475 169.435H64.6885C64.734 169.198 64.7979 168.933 64.8799 168.642C64.9665 168.345 65.0622 168.049 65.167 167.753L66.6572 163.433H68.3867L65.1396 172.039C64.9528 172.531 64.7227 172.951 64.4492 173.297C64.1803 173.648 63.8613 173.912 63.4922 174.09C63.123 174.272 62.7015 174.363 62.2275 174.363C61.9997 174.363 61.8014 174.35 61.6328 174.322C61.4642 174.299 61.3206 174.274 61.2021 174.247V172.962C61.2979 172.985 61.4186 173.005 61.5645 173.023C61.7103 173.042 61.8607 173.051 62.0156 173.051C62.3027 173.051 62.5511 172.994 62.7607 172.88C62.9704 172.766 63.1481 172.604 63.2939 172.395C63.4398 172.189 63.5605 171.955 63.6562 171.69L63.9229 170.979L60.9014 163.433ZM79.5361 165.374C79.5361 165.812 79.4017 166.169 79.1328 166.447C78.8685 166.721 78.5039 166.901 78.0391 166.987V167.042C78.5358 167.106 78.9505 167.281 79.2832 167.568C79.6159 167.855 79.7822 168.254 79.7822 168.765C79.7822 169.198 79.6729 169.583 79.4541 169.92C79.2399 170.253 78.8981 170.517 78.4287 170.713C77.9639 170.904 77.3555 171 76.6035 171H73.1719V163.433H76.5898C77.1549 163.433 77.6585 163.494 78.1006 163.617C78.5472 163.74 78.8981 163.943 79.1533 164.226C79.4085 164.508 79.5361 164.891 79.5361 165.374ZM78.1074 168.71C78.1074 168.336 77.9639 168.067 77.6768 167.903C77.3942 167.739 76.9795 167.657 76.4326 167.657H74.7852V169.817H76.4668C76.9772 169.817 77.3783 169.733 77.6699 169.564C77.9616 169.391 78.1074 169.106 78.1074 168.71ZM77.9023 165.518C77.9023 165.221 77.7907 165.003 77.5674 164.861C77.3441 164.715 76.9932 164.643 76.5146 164.643H74.7852V166.475H76.2959C76.8245 166.475 77.2233 166.399 77.4922 166.249C77.7656 166.094 77.9023 165.85 77.9023 165.518ZM86.7754 163.433V167.295C86.7754 167.418 86.7708 167.575 86.7617 167.767C86.7572 167.953 86.748 168.149 86.7344 168.354C86.7207 168.555 86.707 168.74 86.6934 168.908C86.6797 169.077 86.6683 169.202 86.6592 169.284L90.4668 163.433H92.4219V171H90.8838V167.179C90.8838 166.978 90.8883 166.746 90.8975 166.481C90.9111 166.217 90.9248 165.962 90.9385 165.716C90.9567 165.47 90.9681 165.283 90.9727 165.155L87.1787 171H85.2305V163.433H86.7754ZM97.084 163.289C97.64 163.289 98.139 163.364 98.5811 163.515C99.0277 163.66 99.3809 163.882 99.6406 164.178C99.9004 164.474 100.03 164.843 100.03 165.285C100.03 165.741 99.8981 166.105 99.6338 166.379C99.374 166.648 99.0208 166.841 98.5742 166.96V167.021C98.8887 167.099 99.1735 167.211 99.4287 167.356C99.6839 167.498 99.8867 167.689 100.037 167.931C100.192 168.168 100.27 168.473 100.27 168.847C100.27 169.271 100.144 169.656 99.8936 170.002C99.6475 170.348 99.2692 170.624 98.7588 170.829C98.2484 171.034 97.599 171.137 96.8105 171.137C96.4323 171.137 96.0723 171.116 95.7305 171.075C95.3932 171.039 95.0856 170.986 94.8076 170.918C94.5296 170.845 94.2881 170.758 94.083 170.658V169.277C94.3975 169.428 94.778 169.564 95.2246 169.688C95.6712 169.806 96.1497 169.865 96.6602 169.865C97.0384 169.865 97.3802 169.831 97.6855 169.763C97.9954 169.69 98.2393 169.571 98.417 169.407C98.5993 169.243 98.6904 169.024 98.6904 168.751C98.6904 168.5 98.6107 168.293 98.4512 168.129C98.2917 167.965 98.0524 167.844 97.7334 167.767C97.4144 167.685 97.0111 167.644 96.5234 167.644H95.6211V166.461H96.4141C97.084 166.461 97.6081 166.388 97.9863 166.242C98.3691 166.092 98.5605 165.832 98.5605 165.463C98.5605 165.153 98.4261 164.921 98.1572 164.766C97.8883 164.611 97.4759 164.533 96.9199 164.533C96.5371 164.533 96.1589 164.576 95.7852 164.663C95.4115 164.745 95.0378 164.864 94.6641 165.019L94.1582 163.836C94.5729 163.667 95.0173 163.535 95.4912 163.439C95.9652 163.339 96.4961 163.289 97.084 163.289ZM101.575 166.461C101.575 165.363 101.696 164.428 101.938 163.658C102.179 162.888 102.56 162.271 103.079 161.806C103.599 161.341 104.273 161.024 105.103 160.855C105.64 160.732 106.187 160.628 106.743 160.541C107.299 160.454 107.855 160.37 108.411 160.288L108.63 161.703C108.37 161.735 108.092 161.774 107.796 161.819C107.5 161.86 107.201 161.904 106.9 161.949C106.604 161.995 106.319 162.043 106.046 162.093C105.777 162.138 105.535 162.184 105.321 162.229C104.893 162.321 104.531 162.471 104.234 162.681C103.943 162.886 103.715 163.187 103.551 163.583C103.387 163.979 103.289 164.508 103.257 165.169H103.346C103.469 164.982 103.64 164.795 103.858 164.608C104.077 164.422 104.341 164.267 104.651 164.144C104.966 164.016 105.324 163.952 105.725 163.952C106.354 163.952 106.887 164.084 107.324 164.349C107.766 164.613 108.101 164.996 108.329 165.497C108.562 165.998 108.678 166.602 108.678 167.309C108.678 168.152 108.527 168.858 108.227 169.428C107.93 169.993 107.516 170.419 106.982 170.706C106.449 170.993 105.827 171.137 105.116 171.137C104.569 171.137 104.077 171.034 103.64 170.829C103.207 170.624 102.835 170.323 102.525 169.927C102.22 169.526 101.985 169.036 101.821 168.457C101.657 167.874 101.575 167.208 101.575 166.461ZM105.226 169.817C105.59 169.817 105.905 169.74 106.169 169.585C106.438 169.43 106.645 169.179 106.791 168.833C106.941 168.487 107.017 168.029 107.017 167.459C107.017 166.757 106.889 166.206 106.634 165.805C106.383 165.399 105.968 165.196 105.39 165.196C105.034 165.196 104.708 165.276 104.412 165.436C104.116 165.595 103.865 165.782 103.66 165.996C103.455 166.206 103.309 166.39 103.223 166.55C103.223 166.965 103.252 167.366 103.312 167.753C103.375 168.14 103.48 168.491 103.626 168.806C103.776 169.116 103.981 169.362 104.241 169.544C104.501 169.726 104.829 169.817 105.226 169.817ZM114.406 163.289C115.304 163.289 116.024 163.617 116.566 164.273C117.113 164.93 117.387 165.905 117.387 167.199C117.387 168.056 117.259 168.778 117.004 169.366C116.753 169.95 116.4 170.392 115.944 170.692C115.493 170.989 114.967 171.137 114.365 171.137C113.982 171.137 113.65 171.087 113.367 170.986C113.085 170.886 112.843 170.756 112.643 170.597C112.442 170.433 112.273 170.255 112.137 170.063H112.041C112.064 170.246 112.084 170.449 112.103 170.672C112.125 170.891 112.137 171.091 112.137 171.273V174.356H110.523V163.433H111.836L112.062 164.479H112.137C112.278 164.264 112.449 164.066 112.649 163.884C112.854 163.701 113.101 163.558 113.388 163.453C113.679 163.344 114.019 163.289 114.406 163.289ZM113.976 164.602C113.534 164.602 113.178 164.69 112.909 164.868C112.645 165.041 112.451 165.303 112.328 165.654C112.21 166.005 112.146 166.445 112.137 166.974V167.199C112.137 167.76 112.194 168.236 112.308 168.628C112.426 169.015 112.62 169.312 112.889 169.517C113.162 169.717 113.531 169.817 113.996 169.817C114.388 169.817 114.712 169.71 114.967 169.496C115.227 169.282 115.42 168.977 115.548 168.58C115.675 168.184 115.739 167.716 115.739 167.179C115.739 166.363 115.593 165.729 115.302 165.278C115.015 164.827 114.573 164.602 113.976 164.602ZM122.213 163.289C123.17 163.289 123.892 163.501 124.38 163.925C124.872 164.349 125.118 165.009 125.118 165.907V171H123.977L123.669 169.927H123.614C123.4 170.2 123.179 170.426 122.951 170.604C122.723 170.781 122.459 170.913 122.158 171C121.862 171.091 121.5 171.137 121.071 171.137C120.62 171.137 120.217 171.055 119.861 170.891C119.506 170.722 119.226 170.467 119.021 170.125C118.815 169.783 118.713 169.35 118.713 168.826C118.713 168.047 119.002 167.461 119.581 167.069C120.164 166.677 121.044 166.461 122.22 166.42L123.532 166.372V165.976C123.532 165.451 123.409 165.078 123.163 164.854C122.922 164.631 122.58 164.52 122.138 164.52C121.759 164.52 121.393 164.574 121.037 164.684C120.682 164.793 120.335 164.927 119.998 165.087L119.479 163.952C119.848 163.756 120.267 163.597 120.736 163.474C121.21 163.351 121.702 163.289 122.213 163.289ZM123.525 167.384L122.548 167.418C121.746 167.445 121.183 167.582 120.859 167.828C120.536 168.074 120.374 168.411 120.374 168.84C120.374 169.214 120.486 169.487 120.709 169.66C120.932 169.829 121.226 169.913 121.591 169.913C122.147 169.913 122.607 169.756 122.972 169.441C123.341 169.122 123.525 168.655 123.525 168.04V167.384ZM128.98 163.433V166.475H132.521V163.433H134.135V171H132.521V167.732H128.98V171H127.367V163.433H128.98ZM138.045 163.433V166.475H141.586V163.433H143.199V171H141.586V167.732H138.045V171H136.432V163.433H138.045ZM152.195 167.199C152.195 167.828 152.113 168.386 151.949 168.874C151.785 169.362 151.546 169.774 151.231 170.111C150.917 170.444 150.539 170.699 150.097 170.877C149.655 171.05 149.156 171.137 148.6 171.137C148.08 171.137 147.604 171.05 147.171 170.877C146.738 170.699 146.362 170.444 146.043 170.111C145.729 169.774 145.485 169.362 145.312 168.874C145.138 168.386 145.052 167.828 145.052 167.199C145.052 166.365 145.195 165.659 145.482 165.08C145.774 164.497 146.189 164.052 146.727 163.747C147.264 163.442 147.905 163.289 148.647 163.289C149.345 163.289 149.96 163.442 150.493 163.747C151.026 164.052 151.443 164.497 151.744 165.08C152.045 165.663 152.195 166.37 152.195 167.199ZM146.706 167.199C146.706 167.751 146.772 168.222 146.904 168.614C147.041 169.006 147.251 169.307 147.533 169.517C147.816 169.722 148.18 169.824 148.627 169.824C149.074 169.824 149.438 169.722 149.721 169.517C150.003 169.307 150.211 169.006 150.343 168.614C150.475 168.222 150.541 167.751 150.541 167.199C150.541 166.648 150.475 166.181 150.343 165.798C150.211 165.41 150.003 165.117 149.721 164.916C149.438 164.711 149.071 164.608 148.62 164.608C147.955 164.608 147.469 164.832 147.164 165.278C146.859 165.725 146.706 166.365 146.706 167.199ZM162.812 163.433V171H161.321V166.68C161.321 166.397 161.328 166.115 161.342 165.832C161.355 165.549 161.374 165.281 161.396 165.025H161.355L159.052 171H157.787L155.504 165.019H155.456C155.479 165.278 155.495 165.547 155.504 165.825C155.518 166.103 155.524 166.404 155.524 166.728V171H154.034V163.433H156.276L158.437 169.086L160.631 163.433H162.812Z" fill="white"/>
</g>
<defs>
<filter id="filter0_d_476_2933" x="-1" y="-4" width="177" height="192" filterUnits="userSpaceOnUse" color-interpolation-filters="sRGB">
<feFlood flood-opacity="0" result="BackgroundImageFix"/>
<feColorMatrix in="SourceAlpha" type="matrix" values="0 0 0 0 0 0 0 0 0 0 0 0 0 0 0 0 0 0 127 0" result="hardAlpha"/>
<feOffset/>
<feGaussianBlur stdDeviation="6"/>
<feColorMatrix type="matrix" values="0 0 0 0 0 0 0 0 0 0 0 0 0 0 0 0 0 0 0.25 0"/>
<feBlend mode="normal" in2="BackgroundImageFix" result="effect1_dropShadow_476_2933"/>
<feBlend mode="normal" in="SourceGraphic" in2="effect1_dropShadow_476_2933" result="shape"/>
</filter>
</defs>
</svg>
