<svg width="167" height="220" viewBox="0 0 167 220" fill="none" xmlns="http://www.w3.org/2000/svg">
<g clip-path="url(#clip0_459_2222)">
<path d="M83.5002 220C129.488 220 166.768 182.72 166.768 136.733C166.768 90.7451 129.488 53.4648 83.5002 53.4648C37.5127 53.4648 0.232422 90.7451 0.232422 136.733C0.232422 182.72 37.5127 220 83.5002 220Z" fill="#738BBF"/>
<path opacity="0.86" d="M83.5002 220C129.488 220 166.768 182.72 166.768 136.733C166.768 90.7451 129.488 53.4648 83.5002 53.4648C37.5127 53.4648 0.232422 90.7451 0.232422 136.733C0.232422 182.72 37.5127 220 83.5002 220Z" fill="white"/>
<path opacity="0.1" d="M39.6644 138.013L57.0217 162.718L28.0004 167.546L18.2803 154.43L39.6644 138.013Z" fill="#738BBF"/>
<path opacity="0.1" d="M151.444 100.022L139.78 90.3108L126.82 108.651L130.874 113.342L151.444 100.022Z" fill="#738BBF"/>
<path opacity="0.1" d="M32.2124 108.651L42.9383 100.644L51.9847 115.343L41.5464 120.826L32.2124 108.651Z" fill="#738BBF"/>
<path opacity="0.1" d="M95.5135 197.45L107.857 187.406L115.48 197.45L101.734 206.846L95.5135 197.45Z" fill="#738BBF"/>
<path opacity="0.1" d="M46.0966 124.874L57.2977 116.69L66.2321 128.438L61.3723 133.402L68.6109 142.74L75.3041 138.013L83.103 147.878L68.6109 158.57L46.0966 124.874Z" fill="#738BBF"/>
<path d="M166.645 141.281L124.931 169.524L144.146 193.789C143.574 194.399 142.993 194.999 142.401 195.589L122.902 170.964L89.0212 196.221L104.027 217.451C103.163 217.672 102.294 217.877 101.419 218.066L86.2944 196.665L65.0728 167.073L27.9206 174.558L30.8931 201.277C29.9547 200.513 29.0347 199.728 28.1331 198.923L25.3704 174.086L0.696093 145.542C0.547054 144.157 0.434815 142.761 0.359375 141.355L27.0264 172.206L63.4831 164.859L12.3148 93.5107C12.7785 92.7462 13.2551 91.99 13.7445 91.242L66.1539 164.321L66.4409 164.263L104.672 137.361L77.5913 102.205L81.5022 53.4909C82.1674 53.4743 82.8334 53.4661 83.5004 53.4661C83.666 53.4661 83.8316 53.4661 83.9972 53.4688L80.1443 101.448L106.706 135.929L158.122 99.7511C158.498 100.502 158.86 101.26 159.21 102.025L67.6691 166.435L87.5797 194.198L123.352 167.531L123.385 167.573L166.753 138.209C166.736 139.238 166.7 140.259 166.645 141.281Z" fill="white"/>
<path d="M83.498 3.53906C57.2886 3.53906 36.1261 24.7236 36.1261 50.853C36.1261 59.0692 39.2449 68.3237 41.9058 73.5348C50.6406 90.6515 82.9717 138.512 82.9717 138.512C83.0263 138.604 83.1037 138.679 83.1964 138.732C83.289 138.784 83.3937 138.812 83.5002 138.812C83.6067 138.812 83.7114 138.784 83.804 138.732C83.8967 138.679 83.9741 138.604 84.0287 138.512C84.0287 138.512 116.359 90.6515 125.094 73.5348C127.754 68.3226 130.874 59.0692 130.874 50.853C130.874 24.7225 109.711 3.53906 83.5021 3.53906H83.498Z" fill="#738BBF"/>
<path opacity="0.12" d="M83.498 3.53906C57.2886 3.53906 36.1261 24.7236 36.1261 50.853C36.1261 59.0692 39.2449 68.3237 41.9058 73.5348C50.6406 90.6515 82.9717 138.512 82.9717 138.512C83.0263 138.604 83.1037 138.679 83.1964 138.732C83.289 138.784 83.3937 138.812 83.5002 138.812C83.6067 138.812 83.7114 138.784 83.804 138.732C83.8967 138.679 83.9741 138.604 84.0287 138.512C84.0287 138.512 116.359 90.6515 125.094 73.5348C127.754 68.3226 130.874 59.0692 130.874 50.853C130.874 24.7225 109.711 3.53906 83.5021 3.53906H83.498Z" fill="white"/>
<mask id="mask0_459_2222" style="mask-type:alpha" maskUnits="userSpaceOnUse" x="43" y="10" width="81" height="81">
<path d="M82.48 10.9591C82.8201 10.9506 83.1568 10.9591 83.4988 10.9591C88.7512 10.9592 93.9512 12.0032 98.7966 14.0305C103.642 16.0578 108.036 19.028 111.724 22.7684C115.411 26.5088 118.318 30.9448 120.276 35.8186C122.234 40.6924 123.204 45.9067 123.129 51.1586C122.831 72.5049 105.409 89.9282 84.0621 90.224C73.6059 90.3463 63.5249 86.3322 56.0147 79.056C48.5044 71.7798 44.1734 61.8309 43.9647 51.3761C43.756 40.9213 47.6867 30.8075 54.9006 23.2374C62.1145 15.6673 72.0273 11.2542 82.48 10.9591Z" fill="white"/>
</mask>
<g mask="url(#mask0_459_2222)">
<path d="M62.8252 50.1009C62.9987 49.9064 63.2088 49.7479 63.4435 49.6346C63.6782 49.5213 63.9329 49.4554 64.1931 49.4405C64.4533 49.4256 64.7139 49.4621 64.9599 49.548C65.206 49.6338 65.4328 49.7673 65.6273 49.9408L71.9608 55.5897L69.3187 58.5519L62.9852 52.903C62.7907 52.7295 62.6323 52.5194 62.519 52.2847C62.4057 52.05 62.3397 51.7953 62.3248 51.5351C62.31 51.2749 62.3465 51.0143 62.4324 50.7682C62.5182 50.5221 62.6517 50.2953 62.8252 50.1009Z" fill="white"/>
<path d="M69.3342 58.8282L62.8549 53.0489C62.6412 52.8583 62.4671 52.6275 62.3426 52.3696C62.2181 52.1118 62.1456 51.8319 62.1293 51.546C62.1129 51.2601 62.1531 50.9738 62.2474 50.7034C62.3417 50.433 62.4883 50.1839 62.6789 49.9701C62.8695 49.7564 63.1004 49.5824 63.3583 49.4579C63.6161 49.3334 63.896 49.2609 64.1819 49.2445C64.4678 49.2282 64.7541 49.2683 65.0245 49.3626C65.2949 49.4569 65.544 49.6036 65.7577 49.7942L72.2378 55.5735L69.3342 58.8282ZM64.3081 49.6328C64.2734 49.6328 64.2386 49.6338 64.2037 49.6358C63.8505 49.656 63.5113 49.7806 63.2289 49.9936C62.9465 50.2067 62.7336 50.4987 62.6172 50.8327C62.5007 51.1668 62.4859 51.5279 62.5747 51.8703C62.6634 52.2128 62.8517 52.5212 63.1158 52.7566L69.3031 58.2751L71.6841 55.6056L65.4969 50.0871C65.1705 49.7941 64.7472 49.6323 64.3087 49.6328H64.3081Z" fill="#333333"/>
<path d="M97.8494 58.5515L95.2074 55.5894L101.541 49.9405C101.934 49.5901 102.45 49.4102 102.975 49.4402C103.501 49.4702 103.993 49.7078 104.343 50.1006C104.693 50.4934 104.873 51.0093 104.843 51.5348C104.813 52.0602 104.576 52.5523 104.183 52.9026L97.8494 58.5515Z" fill="white"/>
<path d="M97.8341 58.8282L94.9313 55.5735L101.411 49.7942C101.843 49.4092 102.41 49.2115 102.987 49.2445C103.564 49.2775 104.105 49.5385 104.49 49.9701C104.875 50.4018 105.073 50.9686 105.04 51.546C105.007 52.1234 104.746 52.664 104.314 53.0489L97.8341 58.8282ZM95.4847 55.6053L97.8658 58.2748L104.053 52.7566C104.228 52.6003 104.371 52.411 104.473 52.1994C104.575 51.9879 104.635 51.7584 104.648 51.5239C104.662 51.2894 104.629 51.0545 104.551 50.8327C104.474 50.611 104.354 50.4066 104.197 50.2313C104.041 50.056 103.852 49.9133 103.64 49.8111C103.429 49.709 103.199 49.6496 102.965 49.6362C102.73 49.6228 102.495 49.6557 102.273 49.7331C102.052 49.8104 101.847 49.9307 101.672 50.0871L95.4847 55.6053Z" fill="#333333"/>
<path d="M100.487 62.2259C101.9 68.4822 103.834 72.5072 102.871 74.8188C102.365 76.0339 101.325 77.0527 99.6054 77.0527C96.9242 77.0527 96.9242 73.8906 94.2427 73.8906C91.5613 73.8906 91.5618 77.0527 88.8806 77.0527C86.1995 77.0527 86.1998 73.8906 83.519 73.8906C80.8381 73.8906 80.838 77.0527 78.157 77.0527C75.476 77.0527 75.4762 73.8906 72.7953 73.8906C70.1145 73.8906 70.1148 77.0527 67.4343 77.0527C65.8427 77.0527 64.943 76.1155 64.3724 75.0322C63.0012 72.4299 66.1969 66.7034 67.4343 61.6536C68.8013 56.0736 68.6862 49.1233 68.8696 44.9314C69.2234 36.8475 75.4285 30.2803 83.5207 30.2803C91.6129 30.2803 97.5824 36.8613 98.1718 44.9314C98.4896 49.282 99.1939 56.4989 100.487 62.2259Z" fill="white"/>
<path d="M99.6055 77.2505C98.1732 77.2505 97.4617 76.4113 96.7734 75.599C96.1144 74.8218 95.4919 74.0878 94.2428 74.0878C92.9936 74.0878 92.3721 74.8218 91.7125 75.599C91.0243 76.4106 90.3127 77.2505 88.8807 77.2505C87.4487 77.2505 86.7372 76.4113 86.0492 75.599C85.3902 74.8218 84.7677 74.0878 83.519 74.0878C82.2703 74.0878 81.6483 74.8218 80.9889 75.599C80.3006 76.4106 79.5892 77.2505 78.157 77.2505C76.7249 77.2505 76.0132 76.4113 75.3263 75.5999C74.6673 74.8227 74.045 74.0887 72.7961 74.0887C71.5473 74.0887 70.9254 74.8227 70.2662 75.5999C69.5783 76.4115 68.8669 77.2514 67.435 77.2514C66.0108 77.2514 64.9521 76.556 64.1982 75.1252C63.2423 73.3109 64.3904 70.1027 65.6062 66.7069C66.21 65.0201 66.8339 63.2759 67.2431 61.6079C68.3365 57.1452 68.4749 51.9015 68.586 47.6878C68.6121 46.6912 68.637 45.7497 68.6737 44.924C68.849 40.9225 70.44 37.1983 73.1542 34.4371C74.5032 33.0547 76.1159 31.9571 77.8968 31.2094C79.6778 30.4616 81.5907 30.079 83.5222 30.084C85.4413 30.0795 87.3414 30.4633 89.1082 31.2125C90.875 31.9616 92.4719 33.0606 93.8029 34.4431C96.4543 37.1731 98.0764 40.8935 98.3705 44.9183C98.6539 48.7992 99.3309 56.2024 100.681 62.1837C101.139 64.2125 101.652 66.0044 102.104 67.5855C103.049 70.887 103.731 73.2723 103.054 74.8962C102.687 75.7753 101.752 77.2505 99.6055 77.2505ZM94.2428 73.6931C95.6751 73.6931 96.3867 74.5323 97.0749 75.3446C97.734 76.1218 98.3565 76.8558 99.6055 76.8558C101.522 76.8558 102.36 75.5324 102.689 74.7433C103.312 73.2472 102.645 70.9177 101.723 67.6935C101.27 66.1073 100.755 64.3098 100.294 62.2703C98.9381 56.2635 98.259 48.8382 97.9749 44.9465C97.3723 36.6984 91.1584 30.4785 83.5206 30.4785C75.7709 30.4785 69.4219 36.8309 69.0664 44.9406C69.0304 45.7629 69.0056 46.7026 68.9787 47.6975C68.873 51.7067 68.7282 57.1972 67.6247 61.7013C67.2113 63.389 66.5833 65.1433 65.9762 66.8396C64.7906 70.1514 63.6708 73.2801 64.5458 74.9408C65.2248 76.2292 66.1691 76.8553 67.4328 76.8553C68.6815 76.8553 69.3036 76.1214 69.9627 75.3441C70.6506 74.5324 71.3621 73.6926 72.7939 73.6926C74.2258 73.6926 74.9375 74.5318 75.6254 75.3441C76.2844 76.1214 76.9067 76.8553 78.1556 76.8553C79.4044 76.8553 80.027 76.1212 80.6859 75.3441C81.3741 74.5324 82.0856 73.6926 83.5175 73.6926C84.9495 73.6926 85.6611 74.532 86.3491 75.3441C87.0081 76.1214 87.6302 76.8553 88.8792 76.8553C90.1282 76.8553 90.7507 76.1212 91.4097 75.3441C92.0992 74.533 92.8107 73.6931 94.2428 73.6931Z" fill="#333333"/>
<path d="M78.0153 45.8767C78.9122 45.8767 79.6393 45.1496 79.6393 44.2527C79.6393 43.3558 78.9122 42.6287 78.0153 42.6287C77.1183 42.6287 76.3912 43.3558 76.3912 44.2527C76.3912 45.1496 77.1183 45.8767 78.0153 45.8767Z" fill="#333333"/>
<path d="M89.1515 45.8767C90.0484 45.8767 90.7755 45.1496 90.7755 44.2527C90.7755 43.3558 90.0484 42.6287 89.1515 42.6287C88.2546 42.6287 87.5275 43.3558 87.5275 44.2527C87.5275 45.1496 88.2546 45.8767 89.1515 45.8767Z" fill="#333333"/>
<path d="M86.4921 48.636C86.5859 48.6358 86.6785 48.6564 86.7632 48.6965C86.848 48.7365 86.9227 48.795 86.982 48.8676C87.0413 48.9402 87.0837 49.0251 87.1061 49.1161C87.1285 49.2071 87.1303 49.302 87.1114 49.3938C86.7632 51.022 85.3162 52.0455 83.5839 52.0455C81.8516 52.0455 80.4045 51.0225 80.0564 49.3938C80.0375 49.302 80.0393 49.2071 80.0617 49.116C80.0841 49.025 80.1265 48.9401 80.1858 48.8675C80.2451 48.7949 80.3199 48.7365 80.4047 48.6964C80.4894 48.6564 80.582 48.6357 80.6758 48.636H86.4921Z" fill="white"/>
<path d="M83.5837 52.2431C81.7174 52.2431 80.2223 51.1147 79.863 49.435C79.8375 49.3154 79.8391 49.1916 79.8677 49.0727C79.8963 48.9538 79.9513 48.8429 80.0285 48.7481C80.1063 48.6514 80.2049 48.5734 80.3169 48.5199C80.4289 48.4664 80.5515 48.4387 80.6756 48.439H86.4924C86.6165 48.4388 86.7391 48.4664 86.8511 48.5199C86.9631 48.5734 87.0617 48.6514 87.1396 48.7481C87.2168 48.8429 87.2717 48.9539 87.3003 49.0727C87.329 49.1916 87.3306 49.3154 87.305 49.435C86.9452 51.1147 85.4496 52.2431 83.5837 52.2431ZM80.6753 48.8336C80.6101 48.8335 80.5457 48.8481 80.4869 48.8762C80.4281 48.9043 80.3763 48.9453 80.3354 48.9961C80.2953 49.0453 80.2667 49.1028 80.2518 49.1645C80.2369 49.2261 80.2361 49.2904 80.2493 49.3524C80.5684 50.845 81.9083 51.8479 83.5834 51.8479C85.2586 51.8479 86.5985 50.845 86.9177 49.3524C86.9309 49.2903 86.93 49.2261 86.9151 49.1644C86.9001 49.1028 86.8715 49.0452 86.8313 48.9961C86.7905 48.9453 86.7387 48.9043 86.6799 48.8762C86.6211 48.8481 86.5567 48.8335 86.4915 48.8336H80.6753Z" fill="#333333"/>
</g>
</g>
<defs>
<clipPath id="clip0_459_2222">
<rect width="166.535" height="220" fill="white" transform="translate(0.232422)"/>
</clipPath>
</defs>
</svg>
