<svg width="24" height="25" viewBox="0 0 24 25" fill="none" xmlns="http://www.w3.org/2000/svg">
<path d="M3.44133 2.44116L20.5587 21.4412M16.8143 17.5889C15.3668 18.4546 13.731 19.0662 12 19.0662C8.22349 19.0662 4.90273 16.1544 2.99949 14.0537C2.49667 13.4992 2.24526 13.2225 2.08585 12.6774C1.97138 12.2891 1.97138 11.5932 2.08585 11.2049C2.24633 10.6599 2.49774 10.382 3.00056 9.82741C3.9602 8.76816 5.27931 7.50466 6.83484 6.51072M20.0238 15.069C20.38 14.7211 20.7063 14.3779 20.9994 14.0549L21.0026 14.0514C21.5033 13.498 21.7547 13.2201 21.9141 12.6786C22.0286 12.2903 22.0286 11.5932 21.9141 11.2049C21.7537 10.661 21.5033 10.3832 21.0005 9.8286C19.0962 7.72791 15.7765 4.81616 12 4.81616C11.6384 4.81616 11.2821 4.84229 10.9302 4.89216M13.4154 13.7224C13.001 14.1286 12.4611 14.3409 11.9087 14.315C11.3564 14.2891 10.8346 14.0269 10.4525 13.5834C10.0705 13.1398 9.85798 12.5494 9.85947 11.9358C9.86095 11.3221 10.0763 10.733 10.4605 10.2917M11.295 12.8814C10.8411 12.1919 11.4543 12.8593 11.8176 13.2792" stroke="#999999" stroke-width="1.8" stroke-linecap="round" stroke-linejoin="round"/>
</svg>
