<svg width="24" height="24" viewBox="0 0 24 24" fill="none" xmlns="http://www.w3.org/2000/svg">
<path d="M18.8961 4.86771L8.04305 3.01946C7.69489 2.96038 7.33664 3.03706 7.0471 3.23267C6.75755 3.42827 6.56042 3.72677 6.49904 4.06252L4.02013 17.6432C3.98981 17.8095 3.99378 17.98 4.03181 18.1449C4.06985 18.3098 4.14121 18.4659 4.2418 18.6041C4.3424 18.7424 4.47027 18.8602 4.61809 18.9508C4.76592 19.0415 4.93081 19.1031 5.10335 19.1322L15.9564 20.9805C16.129 21.0098 16.3059 21.0061 16.4769 20.9694C16.648 20.9328 16.8099 20.864 16.9534 20.767C17.0969 20.67 17.2191 20.5466 17.3131 20.404C17.4071 20.2614 17.4711 20.1023 17.5013 19.9358L19.9802 6.35516C20.0409 6.01928 19.9608 5.67389 19.7575 5.39495C19.5542 5.11601 19.2444 4.92636 18.8961 4.86771ZM16.1864 19.714L5.33249 17.8657L7.81141 4.28511L18.6645 6.13337L16.1864 19.714ZM8.77714 6.40819C8.80802 6.24038 8.90673 6.09126 9.05158 5.99362C9.19642 5.89597 9.37554 5.85779 9.54957 5.88747L16.4655 7.06472C16.6299 7.09249 16.7775 7.1787 16.8791 7.30632C16.9808 7.43394 17.0291 7.59369 17.0146 7.75401C17 7.91432 16.9237 8.06355 16.8006 8.17219C16.6775 8.28084 16.5166 8.34101 16.3497 8.34082C16.3106 8.34077 16.2716 8.33754 16.2331 8.33118L9.31709 7.15312C9.14308 7.12334 8.98846 7.02814 8.88721 6.88846C8.78596 6.74877 8.74637 6.57602 8.77714 6.40819ZM8.31552 8.9411C8.33072 8.85794 8.36275 8.77847 8.40979 8.70725C8.45684 8.63603 8.51797 8.57444 8.5897 8.52601C8.66143 8.47758 8.74235 8.44325 8.82784 8.42499C8.91333 8.40673 9.00172 8.40489 9.08795 8.41957L16.0039 9.59763C16.1694 9.62433 16.3184 9.71026 16.4211 9.83825C16.5238 9.96625 16.5727 10.1269 16.558 10.2881C16.5432 10.4493 16.466 10.5993 16.3417 10.708C16.2173 10.8167 16.0551 10.8762 15.8873 10.8745C15.8478 10.8746 15.8085 10.8711 15.7698 10.8641L8.8538 9.68683C8.67993 9.65669 8.52558 9.56122 8.42465 9.42139C8.32372 9.28156 8.28447 9.10882 8.31552 8.9411ZM7.85307 11.4732C7.88453 11.3058 7.98348 11.1573 8.12826 11.0602C8.27304 10.963 8.45183 10.9252 8.62549 10.9549L12.0818 11.5407C12.2461 11.5685 12.3936 11.6546 12.4953 11.7821C12.5969 11.9097 12.6453 12.0693 12.6309 12.2296C12.6164 12.3898 12.5402 12.5391 12.4173 12.6478C12.2944 12.7565 12.1336 12.8168 11.9668 12.8168C11.9277 12.8168 11.8887 12.8136 11.8502 12.8072L8.39218 12.2181C8.21833 12.1882 8.06391 12.0929 7.96284 11.9532C7.86176 11.8136 7.82228 11.6409 7.85307 11.4732Z" fill="#333333" stroke="#333333" stroke-width="0.2"/>
</svg>
