<svg width="136" height="50" viewBox="0 0 136 50" fill="none" xmlns="http://www.w3.org/2000/svg">
<path fill-rule="evenodd" clip-rule="evenodd" d="M129.664 10.1337C130.137 10.4354 130.679 10.5863 131.288 10.5863C131.839 10.5863 132.327 10.4549 132.752 10.1921C133.066 9.99538 133.302 9.75558 133.46 9.47268C133.494 9.78976 133.601 10.0393 133.782 10.2213C134.004 10.4452 134.318 10.5571 134.724 10.5571C135.14 10.5571 135.454 10.4452 135.667 10.2213C135.889 9.99739 136 9.67129 136 9.24297V1.31417C136 0.885845 135.884 0.559737 135.652 0.335842C135.43 0.111948 135.116 0 134.71 0C134.294 0 133.975 0.111948 133.753 0.335842C133.53 0.559737 133.419 0.885845 133.419 1.31417V4.11332C133.258 3.85865 133.026 3.64109 132.723 3.46064C132.298 3.20754 131.819 3.08099 131.288 3.08099C130.679 3.08099 130.137 3.23187 129.664 3.53365C129.2 3.83542 128.832 4.26374 128.562 4.81861C128.301 5.37348 128.17 6.04516 128.17 6.83366C128.17 7.60269 128.301 8.26951 128.562 8.83411C128.832 9.39872 129.2 9.83191 129.664 10.1337ZM132.81 8.48367C132.607 8.61022 132.375 8.67349 132.114 8.67349C131.718 8.67349 131.394 8.52748 131.143 8.23544C130.891 7.9434 130.766 7.47614 130.766 6.83366C130.766 6.39561 130.824 6.04516 130.94 5.78233C131.056 5.50976 131.215 5.3102 131.418 5.18365C131.621 5.0571 131.853 4.99383 132.114 4.99383C132.501 4.99383 132.82 5.13985 133.071 5.43188C133.322 5.71419 133.448 6.18145 133.448 6.83366C133.448 7.26198 133.39 7.61243 133.274 7.88499C133.168 8.14783 133.013 8.34739 132.81 8.48367ZM40.3948 49.5864C38.5345 49.5864 37.095 49.0763 36.0763 48.0561C35.0576 47.0359 34.5482 45.5499 34.5482 43.5981V21.5746C34.5482 19.6673 35.0354 18.2035 36.0098 17.1832C37.0286 16.163 38.4681 15.6529 40.3284 15.6529C42.1886 15.6529 43.606 16.163 44.5804 17.1832C45.4033 18.0447 45.8787 19.2225 46.0067 20.7165C46.882 19.3434 48.0232 18.21 49.4305 17.3163C51.2907 16.1187 53.4832 15.5198 56.0079 15.5198C58.3997 15.5198 60.4371 16.0965 62.1202 17.2498C63.5821 18.2257 64.695 19.6306 65.4589 21.4642C66.4497 19.7795 67.795 18.4191 69.4949 17.3829C71.5324 16.1408 73.7913 15.5198 76.2717 15.5198C78.8407 15.5198 80.9445 16.0299 82.5834 17.0502C84.2222 18.026 85.4402 19.5785 86.2375 21.7077C87.079 23.7925 87.4998 26.4318 87.4998 29.6255V43.5981C87.4998 45.5499 86.9683 47.0359 85.9053 48.0561C84.8866 49.0763 83.4249 49.5864 81.5203 49.5864C79.6601 49.5864 78.2206 49.0763 77.2018 48.0561C76.1831 47.0359 75.6737 45.5499 75.6737 43.5981V29.9582C75.6737 28.0508 75.3858 26.6758 74.81 25.833C74.2342 24.9902 73.2819 24.5688 71.9532 24.5688C70.3143 24.5688 69.052 25.1454 68.1662 26.2987C67.3246 27.452 66.9038 29.0932 66.9038 31.2224V43.5981C66.9038 45.5499 66.3945 47.0359 65.3757 48.0561C64.357 49.0763 62.8954 49.5864 60.9908 49.5864C59.0862 49.5864 57.6246 49.0763 56.6058 48.0561C55.5871 47.0359 55.0777 45.5499 55.0777 43.5981V29.9582C55.0777 28.0508 54.7898 26.6758 54.214 25.833C53.6382 24.9902 52.686 24.5688 51.3572 24.5688C49.7626 24.5688 48.5225 25.1454 47.6366 26.2987C46.7951 27.452 46.3743 29.0932 46.3743 31.2224V43.5981C46.3743 47.5903 44.3811 49.5864 40.3948 49.5864ZM99.1599 49.4533C97.2997 49.4533 95.8602 48.8989 94.8414 47.7899C93.8227 46.681 93.3133 45.0841 93.3133 42.9993V21.9739C93.3133 19.889 93.8227 18.2922 94.8414 17.1832C95.8602 16.0743 97.2997 15.5198 99.1599 15.5198C101.065 15.5198 102.526 16.0743 103.545 17.1832C104.608 18.2922 105.139 19.889 105.139 21.9739V42.9993C105.139 45.0841 104.63 46.681 103.611 47.7899C102.593 48.8989 101.109 49.4533 99.1599 49.4533ZM112.481 48.06C113.544 49.0802 115.05 49.5903 116.999 49.5903C118.947 49.5903 120.431 49.0802 121.45 48.06C122.469 47.0398 122.978 45.5538 122.978 43.6021V32.6901C122.978 30.5609 123.509 28.9641 124.573 27.8995C125.636 26.7906 127.341 26.1252 129.688 25.9034L131.216 25.7703C133.077 25.5929 134.339 25.0384 135.003 24.1069C135.668 23.1754 136 21.9112 136 20.3144C135.956 18.4513 135.601 17.1872 134.937 16.5218C134.317 15.8121 133.365 15.4794 132.08 15.5237C129.334 15.6125 127.031 16.4331 125.17 17.9856C123.955 19.0248 123.047 20.3126 122.446 21.8487V21.5785C122.446 19.6712 121.959 18.2074 120.985 17.1872C120.01 16.1669 118.593 15.6568 116.733 15.6568C114.872 15.6568 113.433 16.1669 112.414 17.1872C111.44 18.2074 110.953 19.6712 110.953 21.5785V43.6021C110.953 45.5538 111.462 47.0398 112.481 48.06ZM14.4836 50C12.5348 50 10.5416 49.8439 8.50415 49.5317C6.51099 49.264 4.695 48.7511 3.05618 47.9928C1.94887 47.5468 1.1516 46.9446 0.664387 46.1863C0.221462 45.428 0 44.6252 0 43.7777C0.0442925 42.9302 0.287901 42.1719 0.730825 41.5028C1.21804 40.7892 1.83814 40.2985 2.59111 40.0309C3.38837 39.7187 4.27422 39.741 5.24866 40.0978C7.10894 40.7669 8.76991 41.2575 10.2316 41.5698C11.7375 41.8374 13.177 41.9712 14.5501 41.9712C16.1889 41.9712 17.3626 41.7482 18.0713 41.3021C18.78 40.8115 19.1343 40.187 19.1343 39.4287C19.1343 38.7597 18.8907 38.2467 18.4035 37.8899C17.9606 37.5331 17.3183 37.2877 16.4768 37.1539L9.1021 35.9496C6.35597 35.4589 4.22993 34.4553 2.72399 32.9388C1.21804 31.3776 0.465071 29.3481 0.465071 26.8503C0.465071 24.5308 1.10731 22.5459 2.39179 20.8956C3.72057 19.2006 5.51441 17.9071 7.77332 17.015C10.0765 16.0783 12.7119 15.6099 15.6795 15.6099C17.6727 15.6099 19.4887 15.7661 21.1275 16.0783C22.7663 16.3459 24.3608 16.8589 25.9111 17.6171C26.8855 18.0186 27.572 18.5984 27.9707 19.3567C28.3693 20.115 28.5243 20.9179 28.4358 21.7654C28.3472 22.5682 28.0593 23.3265 27.572 24.0402C27.1291 24.7093 26.509 25.1776 25.7118 25.4452C24.9145 25.6683 23.9844 25.6014 22.9213 25.2445C21.4597 24.6647 20.1531 24.2409 19.0015 23.9733C17.8942 23.7057 16.8533 23.5718 15.8788 23.5718C14.0629 23.5718 12.7784 23.8172 12.0254 24.3078C11.2724 24.7985 10.8959 25.4229 10.8959 26.1812C10.8959 26.7611 11.0953 27.2517 11.4939 27.6532C11.8925 28.01 12.5126 28.2553 13.3542 28.3891L20.7289 29.6604C23.5636 30.1064 25.7339 31.0877 27.2399 32.6043C28.7901 34.0762 29.5652 36.0834 29.5652 38.6259C29.5652 42.2388 28.1921 45.0489 25.446 47.0561C22.6999 49.0187 19.0458 50 14.4836 50ZM122.296 10.5863C121.687 10.5863 121.146 10.4354 120.672 10.1337C120.208 9.83191 119.841 9.39872 119.57 8.83411C119.309 8.26951 119.179 7.60269 119.179 6.83366C119.179 6.04516 119.309 5.37348 119.57 4.81861C119.841 4.26374 120.208 3.83542 120.672 3.53365C121.146 3.23187 121.687 3.08099 122.296 3.08099C122.828 3.08099 123.307 3.20754 123.732 3.46064C124.035 3.64109 124.267 3.85865 124.428 4.11332V1.31417C124.428 0.885845 124.539 0.559737 124.761 0.335842C124.984 0.111948 125.303 0 125.718 0C126.124 0 126.439 0.111948 126.661 0.335842C126.893 0.559737 127.009 0.885845 127.009 1.31417V9.24297C127.009 9.67129 126.898 9.99739 126.675 10.2213C126.463 10.4452 126.149 10.5571 125.733 10.5571C125.327 10.5571 125.013 10.4452 124.79 10.2213C124.61 10.0393 124.502 9.78976 124.469 9.47268C124.311 9.75558 124.075 9.99538 123.761 10.1921C123.336 10.4549 122.847 10.5863 122.296 10.5863ZM123.123 8.67349C123.384 8.67349 123.616 8.61022 123.819 8.48367C124.022 8.34739 124.177 8.14783 124.283 7.88499C124.399 7.61243 124.457 7.26198 124.457 6.83366C124.457 6.18145 124.331 5.71419 124.08 5.43188C123.829 5.13985 123.51 4.99383 123.123 4.99383C122.862 4.99383 122.63 5.0571 122.427 5.18365C122.224 5.3102 122.064 5.50976 121.948 5.78233C121.832 6.04516 121.774 6.39561 121.774 6.83366C121.774 7.47614 121.9 7.9434 122.151 8.23544C122.403 8.52748 122.727 8.67349 123.123 8.67349ZM112.287 10.2795C112.712 10.4839 113.2 10.5861 113.751 10.5861C114.109 10.5861 114.428 10.5229 114.708 10.3963C114.988 10.2698 115.215 10.0945 115.389 9.87064C115.498 9.73157 115.581 9.57559 115.641 9.40271C115.664 9.75315 115.764 10.0259 115.94 10.2211C116.153 10.445 116.458 10.5569 116.854 10.5569C117.241 10.5569 117.535 10.445 117.738 10.2211C117.941 9.99719 118.043 9.67109 118.043 9.24277V6.29319C118.043 5.55337 117.912 4.94983 117.651 4.48257C117.4 4.00557 117.013 3.65513 116.491 3.43123C115.979 3.1976 115.327 3.08079 114.534 3.08079C114.205 3.08079 113.843 3.10999 113.447 3.1684C113.06 3.22681 112.635 3.34362 112.171 3.51885C111.919 3.61619 111.731 3.75247 111.605 3.9277C111.489 4.10292 111.426 4.28788 111.417 4.48257C111.417 4.67726 111.465 4.85735 111.562 5.02283C111.668 5.18832 111.813 5.30514 111.997 5.37328C112.18 5.44142 112.403 5.42682 112.664 5.32947C113.021 5.19319 113.345 5.10071 113.635 5.05204C113.925 4.99363 114.186 4.96443 114.418 4.96443C114.853 4.96443 115.157 5.03744 115.331 5.18345C115.515 5.32947 115.607 5.5777 115.607 5.92815V6.13257H115.056C114.06 6.13257 113.263 6.20072 112.664 6.337C112.064 6.46355 111.629 6.67771 111.359 6.97948C111.088 7.28125 110.953 7.69497 110.953 8.22064C110.953 8.67816 111.069 9.08701 111.301 9.44719C111.542 9.79764 111.871 10.0751 112.287 10.2795ZM115.607 7.35913V7.62196C115.607 7.87506 115.549 8.09895 115.433 8.29365C115.317 8.4786 115.162 8.62462 114.969 8.7317C114.785 8.83878 114.573 8.89232 114.331 8.89232C114.031 8.89232 113.799 8.81931 113.635 8.67329C113.48 8.52728 113.403 8.34232 113.403 8.11842C113.403 7.9432 113.461 7.80205 113.577 7.69497C113.693 7.57816 113.872 7.49541 114.114 7.44674C114.365 7.38833 114.679 7.35913 115.056 7.35913H115.607Z" fill="#333333"/>
</svg>
