<svg width="25" height="24" viewBox="0 0 25 24" fill="none" xmlns="http://www.w3.org/2000/svg">
<path d="M11.5695 3.34103C11.8296 3.12084 12.1593 3 12.5 3C12.8407 3 13.1704 3.12084 13.4304 3.34103L20.6244 9.44445C20.7837 9.5795 20.9117 9.74762 20.9995 9.93711C21.0873 10.1266 21.1328 10.3329 21.1328 10.5418V19.5612C21.1328 19.9428 20.9812 20.3088 20.7114 20.5786C20.4416 20.8484 20.0756 21 19.694 21H14.1786C13.9878 21 13.8048 20.9242 13.6699 20.7893C13.535 20.6544 13.4592 20.4714 13.4592 20.2806V14.2856H11.5408V20.2806C11.5408 20.4714 11.465 20.6544 11.3301 20.7893C11.1951 20.9242 11.0122 21 10.8214 21H5.30593C4.92434 21 4.55837 20.8484 4.28854 20.5786C4.01871 20.3088 3.86713 19.9428 3.86713 19.5612V10.5418C3.86713 10.1197 4.05321 9.71782 4.37551 9.44445L11.5695 3.34103ZM12.5 4.43836L5.30593 10.5418V19.5612H10.102V13.5662C10.102 13.3754 10.1778 13.1924 10.3127 13.0575C10.4476 12.9225 10.6306 12.8468 10.8214 12.8468H14.1786C14.3694 12.8468 14.5524 12.9225 14.6873 13.0575C14.8222 13.1924 14.898 13.3754 14.898 13.5662V19.5612H19.694V10.5418L12.5 4.43836Z" fill="#333333"/>
<path d="M12.5 4.43836L5.30593 10.5418V19.5612H10.102V13.5662C10.102 13.3754 10.1778 13.1924 10.3127 13.0575C10.4476 12.9225 10.6306 12.8468 10.8214 12.8468H14.1786C14.3694 12.8468 14.5524 12.9225 14.6873 13.0575C14.8222 13.1924 14.898 13.3754 14.898 13.5662V19.5612H19.694V10.5418L12.5 4.43836Z" fill="#333333"/>
</svg>
