<svg width="169" height="187" viewBox="0 0 169 187" fill="none" xmlns="http://www.w3.org/2000/svg">
<g filter="url(#filter0_d_476_2924)">
<path d="M27.9385 14.2568C27.46 14.2568 27.0316 14.3434 26.6533 14.5166C26.2796 14.6898 25.9629 14.9404 25.7031 15.2686C25.4434 15.5921 25.2451 15.9863 25.1084 16.4512C24.9717 16.9115 24.9033 17.431 24.9033 18.0098C24.9033 18.7845 25.0127 19.4521 25.2314 20.0127C25.4502 20.5687 25.7829 20.9971 26.2295 21.2979C26.6761 21.5941 27.2412 21.7422 27.9248 21.7422C28.3486 21.7422 28.7611 21.7012 29.1621 21.6191C29.5632 21.5371 29.9779 21.4255 30.4062 21.2842V22.6787C30.0007 22.8382 29.5905 22.9544 29.1758 23.0273C28.7611 23.1003 28.2826 23.1367 27.7402 23.1367C26.7194 23.1367 25.8717 22.9248 25.1973 22.501C24.5273 22.0771 24.026 21.4801 23.6934 20.71C23.3652 19.9398 23.2012 19.0374 23.2012 18.0029C23.2012 17.2464 23.306 16.5537 23.5156 15.9248C23.7253 15.2959 24.0306 14.7536 24.4316 14.2979C24.8327 13.8376 25.3271 13.4844 25.915 13.2383C26.5075 12.9876 27.1842 12.8623 27.9453 12.8623C28.4466 12.8623 28.9388 12.9193 29.4219 13.0332C29.9095 13.1426 30.3607 13.2998 30.7754 13.5049L30.2012 14.8584C29.8548 14.6943 29.4925 14.5531 29.1143 14.4346C28.736 14.3161 28.3441 14.2568 27.9385 14.2568ZM38.7529 17.374C38.7529 17.8115 38.6185 18.1693 38.3496 18.4473C38.0853 18.7207 37.7207 18.9007 37.2559 18.9873V19.042C37.7526 19.1058 38.1673 19.2812 38.5 19.5684C38.8327 19.8555 38.999 20.2542 38.999 20.7646C38.999 21.1976 38.8896 21.5827 38.6709 21.9199C38.4567 22.2526 38.1149 22.5169 37.6455 22.7129C37.1807 22.9043 36.5723 23 35.8203 23H32.3887V15.4326H35.8066C36.3717 15.4326 36.8753 15.4941 37.3174 15.6172C37.764 15.7402 38.1149 15.943 38.3701 16.2256C38.6253 16.5081 38.7529 16.891 38.7529 17.374ZM37.3242 20.71C37.3242 20.3363 37.1807 20.0674 36.8936 19.9033C36.611 19.7393 36.1963 19.6572 35.6494 19.6572H34.002V21.8174H35.6836C36.194 21.8174 36.5951 21.7331 36.8867 21.5645C37.1784 21.3913 37.3242 21.1064 37.3242 20.71ZM37.1191 17.5176C37.1191 17.2214 37.0075 17.0026 36.7842 16.8613C36.5609 16.7155 36.21 16.6426 35.7314 16.6426H34.002V18.4746H35.5127C36.0413 18.4746 36.4401 18.3994 36.709 18.249C36.9824 18.0941 37.1191 17.8503 37.1191 17.5176ZM43.7773 15.2891C44.7344 15.2891 45.4567 15.501 45.9443 15.9248C46.4365 16.3486 46.6826 17.0094 46.6826 17.9072V23H45.541L45.2334 21.9268H45.1787C44.9645 22.2002 44.7435 22.4258 44.5156 22.6035C44.2878 22.7812 44.0234 22.9134 43.7227 23C43.4264 23.0911 43.0641 23.1367 42.6357 23.1367C42.1846 23.1367 41.7812 23.0547 41.4258 22.8906C41.0703 22.722 40.79 22.4668 40.585 22.125C40.3799 21.7832 40.2773 21.3503 40.2773 20.8262C40.2773 20.0469 40.5667 19.4613 41.1455 19.0693C41.7288 18.6774 42.6084 18.4609 43.7842 18.4199L45.0967 18.3721V17.9756C45.0967 17.4515 44.9736 17.0778 44.7275 16.8545C44.486 16.6312 44.1442 16.5195 43.7021 16.5195C43.3239 16.5195 42.957 16.5742 42.6016 16.6836C42.2461 16.793 41.8997 16.9274 41.5625 17.0869L41.043 15.9521C41.4121 15.7562 41.8314 15.5967 42.3008 15.4736C42.7747 15.3506 43.2669 15.2891 43.7773 15.2891ZM45.0898 19.3838L44.1123 19.418C43.3102 19.4453 42.7474 19.582 42.4238 19.8281C42.1003 20.0742 41.9385 20.4115 41.9385 20.8398C41.9385 21.2135 42.0501 21.487 42.2734 21.6602C42.4967 21.8288 42.7907 21.9131 43.1553 21.9131C43.7113 21.9131 44.1715 21.7559 44.5361 21.4414C44.9053 21.1224 45.0898 20.6553 45.0898 20.04V19.3838ZM50.4766 15.4326V19.2949C50.4766 19.418 50.472 19.5752 50.4629 19.7666C50.4583 19.9535 50.4492 20.1494 50.4355 20.3545C50.4219 20.555 50.4082 20.7396 50.3945 20.9082C50.3809 21.0768 50.3695 21.2021 50.3604 21.2842L54.168 15.4326H56.123V23H54.585V19.1787C54.585 18.9782 54.5895 18.7458 54.5986 18.4814C54.6123 18.2171 54.626 17.9619 54.6396 17.7158C54.6579 17.4697 54.6693 17.2829 54.6738 17.1553L50.8799 23H48.9316V15.4326H50.4766ZM55.5557 12.2471C55.5101 12.7165 55.3825 13.1221 55.1729 13.4639C54.9678 13.8011 54.6556 14.0609 54.2363 14.2432C53.8171 14.4255 53.2656 14.5166 52.582 14.5166C51.8757 14.5166 51.3174 14.43 50.9072 14.2568C50.4971 14.0791 50.2008 13.8216 50.0186 13.4844C49.8363 13.1426 49.7269 12.7301 49.6904 12.2471H51.1533C51.1989 12.7529 51.3311 13.0947 51.5498 13.2725C51.7686 13.4456 52.1217 13.5322 52.6094 13.5322C53.0286 13.5322 53.3636 13.4388 53.6143 13.252C53.8695 13.0651 54.0221 12.7301 54.0723 12.2471H55.5557ZM65.0439 15.4326V23H63.4238V16.7041H60.0469V23H58.4336V15.4326H65.0439ZM68.9609 15.4326V18.4746H72.502V15.4326H74.1152V23H72.502V19.7324H68.9609V23H67.3477V15.4326H68.9609ZM77.957 15.4326V19.2949C77.957 19.418 77.9525 19.5752 77.9434 19.7666C77.9388 19.9535 77.9297 20.1494 77.916 20.3545C77.9023 20.555 77.8887 20.7396 77.875 20.9082C77.8613 21.0768 77.8499 21.2021 77.8408 21.2842L81.6484 15.4326H83.6035V23H82.0654V19.1787C82.0654 18.9782 82.07 18.7458 82.0791 18.4814C82.0928 18.2171 82.1064 17.9619 82.1201 17.7158C82.1383 17.4697 82.1497 17.2829 82.1543 17.1553L78.3604 23H76.4121V15.4326H77.957ZM91.6289 16.6973H89.1406V23H87.541V16.6973H85.0664V15.4326H91.6289V16.6973ZM96.1064 15.2891C96.7809 15.2891 97.3597 15.4281 97.8428 15.7061C98.3258 15.984 98.6973 16.3783 98.957 16.8887C99.2168 17.3991 99.3467 18.0098 99.3467 18.7207V19.582H94.2949C94.3132 20.3158 94.5091 20.8809 94.8828 21.2773C95.2611 21.6738 95.7897 21.8721 96.4688 21.8721C96.9518 21.8721 97.3848 21.8265 97.7676 21.7354C98.1549 21.6396 98.5537 21.5007 98.9639 21.3184V22.624C98.5856 22.8018 98.2005 22.9316 97.8086 23.0137C97.4167 23.0957 96.9473 23.1367 96.4004 23.1367C95.6576 23.1367 95.0036 22.9932 94.4385 22.7061C93.8779 22.4144 93.4382 21.9814 93.1191 21.4072C92.8047 20.833 92.6475 20.1198 92.6475 19.2676C92.6475 18.4199 92.791 17.6999 93.0781 17.1074C93.3652 16.515 93.7686 16.0638 94.2881 15.7539C94.8076 15.444 95.4137 15.2891 96.1064 15.2891ZM96.1064 16.499C95.6006 16.499 95.1904 16.6631 94.876 16.9912C94.5661 17.3193 94.3838 17.8001 94.3291 18.4336H97.7744C97.7699 18.0553 97.7061 17.7204 97.583 17.4287C97.4645 17.137 97.2822 16.9092 97.0361 16.7451C96.7946 16.5811 96.4847 16.499 96.1064 16.499ZM111.159 17.374C111.159 17.8115 111.025 18.1693 110.756 18.4473C110.492 18.7207 110.127 18.9007 109.662 18.9873V19.042C110.159 19.1058 110.574 19.2812 110.906 19.5684C111.239 19.8555 111.405 20.2542 111.405 20.7646C111.405 21.1976 111.296 21.5827 111.077 21.9199C110.863 22.2526 110.521 22.5169 110.052 22.7129C109.587 22.9043 108.979 23 108.227 23H104.795V15.4326H108.213C108.778 15.4326 109.282 15.4941 109.724 15.6172C110.17 15.7402 110.521 15.943 110.776 16.2256C111.032 16.5081 111.159 16.891 111.159 17.374ZM109.73 20.71C109.73 20.3363 109.587 20.0674 109.3 19.9033C109.017 19.7393 108.603 19.6572 108.056 19.6572H106.408V21.8174H108.09C108.6 21.8174 109.001 21.7331 109.293 21.5645C109.585 21.3913 109.73 21.1064 109.73 20.71ZM109.525 17.5176C109.525 17.2214 109.414 17.0026 109.19 16.8613C108.967 16.7155 108.616 16.6426 108.138 16.6426H106.408V18.4746H107.919C108.448 18.4746 108.846 18.3994 109.115 18.249C109.389 18.0941 109.525 17.8503 109.525 17.5176ZM119.444 23H117.824V16.6904H115.726C115.634 17.8389 115.521 18.821 115.384 19.6367C115.247 20.4525 115.076 21.1178 114.871 21.6328C114.666 22.1432 114.413 22.5169 114.112 22.7539C113.812 22.9909 113.449 23.1094 113.025 23.1094C112.839 23.1094 112.67 23.0957 112.52 23.0684C112.369 23.0456 112.235 23.0091 112.116 22.959V21.6943C112.194 21.7217 112.278 21.7445 112.369 21.7627C112.46 21.7809 112.554 21.79 112.649 21.79C112.818 21.79 112.973 21.7217 113.114 21.585C113.26 21.4437 113.395 21.2227 113.518 20.9219C113.641 20.6211 113.752 20.2246 113.853 19.7324C113.953 19.2357 114.044 18.6341 114.126 17.9277C114.208 17.2168 114.281 16.3851 114.345 15.4326H119.444V23ZM124.763 15.2891C125.437 15.2891 126.016 15.4281 126.499 15.7061C126.982 15.984 127.354 16.3783 127.613 16.8887C127.873 17.3991 128.003 18.0098 128.003 18.7207V19.582H122.951C122.969 20.3158 123.165 20.8809 123.539 21.2773C123.917 21.6738 124.446 21.8721 125.125 21.8721C125.608 21.8721 126.041 21.8265 126.424 21.7354C126.811 21.6396 127.21 21.5007 127.62 21.3184V22.624C127.242 22.8018 126.857 22.9316 126.465 23.0137C126.073 23.0957 125.604 23.1367 125.057 23.1367C124.314 23.1367 123.66 22.9932 123.095 22.7061C122.534 22.4144 122.094 21.9814 121.775 21.4072C121.461 20.833 121.304 20.1198 121.304 19.2676C121.304 18.4199 121.447 17.6999 121.734 17.1074C122.021 16.515 122.425 16.0638 122.944 15.7539C123.464 15.444 124.07 15.2891 124.763 15.2891ZM124.763 16.499C124.257 16.499 123.847 16.6631 123.532 16.9912C123.222 17.3193 123.04 17.8001 122.985 18.4336H126.431C126.426 18.0553 126.362 17.7204 126.239 17.4287C126.121 17.137 125.938 16.9092 125.692 16.7451C125.451 16.5811 125.141 16.499 124.763 16.499ZM136.179 17.374C136.179 17.8115 136.044 18.1693 135.775 18.4473C135.511 18.7207 135.146 18.9007 134.682 18.9873V19.042C135.178 19.1058 135.593 19.2812 135.926 19.5684C136.258 19.8555 136.425 20.2542 136.425 20.7646C136.425 21.1976 136.315 21.5827 136.097 21.9199C135.882 22.2526 135.541 22.5169 135.071 22.7129C134.606 22.9043 133.998 23 133.246 23H129.814V15.4326H133.232C133.798 15.4326 134.301 15.4941 134.743 15.6172C135.19 15.7402 135.541 15.943 135.796 16.2256C136.051 16.5081 136.179 16.891 136.179 17.374ZM134.75 20.71C134.75 20.3363 134.606 20.0674 134.319 19.9033C134.037 19.7393 133.622 19.6572 133.075 19.6572H131.428V21.8174H133.109C133.62 21.8174 134.021 21.7331 134.312 21.5645C134.604 21.3913 134.75 21.1064 134.75 20.71ZM134.545 17.5176C134.545 17.2214 134.433 17.0026 134.21 16.8613C133.987 16.7155 133.636 16.6426 133.157 16.6426H131.428V18.4746H132.938C133.467 18.4746 133.866 18.3994 134.135 18.249C134.408 18.0941 134.545 17.8503 134.545 17.5176ZM144.936 19.1992C144.936 19.8281 144.854 20.3864 144.689 20.874C144.525 21.3617 144.286 21.7741 143.972 22.1113C143.657 22.444 143.279 22.6992 142.837 22.877C142.395 23.0501 141.896 23.1367 141.34 23.1367C140.82 23.1367 140.344 23.0501 139.911 22.877C139.478 22.6992 139.102 22.444 138.783 22.1113C138.469 21.7741 138.225 21.3617 138.052 20.874C137.879 20.3864 137.792 19.8281 137.792 19.1992C137.792 18.3652 137.936 17.6589 138.223 17.0801C138.514 16.4967 138.929 16.0524 139.467 15.7471C140.005 15.4417 140.645 15.2891 141.388 15.2891C142.085 15.2891 142.7 15.4417 143.233 15.7471C143.767 16.0524 144.184 16.4967 144.484 17.0801C144.785 17.6634 144.936 18.3698 144.936 19.1992ZM139.446 19.1992C139.446 19.7507 139.512 20.2223 139.645 20.6143C139.781 21.0062 139.991 21.307 140.273 21.5166C140.556 21.7217 140.921 21.8242 141.367 21.8242C141.814 21.8242 142.178 21.7217 142.461 21.5166C142.743 21.307 142.951 21.0062 143.083 20.6143C143.215 20.2223 143.281 19.7507 143.281 19.1992C143.281 18.6478 143.215 18.1807 143.083 17.7979C142.951 17.4105 142.743 17.1165 142.461 16.916C142.178 16.7109 141.812 16.6084 141.36 16.6084C140.695 16.6084 140.21 16.8317 139.904 17.2783C139.599 17.7249 139.446 18.3652 139.446 19.1992Z" fill="white"/>
<path d="M101.345 86.6414V95.0779C101.345 100.967 99.4045 104.92 99.3202 105.08C99.2413 105.251 99.1288 105.404 98.9895 105.531C98.8502 105.657 98.6869 105.755 98.5092 105.817C98.3315 105.88 98.1431 105.906 97.9552 105.894C97.7672 105.882 97.5836 105.833 97.4151 105.748C97.2467 105.664 97.0968 105.547 96.9745 105.404C96.8522 105.261 96.7598 105.095 96.703 104.915C96.6462 104.736 96.6259 104.546 96.6436 104.359C96.6612 104.171 96.7163 103.989 96.8056 103.824C96.822 103.791 98.5328 100.264 98.5328 95.0779V86.6414C98.5328 85.7713 98.1871 84.9368 97.5718 84.3215C96.9565 83.7062 96.122 83.3605 95.2519 83.3605C94.3818 83.3605 93.5473 83.7062 92.932 84.3215C92.3167 84.9368 91.9711 85.7713 91.9711 86.6414V87.5788C91.9711 87.9517 91.8229 88.3093 91.5592 88.573C91.2956 88.8367 90.9379 88.9849 90.565 88.9849C90.1921 88.9849 89.8344 88.8367 89.5707 88.573C89.3071 88.3093 89.1589 87.9517 89.1589 87.5788V82.8919C89.1589 82.0217 88.8133 81.1872 88.198 80.572C87.5827 79.9567 86.7482 79.611 85.8781 79.611C85.0079 79.611 84.1734 79.9567 83.5582 80.572C82.9429 81.1872 82.5972 82.0217 82.5972 82.8919V85.704C82.5972 86.0769 82.4491 86.4346 82.1854 86.6983C81.9217 86.9619 81.5641 87.1101 81.1912 87.1101C80.8182 87.1101 80.4606 86.9619 80.1969 86.6983C79.9332 86.4346 79.7851 86.0769 79.7851 85.704V69.7685C79.7851 68.8983 79.4394 68.0639 78.8241 67.4486C78.2089 66.8333 77.3744 66.4876 76.5042 66.4876C75.6341 66.4876 74.7996 66.8333 74.1843 67.4486C73.569 68.0639 73.2234 68.8983 73.2234 69.7685V95.0779C73.223 95.3831 73.1234 95.68 72.9394 95.9236C72.7555 96.1672 72.4973 96.3443 72.2038 96.4282C71.9103 96.5121 71.5974 96.4982 71.3125 96.3886C71.0276 96.279 70.7861 96.0797 70.6245 95.8207L66.2469 88.7903C66.2378 88.7779 66.23 88.7645 66.2235 88.7505C65.7884 87.9969 65.0718 87.447 64.2313 87.2218C63.3908 86.9965 62.4952 87.1144 61.7416 87.5495C60.988 87.9846 60.4381 88.7012 60.2129 89.5417C59.9876 90.3822 60.1055 91.2778 60.5406 92.0314L67.4046 103.749C67.5123 103.908 67.5861 104.089 67.6212 104.278C67.6564 104.468 67.6522 104.662 67.609 104.85C67.5657 105.038 67.4843 105.215 67.3698 105.37C67.2554 105.525 67.1102 105.655 66.9434 105.751C66.7766 105.848 66.5918 105.909 66.4003 105.931C66.2089 105.954 66.0149 105.936 65.8305 105.88C65.6461 105.824 65.4751 105.731 65.3282 105.606C65.1814 105.481 65.0617 105.328 64.9768 105.155L58.1057 93.4374C57.2937 92.039 57.0705 90.3753 57.4851 88.8122C57.8998 87.2492 58.9184 85.9149 60.3168 85.1029C61.7152 84.2909 63.3789 84.0677 64.942 84.4823C66.505 84.897 67.8393 85.9155 68.6513 87.314L70.4112 90.1566V69.7685C70.4112 68.1525 71.0532 66.6027 72.1958 65.4601C73.3385 64.3174 74.8883 63.6755 76.5042 63.6755C78.1202 63.6755 79.67 64.3174 80.8126 65.4601C81.9553 66.6027 82.5972 68.1525 82.5972 69.7685V77.7597C83.4251 77.2301 84.3689 76.9086 85.348 76.8226C86.327 76.7367 87.3123 76.8889 88.2198 77.2662C89.1274 77.6435 89.9301 78.2348 90.5597 78.9895C91.1892 79.7443 91.6268 80.6401 91.8351 81.6006C92.7511 80.9803 93.8187 80.621 94.9233 80.5613C96.028 80.5017 97.1281 80.7439 98.1055 81.262C99.0829 81.7801 99.9009 82.5545 100.472 83.5022C101.042 84.4499 101.344 85.5351 101.345 86.6414ZM109.313 65.5503H95.8331L100.932 60.4509C101.192 60.1863 101.337 59.8297 101.336 59.4588C101.334 59.0879 101.186 58.7326 100.923 58.4705C100.661 58.2084 100.305 58.0606 99.9345 58.0593C99.5635 58.058 99.2071 58.2033 98.9429 58.4636L91.4438 65.9627C91.1805 66.2263 91.0326 66.5837 91.0326 66.9563C91.0326 67.3289 91.1805 67.6863 91.4438 67.95L98.9429 75.449C99.2071 75.7093 99.5635 75.8547 99.9345 75.8534C100.305 75.8521 100.661 75.7043 100.923 75.4422C101.186 75.18 101.334 74.8248 101.336 74.4539C101.337 74.0829 101.192 73.7263 100.932 73.4618L95.8331 68.3624H109.313C109.686 68.3624 110.043 68.2143 110.307 67.9506C110.571 67.6869 110.719 67.3292 110.719 66.9563C110.719 66.5834 110.571 66.2258 110.307 65.9621C110.043 65.6984 109.686 65.5503 109.313 65.5503Z" fill="#EEF1F7"/>
<path d="M18.915 143.433V146.174C18.915 146.575 19.0199 146.873 19.2295 147.069C19.4391 147.265 19.7399 147.363 20.1318 147.363C20.5693 147.363 20.9704 147.304 21.335 147.186C21.7041 147.067 22.0755 146.908 22.4492 146.707V143.433H24.0557V151H22.4492V147.801C22.071 148.024 21.6768 148.211 21.2666 148.361C20.8564 148.512 20.3757 148.587 19.8242 148.587C19.0404 148.587 18.4251 148.384 17.9785 147.979C17.5319 147.573 17.3086 146.994 17.3086 146.242V143.433H18.915ZM32.0674 144.697H29.5791V151H27.9795V144.697H25.5049V143.433H32.0674V144.697ZM40.2295 147.199C40.2295 147.828 40.1475 148.386 39.9834 148.874C39.8193 149.362 39.5801 149.774 39.2656 150.111C38.9512 150.444 38.5729 150.699 38.1309 150.877C37.6888 151.05 37.1898 151.137 36.6338 151.137C36.1143 151.137 35.638 151.05 35.2051 150.877C34.7721 150.699 34.3962 150.444 34.0771 150.111C33.7627 149.774 33.5189 149.362 33.3457 148.874C33.1725 148.386 33.0859 147.828 33.0859 147.199C33.0859 146.365 33.2295 145.659 33.5166 145.08C33.8083 144.497 34.223 144.052 34.7607 143.747C35.2985 143.442 35.9388 143.289 36.6816 143.289C37.3789 143.289 37.9941 143.442 38.5273 143.747C39.0605 144.052 39.4775 144.497 39.7783 145.08C40.0791 145.663 40.2295 146.37 40.2295 147.199ZM34.7402 147.199C34.7402 147.751 34.8063 148.222 34.9385 148.614C35.0752 149.006 35.2848 149.307 35.5674 149.517C35.8499 149.722 36.2145 149.824 36.6611 149.824C37.1077 149.824 37.4723 149.722 37.7549 149.517C38.0374 149.307 38.2448 149.006 38.377 148.614C38.5091 148.222 38.5752 147.751 38.5752 147.199C38.5752 146.648 38.5091 146.181 38.377 145.798C38.2448 145.41 38.0374 145.117 37.7549 144.916C37.4723 144.711 37.1055 144.608 36.6543 144.608C35.9889 144.608 35.5036 144.832 35.1982 145.278C34.8929 145.725 34.7402 146.365 34.7402 147.199ZM41.6445 146.461C41.6445 145.363 41.7653 144.428 42.0068 143.658C42.2484 142.888 42.6289 142.271 43.1484 141.806C43.668 141.341 44.3424 141.024 45.1719 140.855C45.7096 140.732 46.2565 140.628 46.8125 140.541C47.3685 140.454 47.9245 140.37 48.4805 140.288L48.6992 141.703C48.4395 141.735 48.1615 141.774 47.8652 141.819C47.569 141.86 47.2705 141.904 46.9697 141.949C46.6735 141.995 46.3887 142.043 46.1152 142.093C45.8464 142.138 45.6048 142.184 45.3906 142.229C44.9622 142.321 44.5999 142.471 44.3037 142.681C44.012 142.886 43.7842 143.187 43.6201 143.583C43.4561 143.979 43.3581 144.508 43.3262 145.169H43.415C43.5381 144.982 43.709 144.795 43.9277 144.608C44.1465 144.422 44.4108 144.267 44.7207 144.144C45.0352 144.016 45.3929 143.952 45.7939 143.952C46.4229 143.952 46.9561 144.084 47.3936 144.349C47.8356 144.613 48.1706 144.996 48.3984 145.497C48.6309 145.998 48.7471 146.602 48.7471 147.309C48.7471 148.152 48.5967 148.858 48.2959 149.428C47.9997 149.993 47.585 150.419 47.0518 150.706C46.5186 150.993 45.8965 151.137 45.1855 151.137C44.6387 151.137 44.1465 151.034 43.709 150.829C43.276 150.624 42.9046 150.323 42.5947 149.927C42.2894 149.526 42.0547 149.036 41.8906 148.457C41.7266 147.874 41.6445 147.208 41.6445 146.461ZM45.2949 149.817C45.6595 149.817 45.974 149.74 46.2383 149.585C46.5072 149.43 46.7145 149.179 46.8604 148.833C47.0107 148.487 47.0859 148.029 47.0859 147.459C47.0859 146.757 46.9583 146.206 46.7031 145.805C46.4525 145.399 46.0378 145.196 45.459 145.196C45.1035 145.196 44.7777 145.276 44.4814 145.436C44.1852 145.595 43.9346 145.782 43.7295 145.996C43.5244 146.206 43.3786 146.39 43.292 146.55C43.292 146.965 43.3216 147.366 43.3809 147.753C43.4447 148.14 43.5495 148.491 43.6953 148.806C43.8457 149.116 44.0508 149.362 44.3105 149.544C44.5703 149.726 44.8984 149.817 45.2949 149.817ZM50.5928 151V143.433H52.2061V146.454H53.7305C54.4414 146.454 55.027 146.536 55.4873 146.7C55.9476 146.86 56.2894 147.101 56.5127 147.425C56.736 147.748 56.8477 148.154 56.8477 148.642C56.8477 149.12 56.7406 149.537 56.5264 149.893C56.3122 150.243 55.9772 150.517 55.5215 150.713C55.0658 150.904 54.4688 151 53.7305 151H50.5928ZM52.2061 149.817H53.6211C54.1042 149.817 54.4938 149.731 54.79 149.558C55.0908 149.38 55.2412 149.088 55.2412 148.683C55.2412 148.304 55.1022 148.038 54.8242 147.883C54.5508 147.723 54.1497 147.644 53.6211 147.644H52.2061V149.817ZM58.0166 151V143.433H59.6299V151H58.0166ZM72.1738 143.433V151H70.5537V144.704H67.1768V151H65.5635V143.433H72.1738ZM81.1768 147.199C81.1768 147.828 81.0947 148.386 80.9307 148.874C80.7666 149.362 80.5273 149.774 80.2129 150.111C79.8984 150.444 79.5202 150.699 79.0781 150.877C78.6361 151.05 78.137 151.137 77.5811 151.137C77.0615 151.137 76.5853 151.05 76.1523 150.877C75.7194 150.699 75.3434 150.444 75.0244 150.111C74.71 149.774 74.4661 149.362 74.293 148.874C74.1198 148.386 74.0332 147.828 74.0332 147.199C74.0332 146.365 74.1768 145.659 74.4639 145.08C74.7555 144.497 75.1702 144.052 75.708 143.747C76.2458 143.442 76.8861 143.289 77.6289 143.289C78.3262 143.289 78.9414 143.442 79.4746 143.747C80.0078 144.052 80.4248 144.497 80.7256 145.08C81.0264 145.663 81.1768 146.37 81.1768 147.199ZM75.6875 147.199C75.6875 147.751 75.7536 148.222 75.8857 148.614C76.0225 149.006 76.2321 149.307 76.5146 149.517C76.7972 149.722 77.1618 149.824 77.6084 149.824C78.055 149.824 78.4196 149.722 78.7021 149.517C78.9847 149.307 79.1921 149.006 79.3242 148.614C79.4564 148.222 79.5225 147.751 79.5225 147.199C79.5225 146.648 79.4564 146.181 79.3242 145.798C79.1921 145.41 78.9847 145.117 78.7021 144.916C78.4196 144.711 78.0527 144.608 77.6016 144.608C76.9362 144.608 76.4508 144.832 76.1455 145.278C75.8402 145.725 75.6875 146.365 75.6875 147.199ZM86.0713 151.137C85.3558 151.137 84.736 150.998 84.2119 150.72C83.6878 150.442 83.2845 150.016 83.002 149.441C82.7194 148.867 82.5781 148.138 82.5781 147.254C82.5781 146.333 82.7331 145.581 83.043 144.998C83.3529 144.415 83.7812 143.984 84.3281 143.706C84.8796 143.428 85.5107 143.289 86.2217 143.289C86.6729 143.289 87.0807 143.335 87.4453 143.426C87.8145 143.512 88.1266 143.619 88.3818 143.747L87.9033 145.032C87.6253 144.918 87.3405 144.823 87.0488 144.745C86.7572 144.668 86.4769 144.629 86.208 144.629C85.766 144.629 85.3968 144.727 85.1006 144.923C84.8089 145.119 84.5902 145.41 84.4443 145.798C84.3031 146.185 84.2324 146.666 84.2324 147.24C84.2324 147.796 84.3053 148.266 84.4512 148.648C84.597 149.027 84.8135 149.314 85.1006 149.51C85.3877 149.701 85.7409 149.797 86.1602 149.797C86.5749 149.797 86.9463 149.747 87.2744 149.646C87.6025 149.546 87.9124 149.416 88.2041 149.257V150.651C87.917 150.815 87.6094 150.936 87.2812 151.014C86.9531 151.096 86.5498 151.137 86.0713 151.137ZM98.752 143.433V151H97.2617V146.68C97.2617 146.397 97.2686 146.115 97.2822 145.832C97.2959 145.549 97.3141 145.281 97.3369 145.025H97.2959L94.9922 151H93.7275L91.4443 145.019H91.3965C91.4193 145.278 91.4352 145.547 91.4443 145.825C91.458 146.103 91.4648 146.404 91.4648 146.728V151H89.9746V143.433H92.2168L94.377 149.086L96.5713 143.433H98.752ZM107.728 147.199C107.728 147.828 107.646 148.386 107.481 148.874C107.317 149.362 107.078 149.774 106.764 150.111C106.449 150.444 106.071 150.699 105.629 150.877C105.187 151.05 104.688 151.137 104.132 151.137C103.612 151.137 103.136 151.05 102.703 150.877C102.27 150.699 101.894 150.444 101.575 150.111C101.261 149.774 101.017 149.362 100.844 148.874C100.671 148.386 100.584 147.828 100.584 147.199C100.584 146.365 100.728 145.659 101.015 145.08C101.306 144.497 101.721 144.052 102.259 143.747C102.797 143.442 103.437 143.289 104.18 143.289C104.877 143.289 105.492 143.442 106.025 143.747C106.559 144.052 106.976 144.497 107.276 145.08C107.577 145.663 107.728 146.37 107.728 147.199ZM102.238 147.199C102.238 147.751 102.304 148.222 102.437 148.614C102.573 149.006 102.783 149.307 103.065 149.517C103.348 149.722 103.713 149.824 104.159 149.824C104.606 149.824 104.97 149.722 105.253 149.517C105.535 149.307 105.743 149.006 105.875 148.614C106.007 148.222 106.073 147.751 106.073 147.199C106.073 146.648 106.007 146.181 105.875 145.798C105.743 145.41 105.535 145.117 105.253 144.916C104.97 144.711 104.604 144.608 104.152 144.608C103.487 144.608 103.002 144.832 102.696 145.278C102.391 145.725 102.238 146.365 102.238 147.199ZM115.288 144.697H112.8V151H111.2V144.697H108.726V143.433H115.288V144.697ZM120.634 143.289C121.532 143.289 122.252 143.617 122.794 144.273C123.341 144.93 123.614 145.905 123.614 147.199C123.614 148.056 123.487 148.778 123.231 149.366C122.981 149.95 122.628 150.392 122.172 150.692C121.721 150.989 121.194 151.137 120.593 151.137C120.21 151.137 119.877 151.087 119.595 150.986C119.312 150.886 119.071 150.756 118.87 150.597C118.67 150.433 118.501 150.255 118.364 150.063H118.269C118.291 150.246 118.312 150.449 118.33 150.672C118.353 150.891 118.364 151.091 118.364 151.273V154.356H116.751V143.433H118.063L118.289 144.479H118.364C118.506 144.264 118.676 144.066 118.877 143.884C119.082 143.701 119.328 143.558 119.615 143.453C119.907 143.344 120.246 143.289 120.634 143.289ZM120.203 144.602C119.761 144.602 119.406 144.69 119.137 144.868C118.872 145.041 118.679 145.303 118.556 145.654C118.437 146.005 118.373 146.445 118.364 146.974V147.199C118.364 147.76 118.421 148.236 118.535 148.628C118.654 149.015 118.847 149.312 119.116 149.517C119.39 149.717 119.759 149.817 120.224 149.817C120.616 149.817 120.939 149.71 121.194 149.496C121.454 149.282 121.648 148.977 121.775 148.58C121.903 148.184 121.967 147.716 121.967 147.179C121.967 146.363 121.821 145.729 121.529 145.278C121.242 144.827 120.8 144.602 120.203 144.602ZM128.488 143.289C129.163 143.289 129.742 143.428 130.225 143.706C130.708 143.984 131.079 144.378 131.339 144.889C131.599 145.399 131.729 146.01 131.729 146.721V147.582H126.677C126.695 148.316 126.891 148.881 127.265 149.277C127.643 149.674 128.172 149.872 128.851 149.872C129.334 149.872 129.767 149.826 130.149 149.735C130.537 149.64 130.936 149.501 131.346 149.318V150.624C130.967 150.802 130.582 150.932 130.19 151.014C129.799 151.096 129.329 151.137 128.782 151.137C128.039 151.137 127.385 150.993 126.82 150.706C126.26 150.414 125.82 149.981 125.501 149.407C125.187 148.833 125.029 148.12 125.029 147.268C125.029 146.42 125.173 145.7 125.46 145.107C125.747 144.515 126.15 144.064 126.67 143.754C127.189 143.444 127.796 143.289 128.488 143.289ZM128.488 144.499C127.982 144.499 127.572 144.663 127.258 144.991C126.948 145.319 126.766 145.8 126.711 146.434H130.156C130.152 146.055 130.088 145.72 129.965 145.429C129.846 145.137 129.664 144.909 129.418 144.745C129.176 144.581 128.867 144.499 128.488 144.499ZM139.255 144.697H136.767V151H135.167V144.697H132.692V143.433H139.255V144.697ZM142.331 146.454H144.211C144.922 146.454 145.51 146.536 145.975 146.7C146.444 146.86 146.795 147.101 147.027 147.425C147.26 147.748 147.376 148.154 147.376 148.642C147.376 149.12 147.267 149.537 147.048 149.893C146.829 150.243 146.487 150.517 146.022 150.713C145.562 150.904 144.961 151 144.218 151H140.718V143.433H142.331V146.454ZM145.763 148.683C145.763 148.304 145.621 148.038 145.339 147.883C145.056 147.723 144.653 147.644 144.129 147.644H142.331V149.817H144.143C144.621 149.817 145.011 149.731 145.312 149.558C145.612 149.38 145.763 149.088 145.763 148.683ZM15.5654 171.137C14.8499 171.137 14.2301 170.998 13.7061 170.72C13.182 170.442 12.7786 170.016 12.4961 169.441C12.2135 168.867 12.0723 168.138 12.0723 167.254C12.0723 166.333 12.2272 165.581 12.5371 164.998C12.847 164.415 13.2754 163.984 13.8223 163.706C14.3737 163.428 15.0049 163.289 15.7158 163.289C16.167 163.289 16.5749 163.335 16.9395 163.426C17.3086 163.512 17.6208 163.619 17.876 163.747L17.3975 165.032C17.1195 164.918 16.8346 164.823 16.543 164.745C16.2513 164.668 15.971 164.629 15.7021 164.629C15.2601 164.629 14.891 164.727 14.5947 164.923C14.3031 165.119 14.0843 165.41 13.9385 165.798C13.7972 166.185 13.7266 166.666 13.7266 167.24C13.7266 167.796 13.7995 168.266 13.9453 168.648C14.0911 169.027 14.3076 169.314 14.5947 169.51C14.8818 169.701 15.235 169.797 15.6543 169.797C16.069 169.797 16.4404 169.747 16.7686 169.646C17.0967 169.546 17.4066 169.416 17.6982 169.257V170.651C17.4111 170.815 17.1035 170.936 16.7754 171.014C16.4473 171.096 16.0439 171.137 15.5654 171.137ZM25.7031 171H24.083V164.69H21.9844C21.8932 165.839 21.7793 166.821 21.6426 167.637C21.5059 168.452 21.335 169.118 21.1299 169.633C20.9248 170.143 20.6719 170.517 20.3711 170.754C20.0703 170.991 19.708 171.109 19.2842 171.109C19.0973 171.109 18.9287 171.096 18.7783 171.068C18.6279 171.046 18.4935 171.009 18.375 170.959V169.694C18.4525 169.722 18.5368 169.744 18.6279 169.763C18.7191 169.781 18.8125 169.79 18.9082 169.79C19.0768 169.79 19.2318 169.722 19.373 169.585C19.5189 169.444 19.6533 169.223 19.7764 168.922C19.8994 168.621 20.0111 168.225 20.1113 167.732C20.2116 167.236 20.3027 166.634 20.3848 165.928C20.4668 165.217 20.5397 164.385 20.6035 163.433H25.7031V171ZM31.0215 163.289C31.696 163.289 32.2747 163.428 32.7578 163.706C33.2409 163.984 33.6123 164.378 33.8721 164.889C34.1318 165.399 34.2617 166.01 34.2617 166.721V167.582H29.21C29.2282 168.316 29.4242 168.881 29.7979 169.277C30.1761 169.674 30.7048 169.872 31.3838 169.872C31.8669 169.872 32.2998 169.826 32.6826 169.735C33.07 169.64 33.4688 169.501 33.8789 169.318V170.624C33.5007 170.802 33.1156 170.932 32.7236 171.014C32.3317 171.096 31.8623 171.137 31.3154 171.137C30.5726 171.137 29.9186 170.993 29.3535 170.706C28.793 170.414 28.3532 169.981 28.0342 169.407C27.7197 168.833 27.5625 168.12 27.5625 167.268C27.5625 166.42 27.7061 165.7 27.9932 165.107C28.2803 164.515 28.6836 164.064 29.2031 163.754C29.7227 163.444 30.3288 163.289 31.0215 163.289ZM31.0215 164.499C30.5156 164.499 30.1055 164.663 29.791 164.991C29.4811 165.319 29.2988 165.8 29.2441 166.434H32.6895C32.6849 166.055 32.6211 165.72 32.498 165.429C32.3796 165.137 32.1973 164.909 31.9512 164.745C31.7096 164.581 31.3997 164.499 31.0215 164.499ZM42.2529 163.433V169.756H43.3467V173.666H41.8633V171H36.6406V173.666H35.1572V169.756H35.7725C36.1553 169.2 36.4743 168.58 36.7295 167.896C36.9893 167.213 37.1898 166.493 37.3311 165.736C37.4769 164.975 37.568 164.207 37.6045 163.433H42.2529ZM40.6602 164.663H38.9854C38.9307 165.278 38.8372 165.891 38.7051 166.502C38.5729 167.108 38.402 167.689 38.1924 168.245C37.9873 168.797 37.7412 169.3 37.4541 169.756H40.6602V164.663ZM43.6133 163.433H45.3633L46.915 167.753C46.9834 167.949 47.0449 168.143 47.0996 168.334C47.1589 168.521 47.209 168.705 47.25 168.888C47.2956 169.07 47.332 169.252 47.3594 169.435H47.4004C47.446 169.198 47.5098 168.933 47.5918 168.642C47.6784 168.345 47.7741 168.049 47.8789 167.753L49.3691 163.433H51.0986L47.8516 172.039C47.6647 172.531 47.4346 172.951 47.1611 173.297C46.8923 173.648 46.5732 173.912 46.2041 174.09C45.835 174.272 45.4134 174.363 44.9395 174.363C44.7116 174.363 44.5133 174.35 44.3447 174.322C44.1761 174.299 44.0326 174.274 43.9141 174.247V172.962C44.0098 172.985 44.1305 173.005 44.2764 173.023C44.4222 173.042 44.5726 173.051 44.7275 173.051C45.0146 173.051 45.263 172.994 45.4727 172.88C45.6823 172.766 45.86 172.604 46.0059 172.395C46.1517 172.189 46.2725 171.955 46.3682 171.69L46.6348 170.979L43.6133 163.433ZM62.3369 167.199C62.3369 168.033 62.1979 168.744 61.9199 169.332C61.6465 169.92 61.2546 170.369 60.7441 170.679C60.2337 170.984 59.623 171.137 58.9121 171.137C58.2832 171.137 57.7249 171.009 57.2373 170.754C56.7542 170.499 56.3669 170.118 56.0752 169.612C55.7835 169.106 55.6035 168.48 55.5352 167.732H53.8535V171H52.2471V163.433H53.8535V166.475H55.5557C55.6377 165.796 55.8245 165.219 56.1162 164.745C56.4079 164.271 56.793 163.911 57.2715 163.665C57.7546 163.414 58.3128 163.289 58.9463 163.289C59.6208 163.289 60.2109 163.444 60.7168 163.754C61.2272 164.059 61.6237 164.504 61.9062 165.087C62.1934 165.666 62.3369 166.37 62.3369 167.199ZM57.1689 167.199C57.1689 167.764 57.2282 168.243 57.3467 168.635C57.4697 169.027 57.6611 169.323 57.9209 169.523C58.1807 169.724 58.5179 169.824 58.9326 169.824C59.3473 169.824 59.6823 169.724 59.9375 169.523C60.1973 169.323 60.3864 169.029 60.5049 168.642C60.6279 168.25 60.6895 167.769 60.6895 167.199C60.6895 166.634 60.6279 166.16 60.5049 165.777C60.3864 165.395 60.1973 165.105 59.9375 164.909C59.6777 164.709 59.3405 164.608 58.9258 164.608C58.5156 164.608 58.1807 164.709 57.9209 164.909C57.6611 165.105 57.4697 165.395 57.3467 165.777C57.2282 166.16 57.1689 166.634 57.1689 167.199ZM74.9082 163.433V169.763H76.002V173.659H74.4912V171H64.1963V163.433H65.8027V169.735H68.7422V163.433H70.3555V169.735H73.3018V163.433H74.9082ZM76.2344 163.433H77.9844L79.5361 167.753C79.6045 167.949 79.666 168.143 79.7207 168.334C79.7799 168.521 79.8301 168.705 79.8711 168.888C79.9167 169.07 79.9531 169.252 79.9805 169.435H80.0215C80.0671 169.198 80.1309 168.933 80.2129 168.642C80.2995 168.345 80.3952 168.049 80.5 167.753L81.9902 163.433H83.7197L80.4727 172.039C80.2858 172.531 80.0557 172.951 79.7822 173.297C79.5133 173.648 79.1943 173.912 78.8252 174.09C78.4561 174.272 78.0345 174.363 77.5605 174.363C77.3327 174.363 77.1344 174.35 76.9658 174.322C76.7972 174.299 76.6536 174.274 76.5352 174.247V172.962C76.6309 172.985 76.7516 173.005 76.8975 173.023C77.0433 173.042 77.1937 173.051 77.3486 173.051C77.6357 173.051 77.8841 172.994 78.0938 172.88C78.3034 172.766 78.4811 172.604 78.627 172.395C78.7728 172.189 78.8936 171.955 78.9893 171.69L79.2559 170.979L76.2344 163.433ZM94.958 167.199C94.958 168.033 94.819 168.744 94.541 169.332C94.2676 169.92 93.8757 170.369 93.3652 170.679C92.8548 170.984 92.2441 171.137 91.5332 171.137C90.9043 171.137 90.346 171.009 89.8584 170.754C89.3753 170.499 88.988 170.118 88.6963 169.612C88.4046 169.106 88.2246 168.48 88.1562 167.732H86.4746V171H84.8682V163.433H86.4746V166.475H88.1768C88.2588 165.796 88.4456 165.219 88.7373 164.745C89.029 164.271 89.4141 163.911 89.8926 163.665C90.3757 163.414 90.9339 163.289 91.5674 163.289C92.2419 163.289 92.832 163.444 93.3379 163.754C93.8483 164.059 94.2448 164.504 94.5273 165.087C94.8145 165.666 94.958 166.37 94.958 167.199ZM89.79 167.199C89.79 167.764 89.8493 168.243 89.9678 168.635C90.0908 169.027 90.2822 169.323 90.542 169.523C90.8018 169.724 91.139 169.824 91.5537 169.824C91.9684 169.824 92.3034 169.724 92.5586 169.523C92.8184 169.323 93.0075 169.029 93.126 168.642C93.249 168.25 93.3105 167.769 93.3105 167.199C93.3105 166.634 93.249 166.16 93.126 165.777C93.0075 165.395 92.8184 165.105 92.5586 164.909C92.2988 164.709 91.9616 164.608 91.5469 164.608C91.1367 164.608 90.8018 164.709 90.542 164.909C90.2822 165.105 90.0908 165.395 89.9678 165.777C89.8493 166.16 89.79 166.634 89.79 167.199ZM106.818 165.374C106.818 165.812 106.684 166.169 106.415 166.447C106.151 166.721 105.786 166.901 105.321 166.987V167.042C105.818 167.106 106.233 167.281 106.565 167.568C106.898 167.855 107.064 168.254 107.064 168.765C107.064 169.198 106.955 169.583 106.736 169.92C106.522 170.253 106.18 170.517 105.711 170.713C105.246 170.904 104.638 171 103.886 171H100.454V163.433H103.872C104.437 163.433 104.941 163.494 105.383 163.617C105.829 163.74 106.18 163.943 106.436 164.226C106.691 164.508 106.818 164.891 106.818 165.374ZM105.39 168.71C105.39 168.336 105.246 168.067 104.959 167.903C104.676 167.739 104.262 167.657 103.715 167.657H102.067V169.817H103.749C104.259 169.817 104.66 169.733 104.952 169.564C105.244 169.391 105.39 169.106 105.39 168.71ZM105.185 165.518C105.185 165.221 105.073 165.003 104.85 164.861C104.626 164.715 104.275 164.643 103.797 164.643H102.067V166.475H103.578C104.107 166.475 104.506 166.399 104.774 166.249C105.048 166.094 105.185 165.85 105.185 165.518ZM110.421 163.433V167.295C110.421 167.418 110.416 167.575 110.407 167.767C110.403 167.953 110.394 168.149 110.38 168.354C110.366 168.555 110.353 168.74 110.339 168.908C110.325 169.077 110.314 169.202 110.305 169.284L114.112 163.433H116.067V171H114.529V167.179C114.529 166.978 114.534 166.746 114.543 166.481C114.557 166.217 114.57 165.962 114.584 165.716C114.602 165.47 114.614 165.283 114.618 165.155L110.824 171H108.876V163.433H110.421ZM120.729 163.289C121.285 163.289 121.785 163.364 122.227 163.515C122.673 163.66 123.026 163.882 123.286 164.178C123.546 164.474 123.676 164.843 123.676 165.285C123.676 165.741 123.544 166.105 123.279 166.379C123.02 166.648 122.666 166.841 122.22 166.96V167.021C122.534 167.099 122.819 167.211 123.074 167.356C123.329 167.498 123.532 167.689 123.683 167.931C123.838 168.168 123.915 168.473 123.915 168.847C123.915 169.271 123.79 169.656 123.539 170.002C123.293 170.348 122.915 170.624 122.404 170.829C121.894 171.034 121.244 171.137 120.456 171.137C120.078 171.137 119.718 171.116 119.376 171.075C119.039 171.039 118.731 170.986 118.453 170.918C118.175 170.845 117.934 170.758 117.729 170.658V169.277C118.043 169.428 118.424 169.564 118.87 169.688C119.317 169.806 119.795 169.865 120.306 169.865C120.684 169.865 121.026 169.831 121.331 169.763C121.641 169.69 121.885 169.571 122.062 169.407C122.245 169.243 122.336 169.024 122.336 168.751C122.336 168.5 122.256 168.293 122.097 168.129C121.937 167.965 121.698 167.844 121.379 167.767C121.06 167.685 120.657 167.644 120.169 167.644H119.267V166.461H120.06C120.729 166.461 121.254 166.388 121.632 166.242C122.015 166.092 122.206 165.832 122.206 165.463C122.206 165.153 122.072 164.921 121.803 164.766C121.534 164.611 121.121 164.533 120.565 164.533C120.183 164.533 119.804 164.576 119.431 164.663C119.057 164.745 118.683 164.864 118.31 165.019L117.804 163.836C118.218 163.667 118.663 163.535 119.137 163.439C119.611 163.339 120.142 163.289 120.729 163.289ZM127.196 163.433V167.295C127.196 167.418 127.192 167.575 127.183 167.767C127.178 167.953 127.169 168.149 127.155 168.354C127.142 168.555 127.128 168.74 127.114 168.908C127.101 169.077 127.089 169.202 127.08 169.284L130.888 163.433H132.843V171H131.305V167.179C131.305 166.978 131.309 166.746 131.318 166.481C131.332 166.217 131.346 165.962 131.359 165.716C131.378 165.47 131.389 165.283 131.394 165.155L127.6 171H125.651V163.433H127.196ZM140.868 164.697H138.38V171H136.78V164.697H134.306V163.433H140.868V164.697ZM147.021 163.433H148.791L145.66 167.069L149.058 171H147.205L143.944 167.158V171H142.331V163.433H143.944V167.104L147.021 163.433ZM149.146 163.433H150.896L152.448 167.753C152.517 167.949 152.578 168.143 152.633 168.334C152.692 168.521 152.742 168.705 152.783 168.888C152.829 169.07 152.865 169.252 152.893 169.435H152.934C152.979 169.198 153.043 168.933 153.125 168.642C153.212 168.345 153.307 168.049 153.412 167.753L154.902 163.433H156.632L153.385 172.039C153.198 172.531 152.968 172.951 152.694 173.297C152.425 173.648 152.106 173.912 151.737 174.09C151.368 174.272 150.947 174.363 150.473 174.363C150.245 174.363 150.047 174.35 149.878 174.322C149.709 174.299 149.566 174.274 149.447 174.247V172.962C149.543 172.985 149.664 173.005 149.81 173.023C149.955 173.042 150.106 173.051 150.261 173.051C150.548 173.051 150.796 172.994 151.006 172.88C151.215 172.766 151.393 172.604 151.539 172.395C151.685 172.189 151.806 171.955 151.901 171.69L152.168 170.979L149.146 163.433Z" fill="white"/>
</g>
<defs>
<filter id="filter0_d_476_2924" x="-1" y="-4" width="170" height="192" filterUnits="userSpaceOnUse" color-interpolation-filters="sRGB">
<feFlood flood-opacity="0" result="BackgroundImageFix"/>
<feColorMatrix in="SourceAlpha" type="matrix" values="0 0 0 0 0 0 0 0 0 0 0 0 0 0 0 0 0 0 127 0" result="hardAlpha"/>
<feOffset/>
<feGaussianBlur stdDeviation="6"/>
<feColorMatrix type="matrix" values="0 0 0 0 0 0 0 0 0 0 0 0 0 0 0 0 0 0 0.25 0"/>
<feBlend mode="normal" in2="BackgroundImageFix" result="effect1_dropShadow_476_2924"/>
<feBlend mode="normal" in="SourceGraphic" in2="effect1_dropShadow_476_2924" result="shape"/>
</filter>
</defs>
</svg>
