<svg width="24" height="24" viewBox="0 0 24 24" fill="none" xmlns="http://www.w3.org/2000/svg">
<path d="M14.9162 2.10813C15.3161 2.00024 15.7332 1.97274 16.1436 2.0272C16.5541 2.08165 16.9499 2.217 17.3084 2.4255C17.6669 2.63401 17.9811 2.91159 18.2331 3.2424C18.4851 3.57321 18.6699 3.95077 18.777 4.35352L21.8926 16.0619C21.9998 16.4646 22.0271 16.8846 21.973 17.298C21.9189 17.7114 21.7845 18.11 21.5775 18.471C21.3705 18.8321 21.0948 19.1485 20.7664 19.4023C20.4379 19.656 20.063 19.8422 19.6631 19.95L12.4666 21.8918C11.6591 22.1097 10.7987 21.9957 10.0747 21.5748C9.35069 21.154 8.82232 20.4607 8.6058 19.6476L5.48899 7.93806C5.38188 7.53524 5.35462 7.11513 5.40877 6.70171C5.46292 6.28828 5.59741 5.88965 5.80456 5.52859C6.01171 5.16752 6.28746 4.85109 6.61607 4.59737C6.94467 4.34366 7.31969 4.15762 7.7197 4.0499L14.9162 2.10813ZM5.47867 12.3596L7.49847 19.9454C7.6971 20.6969 8.094 21.3802 8.64706 21.923L8.13925 21.8964C7.30444 21.8522 6.52123 21.476 5.96188 20.8503C5.40253 20.2246 5.11285 19.4008 5.15656 18.5601L5.47867 12.3607V12.3596ZM15.361 3.78091L8.16447 5.72268C7.98269 5.77171 7.81228 5.85633 7.66298 5.97169C7.51367 6.08705 7.38839 6.2309 7.2943 6.39503C7.2002 6.55916 7.13912 6.74034 7.11456 6.92824C7.08999 7.11614 7.10242 7.30707 7.15113 7.49013L10.2668 19.1985C10.3651 19.5679 10.6051 19.883 10.934 20.0743C11.2628 20.2657 11.6537 20.3177 12.0206 20.219L19.2183 18.2772C19.4001 18.2282 19.5705 18.1436 19.7198 18.0282C19.8691 17.9129 19.9944 17.769 20.0885 17.6049C20.1826 17.4408 20.2436 17.2596 20.2682 17.0717C20.2928 16.8838 20.2803 16.6928 20.2316 16.5098L17.116 4.80144C17.0176 4.43197 16.7777 4.11694 16.4488 3.92558C16.1199 3.73422 15.7291 3.68219 15.3621 3.78091H15.361ZM4.41834 10.6533L4.0114 18.4989C3.96899 19.3058 4.14896 20.0724 4.49744 20.7385L4.02286 20.5538C3.63635 20.4044 3.28284 20.1798 2.98253 19.8928C2.68221 19.6058 2.44096 19.2621 2.27257 18.8812C2.10417 18.5003 2.01192 18.0897 2.00108 17.673C1.99024 17.2562 2.06103 16.8413 2.20941 16.4521L4.41834 10.6533ZM9.99397 7.02258C10.1394 6.98332 10.2911 6.97328 10.4403 6.99305C10.5896 7.01282 10.7335 7.062 10.8639 7.13779C10.9943 7.21358 11.1086 7.31449 11.2003 7.43477C11.292 7.55504 11.3592 7.69232 11.3982 7.83877C11.4372 7.98522 11.4472 8.13797 11.4275 8.2883C11.4079 8.43863 11.3591 8.58359 11.2838 8.71491C11.2085 8.84623 11.1083 8.96133 10.9889 9.05365C10.8695 9.14597 10.7332 9.2137 10.5878 9.25296C10.2941 9.33226 9.98114 9.29082 9.7178 9.13776C9.45446 8.98469 9.26228 8.73254 9.18354 8.43677C9.10479 8.14101 9.14594 7.82585 9.29793 7.56064C9.44992 7.29543 9.70029 7.10188 9.99397 7.02258Z" fill="#333333"/>
</svg>
