<svg width="24" height="24" viewBox="0 0 24 24" fill="none" xmlns="http://www.w3.org/2000/svg">
<path d="M6.75 20C6.26875 20 5.85663 19.832 5.51363 19.496C5.17063 19.16 4.99942 18.7566 5 18.2857V9.71429C5 9.24286 5.1715 8.83914 5.5145 8.50314C5.8575 8.16714 6.26933 7.99943 6.75 8H7.625V6.28571C7.625 5.1 8.05171 4.08914 8.90513 3.25314C9.75854 2.41714 10.7902 1.99943 12 2C13.2104 2 14.2423 2.418 15.0957 3.254C15.9492 4.09 16.3756 5.10057 16.375 6.28571V8H17.25C17.7312 8 18.1434 8.168 18.4864 8.504C18.8294 8.84 19.0006 9.24343 19 9.71429V18.2857C19 18.7571 18.8285 19.1609 18.4855 19.4969C18.1425 19.8329 17.7307 20.0006 17.25 20H6.75ZM12 15.7143C12.4813 15.7143 12.8934 15.5463 13.2364 15.2103C13.5794 14.8743 13.7506 14.4709 13.75 14C13.75 13.5286 13.5785 13.1249 13.2355 12.7889C12.8925 12.4529 12.4807 12.2851 12 12.2857C11.5188 12.2857 11.1066 12.4537 10.7636 12.7897C10.4206 13.1257 10.2494 13.5291 10.25 14C10.25 14.4714 10.4215 14.8751 10.7645 15.2111C11.1075 15.5471 11.5193 15.7149 12 15.7143ZM9.375 8H14.625V6.28571C14.625 5.57143 14.3698 4.96429 13.8594 4.46429C13.349 3.96429 12.7292 3.71429 12 3.71429C11.2708 3.71429 10.651 3.96429 10.1406 4.46429C9.63021 4.96429 9.375 5.57143 9.375 6.28571V8Z" fill="#333333"/>
</svg>
