<svg width="24" height="24" viewBox="0 0 24 24" fill="none" xmlns="http://www.w3.org/2000/svg">
<path d="M12 20C10.9067 20 9.87333 19.7899 8.9 19.3696C7.92667 18.9493 7.07653 18.376 6.3496 17.6496C5.6232 16.9232 5.04987 16.0733 4.6296 15.1C4.20933 14.1267 3.99947 13.0933 4 12C4 10.8933 4.21013 9.85653 4.6304 8.8896C5.05067 7.92267 5.624 7.07627 6.3504 6.3504C7.0768 5.62347 7.9264 5.05013 8.8992 4.6304C9.872 4.21067 10.9056 4.00053 12 4C13.1067 4 14.1435 4.21013 15.1104 4.6304C16.0773 5.05067 16.9237 5.624 17.6496 6.3504C18.3765 7.0768 18.9499 7.92347 19.3696 8.8904C19.7893 9.85733 19.9995 10.8939 20 12V13.16C20 13.9467 19.7301 14.6168 19.1904 15.1704C18.6507 15.724 17.9872 16.0005 17.2 16C16.72 16 16.2733 15.8933 15.86 15.68C15.4467 15.4667 15.1067 15.1867 14.84 14.84C14.48 15.2 14.0565 15.4835 13.5696 15.6904C13.0827 15.8973 12.5595 16.0005 12 16C10.8933 16 9.94987 15.6099 9.1696 14.8296C8.38933 14.0493 7.99947 13.1061 8 12C8 10.8933 8.39013 9.94987 9.1704 9.1696C9.95067 8.38933 10.8939 7.99947 12 8C13.1067 8 14.0501 8.39013 14.8304 9.1704C15.6107 9.95067 16.0005 10.8939 16 12V13.16C16 13.5467 16.12 13.8499 16.36 14.0696C16.6 14.2893 16.88 14.3995 17.2 14.4C17.52 14.4 17.8 14.2899 18.04 14.0696C18.28 13.8493 18.4 13.5461 18.4 13.16V12C18.4 10.2533 17.7699 8.74987 16.5096 7.4896C15.2493 6.22933 13.7461 5.59947 12 5.6C10.2533 5.6 8.74987 6.23013 7.4896 7.4904C6.22933 8.75067 5.59947 10.2539 5.6 12C5.6 13.7467 6.23013 15.2501 7.4904 16.5104C8.75067 17.7707 10.2539 18.4005 12 18.4H15.2C15.4267 18.4 15.6168 18.4768 15.7704 18.6304C15.924 18.784 16.0005 18.9739 16 19.2C16 19.4267 15.9232 19.6168 15.7696 19.7704C15.616 19.924 15.4261 20.0005 15.2 20H12ZM12 14.4C12.6667 14.4 13.2333 14.1667 13.7 13.7C14.1667 13.2333 14.4 12.6667 14.4 12C14.4 11.3333 14.1667 10.7667 13.7 10.3C13.2333 9.83333 12.6667 9.6 12 9.6C11.3333 9.6 10.7667 9.83333 10.3 10.3C9.83333 10.7667 9.6 11.3333 9.6 12C9.6 12.6667 9.83333 13.2333 10.3 13.7C10.7667 14.1667 11.3333 14.4 12 14.4Z" fill="#333333"/>
</svg>
